<svg width="24" height="24" viewBox="0 0 24 24" fill="none" xmlns="http://www.w3.org/2000/svg">
<g clip-path="url(#clip0_3601_4481)">
<path d="M5.76458 17.1302C4.82186 17.1302 4.05493 17.8995 4.05493 18.8451C4.05493 19.7907 4.82186 20.5601 5.76458 20.5601C6.70729 20.5601 7.47427 19.7907 7.47427 18.8451C7.47427 17.8995 6.70729 17.1302 5.76458 17.1302ZM4.56341 18.8451C4.56341 18.2675 4.96978 17.7836 5.51034 17.6661V20.0241C4.96978 19.9066 4.56341 19.4227 4.56341 18.8451ZM6.01881 20.0241V17.6661C6.55942 17.7836 6.9658 18.2675 6.9658 18.8451C6.9658 19.4227 6.55942 19.9066 6.01881 20.0241ZM21.6223 15.6814H20.1686C20.1012 15.6814 20.0365 15.6546 19.9889 15.6069C19.9412 15.5592 19.9144 15.4945 19.9144 15.4271C19.9144 15.3597 19.9412 15.295 19.9889 15.2473C20.0365 15.1997 20.1012 15.1729 20.1686 15.1729H21.6223C21.6897 15.1729 21.7544 15.1997 21.802 15.2473C21.8497 15.295 21.8765 15.3597 21.8765 15.4271C21.8765 15.4945 21.8497 15.5592 21.802 15.6069C21.7544 15.6546 21.6897 15.6814 21.6223 15.6814ZM21.6223 13.7143H20.1686C20.1012 13.7143 20.0365 13.6875 19.9889 13.6399C19.9412 13.5922 19.9144 13.5275 19.9144 13.4601C19.9144 13.3927 19.9412 13.328 19.9889 13.2803C20.0365 13.2326 20.1012 13.2058 20.1686 13.2058H21.6223C21.6897 13.2058 21.7544 13.2326 21.802 13.2803C21.8497 13.328 21.8765 13.3927 21.8765 13.4601C21.8765 13.5275 21.8497 13.5922 21.802 13.6399C21.7544 13.6875 21.6897 13.7143 21.6223 13.7143ZM21.6223 17.6484H20.1686C20.1012 17.6484 20.0365 17.6217 19.9889 17.574C19.9412 17.5263 19.9144 17.4616 19.9144 17.3942C19.9144 17.3268 19.9412 17.2621 19.9889 17.2144C20.0365 17.1667 20.1012 17.14 20.1686 17.14H21.6223C21.6897 17.14 21.7544 17.1667 21.802 17.2144C21.8497 17.2621 21.8765 17.3268 21.8765 17.3942C21.8765 17.4616 21.8497 17.5263 21.802 17.574C21.7544 17.6217 21.6897 17.6484 21.6223 17.6484ZM20.8955 20.7821C20.3531 20.7821 19.9119 20.3529 19.9119 19.8254C19.9119 19.2978 20.3531 18.8686 20.8955 18.8686C21.4378 18.8686 21.879 19.2978 21.879 19.8254C21.879 20.3529 21.4378 20.7821 20.8955 20.7821ZM20.8955 19.377C20.6335 19.377 20.4204 19.5781 20.4204 19.8253C20.4204 20.0725 20.6335 20.2736 20.8955 20.2736C21.1574 20.2736 21.3705 20.0725 21.3705 19.8253C21.3705 19.5781 21.1574 19.377 20.8955 19.377ZM17.5185 20.8727H10.1217C10.0543 20.8727 9.9896 20.8459 9.94192 20.7983C9.89424 20.7506 9.86746 20.6859 9.86746 20.6185V13.3695C9.86746 13.302 9.89424 13.2374 9.94192 13.1897C9.9896 13.142 10.0543 13.1152 10.1217 13.1152H17.5185C17.5859 13.1152 17.6506 13.142 17.6982 13.1897C17.7459 13.2374 17.7727 13.302 17.7727 13.3695V20.6185C17.7727 20.6859 17.7459 20.7506 17.6982 20.7983C17.6506 20.8459 17.5859 20.8727 17.5185 20.8727ZM10.3759 20.3643H17.2642V13.6237H10.3759V20.3643Z" fill="black"/>
<path d="M22.2204 11.5897H9.44219L9.76649 8.86988H10.6247C11.0246 8.86988 11.3487 9.23507 11.3054 9.6329C11.2981 9.69993 11.3178 9.76713 11.36 9.81969C11.4022 9.87226 11.4636 9.90589 11.5307 9.91319C11.5977 9.9205 11.6649 9.90087 11.7175 9.85863C11.77 9.81639 11.8037 9.755 11.811 9.68797C11.8864 8.99441 11.324 8.36146 10.6248 8.36146H9.82721L9.98158 7.06668H10.1054C10.1728 7.06668 10.2375 7.03989 10.2852 6.99221C10.3328 6.94453 10.3596 6.87987 10.3596 6.81244C10.3596 6.74501 10.3328 6.68035 10.2852 6.63267C10.2375 6.58499 10.1728 6.5582 10.1054 6.5582H9.8301C9.79405 5.49971 8.92232 4.64959 7.85519 4.64959H6.698C6.854 4.4403 6.94695 4.18149 6.94695 3.90112C6.94695 3.48137 6.7397 3.10932 6.42221 2.88092V2.07107H9.70543C9.78607 2.43539 10.1111 2.70885 10.4994 2.70885H13.2465C13.6347 2.70885 13.9598 2.43534 14.0404 2.07107H17.5779V8.28458C17.5779 8.352 17.6047 8.41667 17.6523 8.46435C17.7 8.51203 17.7647 8.53881 17.8321 8.53881C17.8995 8.53881 17.9642 8.51203 18.0119 8.46435C18.0596 8.41667 18.0864 8.352 18.0864 8.28458V1.81683C18.0864 1.7494 18.0596 1.68474 18.0119 1.63706C17.9642 1.58938 17.8995 1.56259 17.8321 1.56259H14.0601V0.508475H17.6695C18.3704 0.508475 18.9407 1.07873 18.9407 1.77966V9.81C18.9407 9.87743 18.9675 9.94209 19.0152 9.98977C19.0628 10.0375 19.1275 10.0642 19.1949 10.0642C19.2624 10.0642 19.327 10.0375 19.3747 9.98977C19.4224 9.94209 19.4492 9.87743 19.4492 9.81V1.77966C19.4492 0.798356 18.6508 0 17.6695 0H6.33053C5.34922 0 4.55087 0.798356 4.55087 1.77966V3.36341C4.47091 3.53134 4.42949 3.71502 4.42965 3.90102C4.42965 4.18139 4.5226 4.4402 4.6786 4.64949H3.67568C2.6086 4.64949 1.73687 5.49961 1.70082 6.5581H1.27121C1.20378 6.5581 1.13911 6.58489 1.09143 6.63257C1.04375 6.68024 1.01697 6.74491 1.01697 6.81234C1.01697 6.94114 1.11312 7.04649 1.23739 7.06317L1.65922 8.00181L2.42966 14.463C2.48244 14.9052 2.70546 15.2894 3.02758 15.5542C2.87511 15.6317 2.74106 15.7409 2.6345 15.8747C2.52795 16.0084 2.45138 16.1635 2.40998 16.3294L1.29612 20.7775C1.13031 21.4397 1.58076 22.1376 2.25653 22.2494V23.7458C2.25653 23.8132 2.28331 23.8779 2.33099 23.9255C2.37867 23.9732 2.44334 24 2.51076 24H4.41388C4.48131 24 4.54598 23.9732 4.59366 23.9255C4.64134 23.8779 4.66812 23.8132 4.66812 23.7458V22.2657H7.23815C7.30558 22.2657 7.37025 22.2389 7.41793 22.1912C7.46561 22.1436 7.49239 22.0789 7.49239 22.0115C7.49239 21.944 7.46561 21.8794 7.41793 21.8317C7.37025 21.784 7.30558 21.7572 7.23815 21.7572H2.45341C2.01643 21.7572 1.68322 21.325 1.78939 20.9011L2.90326 16.453C2.97993 16.1467 3.25304 15.9327 3.56732 15.9327H7.05454C7.12197 15.9327 7.18664 15.906 7.23432 15.8583C7.282 15.8106 7.30878 15.7459 7.30878 15.6785C7.30878 15.6111 7.282 15.5464 7.23432 15.4987C7.18664 15.4511 7.12197 15.4243 7.05454 15.4243H4.08063C3.49675 15.4243 3.00404 14.9851 2.93458 14.4028L2.56431 11.2975H8.96499L8.92756 11.6113C8.59232 11.6915 8.34205 11.9929 8.34205 12.3524V21.6353C8.34205 22.0558 8.68421 22.398 9.10476 22.398H10.387V23.7458C10.387 23.8132 10.4138 23.8779 10.4614 23.9255C10.5091 23.9732 10.5738 24 10.6412 24H12.2433C12.3107 24 12.3754 23.9732 12.423 23.9255C12.4707 23.8779 12.4975 23.8132 12.4975 23.7458V22.398H18.8277V23.7458C18.8277 23.8132 18.8544 23.8779 18.9021 23.9255C18.9498 23.9732 19.0145 24 19.0819 24H20.684C20.7514 24 20.816 23.9732 20.8637 23.9255C20.9114 23.8779 20.9382 23.8132 20.9382 23.7458V22.398H22.2204C22.6409 22.398 22.9831 22.0558 22.9831 21.6353V12.3524C22.9831 11.9318 22.6409 11.5897 22.2204 11.5897ZM10.1942 0.508475H13.5515V1.89534C13.5515 2.06359 13.4147 2.20042 13.2464 2.20042H10.4993C10.3311 2.20042 10.1942 2.06359 10.1942 1.89534V0.508475ZM2.76495 22.2657H4.1596V23.4915H2.76495V22.2657ZM5.05934 1.77966C5.05934 1.07873 5.6296 0.508475 6.33053 0.508475H9.68575V1.56259H6.16792C6.10049 1.56259 6.03582 1.58938 5.98814 1.63706C5.94047 1.68474 5.91368 1.7494 5.91368 1.81683V2.66466C5.6203 2.61161 5.31762 2.66415 5.05929 2.81298L5.05934 1.77966ZM5.68827 3.15254C6.10197 3.15254 6.43848 3.48834 6.43848 3.90102C6.43848 4.31369 6.10197 4.64949 5.68827 4.64949C5.27463 4.64949 4.93812 4.31369 4.93812 3.90102C4.93812 3.48834 5.27463 3.15254 5.68827 3.15254ZM3.67568 5.15797H7.85514C8.64185 5.15797 9.28588 5.78003 9.32158 6.5581H2.20929C2.24498 5.78003 2.88897 5.15797 3.67568 5.15797ZM2.50365 10.789L2.15951 7.90302C2.15644 7.87741 2.14952 7.85242 2.13897 7.82888L1.79641 7.06658H9.46949L9.02565 10.789H2.50365ZM11.989 23.4915H10.8954V22.398H11.989V23.4915ZM18.7897 21.8895H9.10476C8.96458 21.8895 8.85053 21.7755 8.85053 21.6353V12.3524C8.85053 12.2122 8.96458 12.0981 9.10476 12.0981H18.7897V21.8895ZM20.4297 23.4915H19.3361V22.398H20.4297V23.4915ZM22.4746 21.6353C22.4746 21.7755 22.3605 21.8895 22.2204 21.8895H19.2982V12.0981H22.2204C22.3605 12.0981 22.4746 12.2122 22.4746 12.3524V21.6353ZM22.2548 6.95532C22.1874 6.95532 22.1227 6.92854 22.0751 6.88086C22.0274 6.83318 22.0006 6.76851 22.0006 6.70108V6.3633C22.0006 6.29588 22.0274 6.23121 22.0751 6.18353C22.1227 6.13585 22.1874 6.10907 22.2548 6.10907C22.3223 6.10907 22.3869 6.13585 22.4346 6.18353C22.4823 6.23121 22.5091 6.29588 22.5091 6.3633V6.70108C22.5091 6.76851 22.4823 6.83318 22.4346 6.88086C22.3869 6.92854 22.3223 6.95532 22.2548 6.95532ZM22.2548 8.58208C22.1874 8.58208 22.1227 8.5553 22.0751 8.50762C22.0274 8.45994 22.0006 8.39528 22.0006 8.32785V8.04091C22.0006 7.97349 22.0274 7.90882 22.0751 7.86114C22.1227 7.81346 22.1874 7.78668 22.2548 7.78668C22.3223 7.78668 22.3869 7.81346 22.4346 7.86114C22.4823 7.90882 22.5091 7.97349 22.5091 8.04091V8.32785C22.5091 8.39528 22.4823 8.45994 22.4346 8.50762C22.3869 8.5553 22.3223 8.58208 22.2548 8.58208ZM23.2373 7.59981H22.9503C22.8828 7.59981 22.8182 7.57303 22.7705 7.52535C22.7228 7.47767 22.696 7.413 22.696 7.34558C22.696 7.27815 22.7228 7.21348 22.7705 7.1658C22.8182 7.11812 22.8828 7.09134 22.9503 7.09134H23.2373C23.3047 7.09134 23.3694 7.11812 23.4171 7.1658C23.4648 7.21348 23.4915 7.27815 23.4915 7.34558C23.4915 7.413 23.4648 7.47767 23.4171 7.52535C23.3694 7.57303 23.3047 7.59981 23.2373 7.59981Z" fill="black"/>
<path d="M21.5593 7.59976H21.2723C21.2049 7.59976 21.1402 7.57298 21.0925 7.5253C21.0448 7.47762 21.0181 7.41296 21.0181 7.34553C21.0181 7.2781 21.0448 7.21343 21.0925 7.16575C21.1402 7.11808 21.2049 7.09129 21.2723 7.09129H21.5593C21.6268 7.09129 21.6914 7.11808 21.7391 7.16575C21.7868 7.21343 21.8136 7.2781 21.8136 7.34553C21.8136 7.41296 21.7868 7.47762 21.7391 7.5253C21.6914 7.57298 21.6268 7.59976 21.5593 7.59976ZM1.7452 0.853578C1.67777 0.853578 1.6131 0.826793 1.56542 0.779114C1.51774 0.731435 1.49096 0.666769 1.49096 0.599341V0.261562C1.49096 0.194134 1.51774 0.129467 1.56542 0.0817886C1.6131 0.0341099 1.67777 0.00732422 1.7452 0.00732422C1.81262 0.00732422 1.87729 0.0341099 1.92497 0.0817886C1.97265 0.129467 1.99943 0.194134 1.99943 0.261562V0.599341C1.99943 0.666769 1.97265 0.731435 1.92497 0.779114C1.87729 0.826793 1.81262 0.853578 1.7452 0.853578ZM1.7452 2.48034C1.67777 2.48034 1.6131 2.45356 1.56542 2.40588C1.51774 2.3582 1.49096 2.29353 1.49096 2.2261V1.93917C1.49096 1.87174 1.51774 1.80708 1.56542 1.7594C1.6131 1.71172 1.67777 1.68493 1.7452 1.68493C1.81262 1.68493 1.87729 1.71172 1.92497 1.7594C1.97265 1.80708 1.99943 1.87174 1.99943 1.93917V2.2261C1.99943 2.29353 1.97265 2.3582 1.92497 2.40588C1.87729 2.45356 1.81262 2.48034 1.7452 2.48034ZM2.72772 1.49807H2.44069C2.37326 1.49807 2.30859 1.47128 2.26091 1.42361C2.21324 1.37593 2.18645 1.31126 2.18645 1.24383C2.18645 1.1764 2.21324 1.11174 2.26091 1.06406C2.30859 1.01638 2.37326 0.989595 2.44069 0.989595H2.72772C2.79515 0.989595 2.85982 1.01638 2.90749 1.06406C2.95517 1.11174 2.98196 1.1764 2.98196 1.24383C2.98196 1.31126 2.95517 1.37593 2.90749 1.42361C2.85982 1.47128 2.79515 1.49807 2.72772 1.49807ZM1.04976 1.49807H0.762721C0.695293 1.49807 0.630627 1.47128 0.582948 1.42361C0.53527 1.37593 0.508484 1.31126 0.508484 1.24383C0.508484 1.1764 0.53527 1.11174 0.582948 1.06406C0.630627 1.01638 0.695293 0.989595 0.762721 0.989595H1.04976C1.11718 0.989595 1.18185 1.01638 1.22953 1.06406C1.27721 1.11174 1.30399 1.1764 1.30399 1.24383C1.30399 1.31126 1.27721 1.37593 1.22953 1.42361C1.18185 1.47128 1.11718 1.49807 1.04976 1.49807Z" fill="black"/>
<path d="M17.832 10.0492C18.0134 10.0492 18.1604 9.90232 18.1604 9.72113C18.1604 9.53995 18.0134 9.39307 17.832 9.39307C17.6507 9.39307 17.5037 9.53995 17.5037 9.72113C17.5037 9.90232 17.6507 10.0492 17.832 10.0492Z" fill="black"/>
<path d="M11.4253 11.1679C11.6067 11.1679 11.7537 11.021 11.7537 10.8398C11.7537 10.6586 11.6067 10.5117 11.4253 10.5117C11.2439 10.5117 11.0969 10.6586 11.0969 10.8398C11.0969 11.021 11.2439 11.1679 11.4253 11.1679Z" fill="black"/>
</g>
<defs>
<clipPath id="clip0_3601_4481">
<rect width="24" height="24" fill="white"/>
</clipPath>
</defs>
</svg>
