<svg width="24" height="24" viewBox="0 0 24 24" fill="none" xmlns="http://www.w3.org/2000/svg">
<path d="M1.875 18.75H0.375C0.275544 18.75 0.180161 18.7105 0.109835 18.6402C0.0395088 18.5698 0 18.4745 0 18.375V6.375C0 5.75475 0.50475 5.25 1.125 5.25C1.74525 5.25 2.25 5.75475 2.25 6.375V18.375C2.25 18.4745 2.21049 18.5698 2.14016 18.6402C2.06984 18.7105 1.97446 18.75 1.875 18.75ZM0.75 18H1.5V6.375C1.49568 6.27845 1.45428 6.18728 1.38443 6.12048C1.31458 6.05368 1.22165 6.0164 1.125 6.0164C1.02835 6.0164 0.935422 6.05368 0.865568 6.12048C0.795715 6.18728 0.754319 6.27845 0.75 6.375V18ZM23.625 18.75H22.125C22.0255 18.75 21.9302 18.7105 21.8598 18.6402C21.7895 18.5698 21.75 18.4745 21.75 18.375V10.125C21.75 9.50475 22.2547 9 22.875 9C23.4953 9 24 9.50475 24 10.125V18.375C24 18.4745 23.9605 18.5698 23.8902 18.6402C23.8198 18.7105 23.7245 18.75 23.625 18.75ZM22.5 18H23.25V10.125C23.2457 10.0284 23.2043 9.93728 23.1344 9.87048C23.0646 9.80368 22.9717 9.7664 22.875 9.7664C22.7783 9.7664 22.6854 9.80368 22.6156 9.87048C22.5457 9.93728 22.5043 10.0284 22.5 10.125V18Z" fill="black"/>
<path d="M22.125 16.875H1.875C1.77554 16.875 1.68016 16.8355 1.60984 16.7652C1.53951 16.6948 1.5 16.5995 1.5 16.5V12.75C1.5 12.6505 1.53951 12.5552 1.60984 12.4848C1.68016 12.4145 1.77554 12.375 1.875 12.375H7.125C7.22446 12.375 7.31984 12.4145 7.39017 12.4848C7.46049 12.5552 7.5 12.6505 7.5 12.75C7.5 12.8495 7.46049 12.9448 7.39017 13.0152C7.31984 13.0855 7.22446 13.125 7.125 13.125H2.25V16.125H21.75V12.75C21.75 12.6505 21.7895 12.5552 21.8598 12.4848C21.9302 12.4145 22.0255 12.375 22.125 12.375C22.2245 12.375 22.3198 12.4145 22.3902 12.4848C22.4605 12.5552 22.5 12.6505 22.5 12.75V16.5C22.5 16.5995 22.4605 16.6948 22.3902 16.7652C22.3198 16.8355 22.2245 16.875 22.125 16.875Z" fill="black"/>
<path d="M22.125 15.375H7.125C7.02554 15.375 6.93016 15.3355 6.85983 15.2652C6.78951 15.1948 6.75 15.0995 6.75 15V12C6.75 10.9661 7.59113 10.125 8.625 10.125H20.625C21.6589 10.125 22.5 10.9661 22.5 12V15C22.5 15.0995 22.4605 15.1948 22.3902 15.2652C22.3198 15.3355 22.2245 15.375 22.125 15.375ZM7.5 14.625H21.75V12C21.75 11.3798 21.2452 10.875 20.625 10.875H8.625C8.00475 10.875 7.5 11.3798 7.5 12V14.625Z" fill="black"/>
<path d="M7.125 13.125H1.875C1.77554 13.125 1.68016 13.0855 1.60984 13.0152C1.53951 12.9448 1.5 12.8495 1.5 12.75V11.25C1.5 10.2161 2.34113 9.375 3.375 9.375H5.625C6.65887 9.375 7.5 10.2161 7.5 11.25V12.75C7.5 12.8495 7.46049 12.9448 7.39017 13.0152C7.31984 13.0855 7.22446 13.125 7.125 13.125ZM2.25 12.375H6.75V11.25C6.75 10.6298 6.24525 10.125 5.625 10.125H3.375C2.75475 10.125 2.25 10.6298 2.25 11.25V12.375Z" fill="black"/>
</svg>
