<svg width="25" height="25" viewBox="0 0 25 25" fill="none" xmlns="http://www.w3.org/2000/svg">
<g clip-path="url(#clip0_2420_19484)">
<path d="M13 24.4998H2C1.173 24.4998 0.5 23.8268 0.5 22.9998V21.9998C0.5 21.1728 1.173 20.4998 2 20.4998H13C13.827 20.4998 14.5 21.1728 14.5 21.9998V22.9998C14.5 23.8268 13.827 24.4998 13 24.4998ZM2 21.4998C1.86739 21.4998 1.74021 21.5525 1.64645 21.6463C1.55268 21.7401 1.5 21.8672 1.5 21.9998V22.9998C1.5 23.1325 1.55268 23.2596 1.64645 23.3534C1.74021 23.4472 1.86739 23.4998 2 23.4998H13C13.1326 23.4998 13.2598 23.4472 13.3536 23.3534C13.4473 23.2596 13.5 23.1325 13.5 22.9998V21.9998C13.5 21.8672 13.4473 21.7401 13.3536 21.6463C13.2598 21.5525 13.1326 21.4998 13 21.4998H2ZM11.193 13.1278C11.0748 13.1316 10.9571 13.1112 10.847 13.0679C10.737 13.0245 10.6369 12.9592 10.553 12.8758L7.043 9.36584C6.429 8.75184 7.104 7.68984 7.325 7.34184C7.74 6.68984 8.386 5.91184 9.146 5.15184C9.907 4.38984 10.686 3.74184 11.338 3.32684C11.688 3.10384 12.751 2.42884 13.365 3.04284L16.875 6.55284C17.49 7.16784 16.813 8.23184 16.591 8.58084C16.175 9.23384 15.527 10.0128 14.765 10.7738C14.005 11.5338 13.227 12.1798 12.576 12.5938C12.333 12.7498 11.738 13.1278 11.193 13.1278ZM12.659 3.74984C12.484 3.75684 11.387 4.32584 9.857 5.85484C8.327 7.38484 7.757 8.48284 7.793 8.73084L11.261 12.1688C11.437 12.1618 12.534 11.5928 14.065 10.0628C15.537 8.58984 16.119 7.51884 16.129 7.21884L12.659 3.74984Z" fill="#333333"/>
<path d="M9.503 15.4189C9.30688 15.4191 9.11265 15.3807 8.93144 15.3057C8.75022 15.2307 8.5856 15.1207 8.447 14.9819L4.937 11.4719C4.655 11.1909 4.5 10.8159 4.5 10.4169C4.5 10.0179 4.655 9.64291 4.938 9.36091L5.64 8.65891C5.9201 8.37929 6.29972 8.22224 6.6955 8.22224C7.09128 8.22224 7.4709 8.37929 7.751 8.65891L11.261 12.1689C11.5406 12.449 11.6977 12.8286 11.6977 13.2244C11.6977 13.6202 11.5406 13.9998 11.261 14.2799L10.559 14.9819C10.4203 15.1206 10.2557 15.2305 10.0745 15.3055C9.8933 15.3805 9.6991 15.419 9.503 15.4189ZM6.695 9.22191C6.56409 9.22229 6.43864 9.27441 6.346 9.36691L5.645 10.0679C5.59862 10.1134 5.56178 10.1677 5.53662 10.2277C5.51147 10.2876 5.49852 10.3519 5.49852 10.4169C5.49852 10.4819 5.51147 10.5462 5.53662 10.6062C5.56178 10.6661 5.59862 10.7204 5.645 10.7659L9.155 14.2759C9.2477 14.3678 9.37296 14.4194 9.5035 14.4194C9.63404 14.4194 9.7593 14.3678 9.852 14.2759L10.554 13.5739C10.6461 13.4813 10.6979 13.356 10.6979 13.2254C10.6979 13.0948 10.6461 12.9695 10.554 12.8769L7.044 9.36691C6.95136 9.27441 6.82591 9.22229 6.695 9.22191ZM17.225 7.69591C17.0289 7.69615 16.8346 7.65767 16.6534 7.58268C16.4722 7.50769 16.3076 7.39766 16.169 7.25891L12.659 3.74891C12.3794 3.46898 12.2224 3.08953 12.2224 2.69391C12.2224 2.29829 12.3794 1.91884 12.659 1.63891L13.361 0.93691C13.6411 0.657291 14.0207 0.500244 14.4165 0.500244C14.8123 0.500244 15.1919 0.657291 15.472 0.93691L18.982 4.44691C19.2616 4.72701 19.4187 5.10663 19.4187 5.50241C19.4187 5.89819 19.2616 6.27781 18.982 6.55791L18.28 7.25991C18.1415 7.3985 17.9771 7.50836 17.796 7.58318C17.615 7.658 17.4209 7.69631 17.225 7.69591ZM14.417 1.50091C14.2862 1.50092 14.1607 1.55269 14.068 1.64491L13.366 2.34691C13.2739 2.43932 13.2222 2.56445 13.2222 2.69491C13.2222 2.82537 13.2739 2.9505 13.366 3.04291L16.876 6.55291C16.9688 6.64457 17.094 6.69597 17.2245 6.69597C17.355 6.69597 17.4802 6.64457 17.573 6.55291L18.275 5.85191C18.3671 5.75933 18.4189 5.63403 18.4189 5.50341C18.4189 5.37279 18.3671 5.24749 18.275 5.15491L14.765 1.64491C14.7194 1.59914 14.6651 1.56285 14.6054 1.53814C14.5457 1.51343 14.4816 1.50077 14.417 1.50091ZM22.597 20.5029C21.994 20.5029 21.345 20.1579 20.655 19.4679C19.965 18.7779 15.908 14.3129 13.39 11.3439C13.3476 11.2938 13.3154 11.2358 13.2954 11.1733C13.2754 11.1108 13.2679 11.045 13.2733 10.9795C13.2788 10.9141 13.297 10.8504 13.3271 10.7921C13.3571 10.7337 13.3984 10.6818 13.4485 10.6394C13.4986 10.597 13.5566 10.5649 13.6191 10.5448C13.6816 10.5248 13.7474 10.5173 13.8129 10.5228C13.8783 10.5282 13.942 10.5464 14.0004 10.5765C14.0587 10.6066 14.1106 10.6478 14.153 10.6979C16.779 13.7939 20.766 18.1649 21.362 18.7609C22.488 19.8889 22.927 19.4499 23.189 19.1899C23.309 19.0699 23.474 18.9059 23.497 18.6709C23.531 18.3299 23.276 17.8779 22.761 17.3619C22.17 16.7699 17.806 12.7889 14.698 10.1509C14.648 10.1084 14.6068 10.0565 14.5768 9.99811C14.5469 9.93971 14.5287 9.87599 14.5233 9.81057C14.518 9.74515 14.5256 9.67932 14.5457 9.61684C14.5658 9.55435 14.598 9.49644 14.6405 9.44641C14.683 9.39638 14.7349 9.3552 14.7933 9.32523C14.8517 9.29526 14.9154 9.27709 14.9808 9.27175C15.0463 9.26641 15.1121 9.27401 15.1746 9.29411C15.2371 9.31421 15.295 9.34643 15.345 9.38891C18.326 11.9179 22.786 15.9699 23.47 16.6549C24.215 17.3999 24.56 18.1119 24.494 18.7699C24.435 19.3589 24.072 19.7219 23.898 19.8959C23.492 20.3009 23.058 20.5029 22.597 20.5029Z" fill="#333333"/>
</g>
<defs>
<clipPath id="clip0_2420_19484">
<rect width="24" height="24" fill="white" transform="translate(0.5 0.5)"/>
</clipPath>
</defs>
</svg>
