<svg width="25" height="25" viewBox="0 0 25 25" fill="none" xmlns="http://www.w3.org/2000/svg">
<g clip-path="url(#clip0_2856_24064)">
<path d="M23.163 21.2978H5.60254C5.29185 21.2978 5.04004 21.046 5.04004 20.7353V8.02002C5.04004 7.70933 5.29185 7.45752 5.60254 7.45752H23.163C23.4737 7.45752 23.7255 7.70933 23.7255 8.02002V20.7353C23.7255 21.0459 23.4737 21.2978 23.163 21.2978Z" fill="black"/>
<path d="M22.2591 17.6906V19.487C22.2591 19.5106 22.2545 19.534 22.2454 19.5558C22.2364 19.5777 22.2231 19.5975 22.2064 19.6142C22.1897 19.6309 22.1699 19.6442 22.1481 19.6532C22.1262 19.6622 22.1028 19.6669 22.0792 19.6669H18.8987C18.8509 19.6669 18.8052 19.6479 18.7714 19.6142C18.7377 19.5805 18.7188 19.5347 18.7188 19.487V17.6906C18.7188 17.6429 18.7377 17.5972 18.7714 17.5634C18.8052 17.5297 18.8509 17.5107 18.8987 17.5107H22.0792C22.1028 17.5107 22.1262 17.5154 22.1481 17.5244C22.1699 17.5335 22.1897 17.5467 22.2064 17.5634C22.2231 17.5801 22.2364 17.6 22.2454 17.6218C22.2545 17.6436 22.2591 17.667 22.2591 17.6906Z" fill="black"/>
<path d="M4.46651 22.4828C4.14982 22.4828 3.89304 22.2261 3.89304 21.9093V1.92809H1.84788C1.5312 1.92809 1.27441 1.67141 1.27441 1.35462C1.27441 1.03784 1.5312 0.78125 1.84788 0.78125H4.46651C4.7832 0.78125 5.03998 1.03794 5.03998 1.35472V21.9094C5.03998 22.2261 4.7832 22.4828 4.46651 22.4828Z" fill="white"/>
<path d="M4.46651 22.7171C4.0211 22.7171 3.65876 22.3547 3.65876 21.9093V2.16247H1.84788C1.40238 2.16247 1.04004 1.80013 1.04004 1.35462C1.04004 0.909219 1.40238 0.546875 1.84788 0.546875H4.46651C4.91201 0.546875 5.27435 0.909219 5.27435 1.35462V21.9093C5.27435 22.3547 4.91201 22.7171 4.46651 22.7171ZM1.84788 1.01562C1.66095 1.01562 1.50879 1.16769 1.50879 1.35462C1.50879 1.54156 1.66095 1.69372 1.84788 1.69372H3.89304C3.9552 1.69372 4.01481 1.71841 4.05877 1.76237C4.10272 1.80632 4.12741 1.86593 4.12741 1.92809V21.9093C4.12741 22.0963 4.27948 22.2483 4.46641 22.2483C4.65335 22.2483 4.80551 22.0963 4.80551 21.9093V1.35462C4.80551 1.16769 4.65335 1.01562 4.46641 1.01562H1.84788Z" fill="black"/>
<path d="M23.163 21.5322H5.60254C5.16313 21.5322 4.80566 21.1747 4.80566 20.7353V8.02002C4.80566 7.58061 5.16313 7.22314 5.60254 7.22314H23.1631C23.6025 7.22314 23.96 7.58061 23.96 8.02002V20.7353C23.9599 21.1746 23.6024 21.5322 23.163 21.5322ZM5.60254 7.69189C5.4216 7.69189 5.27441 7.83908 5.27441 8.02002V20.7353C5.27441 20.9163 5.4216 21.0635 5.60254 21.0635H23.1631C23.3441 21.0635 23.4913 20.9163 23.4913 20.7353V8.02002C23.4913 7.83908 23.3441 7.69189 23.1631 7.69189H5.60254Z" fill="black"/>
<path d="M22.0791 19.9014H18.8985C18.6699 19.9014 18.4841 19.7156 18.4841 19.487V17.6906C18.4841 17.4622 18.6699 17.2764 18.8985 17.2764H22.0791C22.3076 17.2764 22.4934 17.4622 22.4934 17.6906V19.487C22.4934 19.7156 22.3075 19.9014 22.0791 19.9014ZM18.9529 19.4326H22.0247V17.7451H18.9529V19.4326Z" fill="black"/>
<path d="M17.6363 22.5211H3.91226C3.83115 22.5211 3.75337 22.4889 3.69602 22.4315C3.63866 22.3742 3.60645 22.2964 3.60645 22.2153V21.6037C3.60645 21.5226 3.63866 21.4448 3.69602 21.3874C3.75337 21.3301 3.83115 21.2979 3.91226 21.2979H17.6363C17.7174 21.2979 17.7952 21.3301 17.8526 21.3874C17.9099 21.4448 17.9421 21.5226 17.9421 21.6037V22.2153C17.9421 22.2555 17.9342 22.2952 17.9189 22.3323C17.9035 22.3694 17.881 22.4031 17.8526 22.4315C17.8242 22.4599 17.7905 22.4825 17.7534 22.4978C17.7163 22.5132 17.6765 22.5211 17.6363 22.5211Z" fill="white"/>
<path d="M17.6362 22.7556H3.91211C3.61417 22.7556 3.37183 22.5132 3.37183 22.2153V21.6037C3.37183 21.3058 3.61417 21.0635 3.91211 21.0635H17.6362C17.9341 21.0635 18.1765 21.3058 18.1765 21.6037V22.2153C18.1765 22.5132 17.9341 22.7556 17.6362 22.7556ZM3.91211 21.5322C3.87264 21.5322 3.84058 21.5643 3.84058 21.6037V22.2153C3.84058 22.2548 3.87264 22.2868 3.91211 22.2868H17.6362C17.6756 22.2868 17.7077 22.2548 17.7077 22.2153V21.6037C17.7077 21.5643 17.6756 21.5322 17.6362 21.5322H3.91211Z" fill="black"/>
<path d="M4.46642 24.219C5.74189 24.219 6.77586 23.185 6.77586 21.9095C6.77586 20.6341 5.74189 19.6001 4.46642 19.6001C3.19095 19.6001 2.15698 20.6341 2.15698 21.9095C2.15698 23.185 3.19095 24.219 4.46642 24.219Z" fill="white"/>
<path d="M4.46646 22.9955C3.86759 22.9955 3.38037 22.5083 3.38037 21.9094C3.38037 21.3106 3.86759 20.8232 4.46646 20.8232C5.06534 20.8232 5.55265 21.3105 5.55265 21.9094C5.55265 22.5084 5.06534 22.9955 4.46646 22.9955Z" fill="#FCFCFC"/>
<path d="M4.46642 24.453C3.06373 24.453 1.92261 23.3118 1.92261 21.9091C1.92261 20.5065 3.06373 19.3652 4.46642 19.3652C5.86911 19.3652 7.01033 20.5065 7.01033 21.9091C7.01033 23.3118 5.86901 24.453 4.46642 24.453ZM4.46642 19.834C3.3222 19.834 2.39136 20.7649 2.39136 21.9091C2.39136 23.0534 3.32211 23.9842 4.46642 23.9842C5.61073 23.9842 6.54158 23.0534 6.54158 21.9091C6.54158 20.7649 5.61064 19.834 4.46642 19.834Z" fill="black"/>
<path d="M4.46646 23.2299C3.73831 23.2299 3.146 22.6376 3.146 21.9094C3.146 21.1813 3.73831 20.5889 4.46646 20.5889C5.19462 20.5889 5.78703 21.1813 5.78703 21.9094C5.78703 22.6376 5.19453 23.2299 4.46646 23.2299ZM4.46646 21.0576C3.99678 21.0576 3.61475 21.4397 3.61475 21.9094C3.61475 22.3791 3.99678 22.7611 4.46646 22.7611C4.93615 22.7611 5.31828 22.3791 5.31828 21.9094C5.31828 21.4397 4.93606 21.0576 4.46646 21.0576Z" fill="black"/>
</g>
<defs>
<clipPath id="clip0_2856_24064">
<rect width="24" height="24" fill="white" transform="translate(0.5 0.5)"/>
</clipPath>
</defs>
</svg>
