<svg width="18" height="19" viewBox="0 0 18 19" fill="none" xmlns="http://www.w3.org/2000/svg">
<path d="M0 15.5H7.5V17H0V15.5ZM0 11H7.5V12.5H0V11ZM16.5 8H1.5C1.10218 8 0.720644 7.84196 0.43934 7.56066C0.158035 7.27936 0 6.89782 0 6.5V2C0 1.60218 0.158035 1.22064 0.43934 0.93934C0.720644 0.658035 1.10218 0.5 1.5 0.5H16.5C16.8978 0.5 17.2794 0.658035 17.5607 0.93934C17.842 1.22064 18 1.60218 18 2V6.5C18 6.89782 17.842 7.27936 17.5607 7.56066C17.2794 7.84196 16.8978 8 16.5 8ZM1.5 2V6.5H16.5V2H1.5ZM16.5 18.5H12C11.6022 18.5 11.2206 18.342 10.9393 18.0607C10.658 17.7794 10.5 17.3978 10.5 17V12.5C10.5 12.1022 10.658 11.7206 10.9393 11.4393C11.2206 11.158 11.6022 11 12 11H16.5C16.8978 11 17.2794 11.158 17.5607 11.4393C17.842 11.7206 18 12.1022 18 12.5V17C18 17.3978 17.842 17.7794 17.5607 18.0607C17.2794 18.342 16.8978 18.5 16.5 18.5ZM12 12.5V17H16.5V12.5H12Z" fill="white"/>
</svg>
