<svg width="24" height="24" viewBox="0 0 24 24" fill="none" xmlns="http://www.w3.org/2000/svg">
<path d="M2.80002 5.2607H3.24962V15.3367C3.24962 15.4428 3.29177 15.5445 3.36678 15.6195C3.4418 15.6946 3.54354 15.7367 3.64962 15.7367H10.6284V21.1999C10.6284 21.306 10.6706 21.4077 10.7456 21.4827C10.8206 21.5578 10.9223 21.5999 11.0284 21.5999H21.2C21.3061 21.5999 21.4079 21.5578 21.4829 21.4827C21.5579 21.4077 21.6 21.306 21.6 21.1999V13.3279C21.6 13.2218 21.5579 13.1201 21.4829 13.0451C21.4079 12.97 21.3061 12.9279 21.2 12.9279H18.5432V11.5727C18.5432 11.4666 18.5011 11.3649 18.4261 11.2899C18.3511 11.2148 18.2493 11.1727 18.1432 11.1727H17.6712V5.2607H18.1224C18.2285 5.2607 18.3303 5.21856 18.4053 5.14355C18.4803 5.06853 18.5224 4.96679 18.5224 4.8607V2.7999C18.5224 2.69382 18.4803 2.59207 18.4053 2.51706C18.3303 2.44205 18.2285 2.3999 18.1224 2.3999H2.80002C2.69394 2.3999 2.5922 2.44205 2.51718 2.51706C2.44217 2.59207 2.40002 2.69382 2.40002 2.7999V4.8607C2.40002 4.96679 2.44217 5.06853 2.51718 5.14355C2.5922 5.21856 2.69394 5.2607 2.80002 5.2607ZM11.4284 20.7999V15.7931H12.7656V16.7419C12.7656 16.848 12.8078 16.9497 12.8828 17.0247C12.9578 17.0998 13.0595 17.1419 13.1656 17.1419C13.2717 17.1419 13.3735 17.0998 13.4485 17.0247C13.5235 16.9497 13.5656 16.848 13.5656 16.7419V15.7931H18.6632V16.7419C18.6632 16.848 18.7054 16.9497 18.7804 17.0247C18.8554 17.0998 18.9571 17.1419 19.0632 17.1419C19.1693 17.1419 19.2711 17.0998 19.3461 17.0247C19.4211 16.9497 19.4632 16.848 19.4632 16.7419V15.7931H20.8V20.7999H11.4284ZM20.8 14.9931H11.4284V13.7279H20.8V14.9931ZM17.7432 12.9279H14.4856V11.9727H17.2656L17.2716 11.9739C17.2736 11.9739 17.2756 11.9727 17.2772 11.9727H17.7432V12.9279ZM16.8712 11.1727H14.0856C13.9795 11.1727 13.8778 11.2148 13.8028 11.2899C13.7278 11.3649 13.6856 11.4666 13.6856 11.5727V12.9279H11.028C10.9219 12.9279 10.8202 12.97 10.7452 13.0451C10.6702 13.1201 10.628 13.2218 10.628 13.3279V14.9367H4.04962V5.2607H16.8716L16.8712 11.1727ZM3.20002 3.1999H17.7224V4.4607H17.2752L17.2712 4.4599H3.65002L3.64602 4.4607H3.20002V3.1999Z" fill="black"/>
<path d="M5.54124 13.718H8.96164C9.06772 13.718 9.16946 13.6758 9.24448 13.6008C9.31949 13.5258 9.36164 13.4241 9.36164 13.318C9.36164 13.2119 9.31949 13.1101 9.24448 13.0351C9.16946 12.9601 9.06772 12.918 8.96164 12.918H5.54124C5.43515 12.918 5.33341 12.9601 5.25839 13.0351C5.18338 13.1101 5.14124 13.2119 5.14124 13.318C5.14124 13.4241 5.18338 13.5258 5.25839 13.6008C5.33341 13.6758 5.43515 13.718 5.54124 13.718ZM8.21084 8.25596H12.7112C12.8173 8.25596 12.9191 8.21382 12.9941 8.13881C13.0691 8.06379 13.1112 7.96205 13.1112 7.85596V6.39316C13.1112 6.28708 13.0691 6.18534 12.9941 6.11032C12.9191 6.03531 12.8173 5.99316 12.7112 5.99316H8.21124C8.10515 5.99316 8.00341 6.03531 7.92839 6.11032C7.85338 6.18534 7.81124 6.28708 7.81124 6.39316V7.85636C7.81124 7.96245 7.85338 8.06419 7.92839 8.13921C8.00341 8.21422 8.10515 8.25636 8.21124 8.25636L8.21084 8.25596ZM8.61084 6.79316H12.3112V7.45636H8.61124L8.61084 6.79316Z" fill="black"/>
</svg>
