<svg width="24" height="24" viewBox="0 0 24 24" fill="none" xmlns="http://www.w3.org/2000/svg">
<path d="M16.875 11.0625C16.7258 11.0625 16.5827 11.0032 16.4773 10.8977C16.3718 10.7923 16.3125 10.6492 16.3125 10.5C16.3125 10.3508 16.3718 10.2077 16.4773 10.1023C16.5827 9.99676 16.7258 9.9375 16.875 9.9375C17.1851 9.9375 17.4375 9.68513 17.4375 9.375V3C17.4375 2.68988 17.1851 2.4375 16.875 2.4375H7.125C6.81488 2.4375 6.5625 2.68988 6.5625 3V9.375C6.5625 9.68513 6.81488 9.9375 7.125 9.9375H9.26625C9.41543 9.9375 9.55851 9.99676 9.664 10.1023C9.76949 10.2077 9.82875 10.3508 9.82875 10.5C9.82875 10.6492 9.76949 10.7923 9.664 10.8977C9.55851 11.0032 9.41543 11.0625 9.26625 11.0625H7.125C6.6776 11.062 6.24867 10.8841 5.93231 10.5677C5.61595 10.2513 5.438 9.8224 5.4375 9.375V3C5.4375 2.06963 6.19463 1.3125 7.125 1.3125H16.875C17.8054 1.3125 18.5625 2.06963 18.5625 3V9.375C18.5625 10.3054 17.8054 11.0625 16.875 11.0625Z" fill="black"/>
<path d="M11.625 4.3125H8.625C8.47582 4.3125 8.33274 4.25324 8.22725 4.14775C8.12176 4.04226 8.0625 3.89918 8.0625 3.75C8.0625 3.60082 8.12176 3.45774 8.22725 3.35225C8.33274 3.24676 8.47582 3.1875 8.625 3.1875H11.625C11.7742 3.1875 11.9173 3.24676 12.0227 3.35225C12.1282 3.45774 12.1875 3.60082 12.1875 3.75C12.1875 3.89918 12.1282 4.04226 12.0227 4.14775C11.9173 4.25324 11.7742 4.3125 11.625 4.3125ZM15.375 6.1875H8.625C8.47582 6.1875 8.33274 6.12824 8.22725 6.02275C8.12176 5.91726 8.0625 5.77418 8.0625 5.625C8.0625 5.47582 8.12176 5.33274 8.22725 5.22725C8.33274 5.12176 8.47582 5.0625 8.625 5.0625H15.375C15.5242 5.0625 15.6673 5.12176 15.7727 5.22725C15.8782 5.33274 15.9375 5.47582 15.9375 5.625C15.9375 5.77418 15.8782 5.91726 15.7727 6.02275C15.6673 6.12824 15.5242 6.1875 15.375 6.1875ZM15.375 8.0625H8.625C8.47582 8.0625 8.33274 8.00324 8.22725 7.89775C8.12176 7.79226 8.0625 7.64918 8.0625 7.5C8.0625 7.35082 8.12176 7.20774 8.22725 7.10225C8.33274 6.99676 8.47582 6.9375 8.625 6.9375H15.375C15.5242 6.9375 15.6673 6.99676 15.7727 7.10225C15.8782 7.20774 15.9375 7.35082 15.9375 7.5C15.9375 7.64918 15.8782 7.79226 15.7727 7.89775C15.6673 8.00324 15.5242 8.0625 15.375 8.0625ZM17.625 13.6875H15C14.8508 13.6875 14.7077 13.6282 14.6023 13.5227C14.4968 13.4173 14.4375 13.2742 14.4375 13.125C14.4375 12.9758 14.4968 12.8327 14.6023 12.7273C14.7077 12.6218 14.8508 12.5625 15 12.5625H17.625C17.7742 12.5625 17.9173 12.6218 18.0227 12.7273C18.1282 12.8327 18.1875 12.9758 18.1875 13.125C18.1875 13.2742 18.1282 13.4173 18.0227 13.5227C17.9173 13.6282 17.7742 13.6875 17.625 13.6875ZM9 13.6875H6.375C6.22582 13.6875 6.08274 13.6282 5.97725 13.5227C5.87176 13.4173 5.8125 13.2742 5.8125 13.125C5.8125 12.9758 5.87176 12.8327 5.97725 12.7273C6.08274 12.6218 6.22582 12.5625 6.375 12.5625H9C9.14918 12.5625 9.29226 12.6218 9.39775 12.7273C9.50324 12.8327 9.5625 12.9758 9.5625 13.125C9.5625 13.2742 9.50324 13.4173 9.39775 13.5227C9.29226 13.6282 9.14918 13.6875 9 13.6875Z" fill="black"/>
<path d="M6.75 18.5625H3C2.5526 18.562 2.12367 18.3841 1.80731 18.0677C1.49095 17.7513 1.313 17.3224 1.3125 16.875V10.032C1.313 9.60927 1.48115 9.20399 1.78007 8.90507C2.07899 8.60616 2.48426 8.438 2.907 8.43751C3.732 8.43751 4.4145 9.05663 4.49437 9.87751L5.01 15.1875H5.25C6.38737 15.1875 7.3125 16.113 7.3125 17.25V18C7.3125 18.1492 7.25324 18.2923 7.14775 18.3978C7.04226 18.5032 6.89918 18.5625 6.75 18.5625ZM2.907 9.56251C2.64825 9.56251 2.4375 9.77326 2.4375 10.032V16.875C2.4375 17.1851 2.68988 17.4375 3 17.4375H6.1875V17.25C6.1875 16.7329 5.76675 16.3125 5.25 16.3125H4.5C4.36029 16.3125 4.22557 16.2605 4.12208 16.1667C4.01858 16.0728 3.95372 15.9438 3.94012 15.8048L3.37462 9.98701C3.36385 9.87061 3.30986 9.76246 3.2233 9.68389C3.13675 9.60531 3.0239 9.56201 2.907 9.56251ZM21 18.5625H17.25C17.1008 18.5625 16.9577 18.5032 16.8523 18.3978C16.7468 18.2923 16.6875 18.1492 16.6875 18V17.25C16.6875 16.113 17.613 15.1875 18.75 15.1875H18.9896L19.506 9.87751C19.5431 9.48275 19.7266 9.11614 20.0202 8.8497C20.3138 8.58325 20.6965 8.43623 21.093 8.43751C21.5157 8.438 21.921 8.60616 22.2199 8.90507C22.5189 9.20399 22.687 9.60927 22.6875 10.032V16.875C22.6875 17.8054 21.9304 18.5625 21 18.5625ZM17.8125 17.4375H21C21.3101 17.4375 21.5625 17.1851 21.5625 16.875V10.032C21.5607 9.91258 21.5134 9.79832 21.4304 9.71247C21.3473 9.62662 21.2347 9.57562 21.1154 9.56984C20.9961 9.56406 20.8791 9.60393 20.7881 9.68136C20.6972 9.75878 20.6391 9.86794 20.6257 9.98663L20.0599 15.8048C20.0463 15.9438 19.9814 16.0728 19.8779 16.1667C19.7744 16.2605 19.6397 16.3125 19.5 16.3125H18.75C18.5014 16.3127 18.2631 16.4115 18.0873 16.5873C17.9115 16.7631 17.8127 17.0014 17.8125 17.25V17.4375ZM22.125 22.6875H1.875C1.72582 22.6875 1.58274 22.6282 1.47725 22.5228C1.37176 22.4173 1.3125 22.2742 1.3125 22.125V21.375C1.3125 20.4446 2.06963 19.6875 3 19.6875H5.25C6.18038 19.6875 6.9375 20.4446 6.9375 21.375V21.5625H17.0625V21.375C17.0625 20.4446 17.8196 19.6875 18.75 19.6875H21C21.9304 19.6875 22.6875 20.4446 22.6875 21.375V22.125C22.6875 22.2742 22.6282 22.4173 22.5227 22.5228C22.4173 22.6282 22.2742 22.6875 22.125 22.6875ZM18.1875 21.5625H21.5625V21.375C21.5625 21.0649 21.3101 20.8125 21 20.8125H18.75C18.4399 20.8125 18.1875 21.0649 18.1875 21.375V21.5625ZM2.4375 21.5625H5.8125V21.375C5.8125 21.0649 5.56012 20.8125 5.25 20.8125H3C2.68988 20.8125 2.4375 21.0649 2.4375 21.375V21.5625Z" fill="black"/>
<path d="M12 22.6875C11.8508 22.6875 11.7077 22.6282 11.6023 22.5227C11.4968 22.4173 11.4375 22.2742 11.4375 22.125V18C11.4375 17.8508 11.4968 17.7077 11.6023 17.6023C11.7077 17.4968 11.8508 17.4375 12 17.4375C12.1492 17.4375 12.2923 17.4968 12.3977 17.6023C12.5032 17.7077 12.5625 17.8508 12.5625 18V22.125C12.5625 22.2742 12.5032 22.4173 12.3977 22.5227C12.2923 22.6282 12.1492 22.6875 12 22.6875Z" fill="black"/>
<path d="M14.25 22.6875C14.1008 22.6875 13.9577 22.6282 13.8523 22.5227C13.7468 22.4173 13.6875 22.2742 13.6875 22.125V21.375C13.6875 21.0649 13.4351 20.8125 13.125 20.8125H10.875C10.5649 20.8125 10.3125 21.0649 10.3125 21.375V22.125C10.3125 22.2742 10.2532 22.4173 10.1477 22.5227C10.0423 22.6282 9.89918 22.6875 9.75 22.6875C9.60082 22.6875 9.45774 22.6282 9.35225 22.5227C9.24676 22.4173 9.1875 22.2742 9.1875 22.125V21.375C9.1875 20.4446 9.94462 19.6875 10.875 19.6875H13.125C14.0554 19.6875 14.8125 20.4446 14.8125 21.375V22.125C14.8125 22.2742 14.7532 22.4173 14.6477 22.5227C14.5423 22.6282 14.3992 22.6875 14.25 22.6875ZM4.125 22.6875C3.97582 22.6875 3.83274 22.6282 3.72725 22.5227C3.62176 22.4173 3.5625 22.2742 3.5625 22.125V18C3.5625 17.8508 3.62176 17.7077 3.72725 17.6023C3.83274 17.4968 3.97582 17.4375 4.125 17.4375C4.27418 17.4375 4.41726 17.4968 4.52275 17.6023C4.62824 17.7077 4.6875 17.8508 4.6875 18V22.125C4.6875 22.2742 4.62824 22.4173 4.52275 22.5227C4.41726 22.6282 4.27418 22.6875 4.125 22.6875ZM19.875 22.6875C19.7258 22.6875 19.5827 22.6282 19.4773 22.5227C19.3718 22.4173 19.3125 22.2742 19.3125 22.125V18C19.3125 17.8508 19.3718 17.7077 19.4773 17.6023C19.5827 17.4968 19.7258 17.4375 19.875 17.4375C20.0242 17.4375 20.1673 17.4968 20.2727 17.6023C20.3782 17.7077 20.4375 17.8508 20.4375 18V22.125C20.4375 22.2742 20.3782 22.4173 20.2727 22.5227C20.1673 22.6282 20.0242 22.6875 19.875 22.6875ZM14.3265 18.5625H9.6735C9.2265 18.5625 8.811 18.3754 8.5035 18.0356C8.34208 17.855 8.22024 17.6425 8.14584 17.412C8.07144 17.1814 8.04612 16.9378 8.0715 16.6969L8.71762 10.3219C8.80463 9.46125 9.49312 8.8125 10.3196 8.8125H13.6804C14.5069 8.8125 15.1954 9.46125 15.2824 10.3215L15.9285 16.6965C15.9538 16.9375 15.9284 17.1811 15.854 17.4116C15.7795 17.6422 15.6576 17.8546 15.4961 18.0353C15.1886 18.3754 14.7735 18.5625 14.3265 18.5625ZM10.3196 9.9375C10.0729 9.9375 9.8655 10.1512 9.83663 10.4351L9.19088 16.8101C9.17288 16.986 9.22687 17.1578 9.33862 17.2811C9.39112 17.3396 9.50475 17.4375 9.6735 17.4375H14.3265C14.4952 17.4375 14.6089 17.34 14.6617 17.2811C14.7731 17.1574 14.8268 16.986 14.8091 16.8101L14.1634 10.4351C14.1341 10.1512 13.9271 9.9375 13.6804 9.9375H10.32H10.3196Z" fill="black"/>
</svg>
