<svg width="25" height="25" viewBox="0 0 25 25" fill="none" xmlns="http://www.w3.org/2000/svg">
<g clip-path="url(#clip0_2420_19505)">
<path fill-rule="evenodd" clip-rule="evenodd" d="M14.9216 22.3076C14.9216 21.4781 14.2491 20.8056 13.4196 20.8056H11.5804C11.1821 20.8056 10.8 20.9639 10.5184 21.2456C10.2367 21.5272 10.0784 21.9093 10.0784 22.3076C10.0784 23.1371 10.7509 23.8096 11.5804 23.8096H13.4196C14.2491 23.8096 14.9216 23.1371 14.9216 22.3076ZM3.65755 18.4347C3.90842 18.4538 4.21194 18.4649 4.51681 18.447C4.70791 19.4159 5.22944 20.2885 5.99235 20.9157C6.75526 21.5428 7.71223 21.8857 8.69984 21.8857H9.27294C9.22203 22.1647 9.2219 22.4505 9.27256 22.7295H8.69984C7.48613 22.7295 6.31209 22.2973 5.38811 21.5103C4.46414 20.7232 3.85064 19.6329 3.65755 18.4347ZM3.22836 17.5369C2.46555 17.4083 1.77297 17.0136 1.27351 16.4228C0.77405 15.8321 0.500004 15.0836 0.5 14.31L0.5 12.3158C0.5 11.4479 0.844767 10.6155 1.45846 10.0018C2.07215 9.38814 2.90449 9.04336 3.77239 9.04335H3.99022C4.33841 4.64854 8.01538 1.19043 12.5 1.19043C16.9846 1.19043 20.6616 4.64854 21.0098 9.04335H21.2276C22.0955 9.04336 22.9279 9.38814 23.5415 10.0018C24.1552 10.6155 24.5 11.4479 24.5 12.3158V14.31C24.5 15.1779 24.1552 16.0102 23.5415 16.6239C22.9279 17.2376 22.0955 17.5824 21.2276 17.5824H20.2619C19.8614 17.5824 19.5368 17.2577 19.5368 16.8573V9.72721C19.5368 5.8409 16.3863 2.69043 12.5 2.69043C8.61369 2.69043 5.46322 5.8409 5.46322 9.72721V16.8573C5.46322 17.14 5.30136 17.385 5.0652 17.5046C4.41514 17.7302 3.407 17.567 3.22836 17.5369Z" fill="#333333"/>
</g>
<defs>
<clipPath id="clip0_2420_19505">
<rect width="24" height="24" fill="white" transform="translate(0.5 0.5)"/>
</clipPath>
</defs>
</svg>
