<svg width="20" height="20" viewBox="0 0 20 20" fill="none" xmlns="http://www.w3.org/2000/svg">
<path d="M17.5 12.9549C17.0642 12.9549 16.6285 13.081 16.25 13.3333C15.4931 13.838 14.5069 13.838 13.75 13.3333C12.9931 12.8287 12.0069 12.8287 11.25 13.3333C10.4931 13.838 9.50694 13.838 8.75 13.3333C7.99306 12.8287 7.00694 12.8287 6.25 13.3333C5.49306 13.838 4.50694 13.838 3.75 13.3333C3.37153 13.081 2.93577 12.9549 2.5 12.9549M7.5 5V6.66667M10 5V6.66667M12.5 5V6.66667M7.5 2.5H7.50833M10 2.5H10.0083M12.5 2.5H12.5083M17.5 17.5V11.6667C17.5 10.7462 16.7538 10 15.8333 10H4.16667C3.24619 10 2.5 10.7462 2.5 11.6667V17.5H17.5ZM15 10V8.33333C15 7.41286 14.2538 6.66667 13.3333 6.66667H6.66667C5.74619 6.66667 5 7.41286 5 8.33333V10H15Z" stroke="white" stroke-linecap="round" stroke-linejoin="round"/>
</svg>
