<svg width="24" height="24" viewBox="0 0 24 24" fill="none" xmlns="http://www.w3.org/2000/svg">
<g clip-path="url(#clip0_3601_2725)">
<path d="M19.8791 12.0259H18.6091V7.41253H18.635C19.3067 7.41253 19.8531 6.86607 19.8531 6.19438V2.87689C19.8531 1.29056 18.5625 0 16.9763 0H7.02377C5.43744 0 4.14688 1.29056 4.14688 2.87689V6.19438C4.14688 6.86607 4.69333 7.41253 5.36502 7.41253H5.39094V12.0259H4.12096C3.67792 12.0259 3.3175 12.3863 3.3175 12.8294V13.6587C3.3175 14.1018 3.67792 14.4622 4.12096 14.4622H4.52632L3.77283 23.1269C3.76331 23.2379 3.7769 23.3496 3.81274 23.455C3.84858 23.5605 3.90589 23.6573 3.98106 23.7395C4.05641 23.8215 4.14794 23.8869 4.24987 23.9318C4.3518 23.9766 4.46192 23.9998 4.57328 23.9999H5.03078C5.40602 23.9999 5.73622 23.7338 5.81589 23.3672L6.85027 18.6091H17.1496L18.184 23.3672C18.2638 23.7339 18.5939 24 18.9691 24H19.4266C19.6512 24 19.8671 23.905 20.0189 23.7395C20.0941 23.6574 20.1514 23.5605 20.1872 23.4551C20.2231 23.3496 20.2367 23.2379 20.2271 23.127L19.4737 14.4622H19.8791C20.3221 14.4622 20.6825 14.1018 20.6825 13.6587V12.8294C20.6825 12.3863 20.3221 12.0259 19.8791 12.0259ZM17.8315 12.0259H16.9503V7.41253H17.8315V12.0259ZM7.82722 12.0259V7.41253H16.1728V12.0259H7.82722ZM4.92442 6.19438V2.87689C4.92442 1.71929 5.86617 0.777538 7.02377 0.777538H16.9763C18.1338 0.777538 19.0756 1.71929 19.0756 2.87689V6.19438C19.0756 6.43734 18.878 6.63499 18.635 6.63499H5.36502C5.12207 6.63499 4.92442 6.43734 4.92442 6.19438ZM6.16848 7.41253H7.04969V12.0259H6.16848V7.41253ZM5.05608 23.2021C5.0548 23.2079 5.0516 23.213 5.047 23.2167C5.0424 23.2204 5.03669 23.2224 5.03078 23.2225H4.57328C4.57012 23.2225 4.56188 23.2225 4.5542 23.2141C4.54653 23.2057 4.54721 23.1974 4.54747 23.1943L5.30676 14.4622H6.95607L5.05608 23.2021ZM16.2482 14.4622L16.62 16.1728H7.37988L7.75175 14.4622H16.2482ZM7.01931 17.8315L7.2109 16.9503H16.7891L16.9807 17.8315H7.01931ZM19.4526 23.1943C19.4528 23.1974 19.4535 23.2056 19.4458 23.214C19.4381 23.2224 19.4298 23.2225 19.4267 23.2225H18.9692C18.9633 23.2225 18.9575 23.2205 18.9529 23.2168C18.9483 23.213 18.9451 23.2078 18.9439 23.202L17.0439 14.4622H18.6933L19.4526 23.1943ZM19.905 13.6587C19.905 13.6656 19.9022 13.6722 19.8974 13.6771C19.8925 13.6819 19.8859 13.6847 19.8791 13.6847H4.12096C4.11409 13.6847 4.10749 13.6819 4.10263 13.6771C4.09777 13.6722 4.09504 13.6656 4.09504 13.6587V12.8294C4.09504 12.8225 4.09777 12.8159 4.10263 12.811C4.10749 12.8062 4.11409 12.8035 4.12096 12.8035H19.8791C19.8859 12.8035 19.8925 12.8062 19.8974 12.811C19.9022 12.8159 19.905 12.8225 19.905 12.8294V13.6587Z" fill="black"/>
</g>
<defs>
<clipPath id="clip0_3601_2725">
<rect width="24" height="24" fill="white"/>
</clipPath>
</defs>
</svg>
