<svg width="24" height="21" viewBox="0 0 24 21" fill="none" xmlns="http://www.w3.org/2000/svg">
<path d="M6.09998 8.81252C6.09998 8.51252 6.06248 8.28752 6.06248 8.06252H0.662476C0.662476 8.36252 0.699976 8.58752 0.699976 8.81252H6.09998ZM22.8625 16.2C22.6375 15.9 22.45 15.6 22.1875 15.3375C21.55 14.7375 20.8 14.4375 19.9375 14.3625C19.6375 14.325 19.375 14.25 19.225 13.9125C18.8125 12.7125 18.025 11.85 16.9 11.2875C16.7875 11.2125 16.6375 11.1375 16.5625 11.025C16.4875 10.95 16.4875 10.7625 16.525 10.6875C16.5625 10.6125 16.75 10.5375 16.8625 10.5375C17.0125 10.575 17.125 10.6875 17.2375 10.8C17.5 11.025 17.6875 11.325 17.9875 11.5125C18.55 11.8875 18.9625 11.7 19.15 11.0625C19.3 10.5 19.3 9.97502 19.225 9.41252C19.1125 8.77502 18.55 8.47502 17.9875 8.81252C17.7625 8.96252 17.575 9.18752 17.35 9.37502C17.2375 9.48752 17.125 9.63752 17.0125 9.75002C16.7125 9.97502 16.4125 9.93752 16.1875 9.63752C16.075 9.48752 16 9.30002 15.925 9.11252C15.7375 8.77502 15.625 8.77502 15.4 9.03752C15.3625 9.07502 15.3625 9.11252 15.3625 9.15002L15.2875 9.07502V8.88752C15.2875 8.40002 15.0625 8.13752 14.6125 8.06252C14.425 8.02502 14.2375 8.02502 14.05 8.02502C13.0375 8.02502 12.175 7.68752 11.4625 6.97502C11.2 6.75002 11.0125 6.48752 10.75 6.22502C10.6375 6.11252 10.675 6.03752 10.75 5.92502C10.8625 5.77502 10.975 5.62502 11.0125 5.47502C11.125 4.98752 10.6375 4.12502 10.1875 3.97502C9.84998 3.86252 9.51248 3.86252 9.17498 3.93752C8.27498 4.16252 7.74998 4.80002 7.44998 5.62502C6.77498 7.35002 6.62498 9.15002 6.88748 10.9875C7.03748 12.075 7.52498 12.6375 8.53748 12.825C9.58748 13.0125 10.6375 13.1625 11.6875 13.3125C12.175 13.3875 12.475 13.575 12.625 14.025C12.9625 14.8875 13.3 15.7875 13.675 16.65C13.75 16.8375 13.8625 17.025 13.975 17.2125C14.3125 17.775 14.8 17.925 15.4 17.6625C16 17.4375 16.3 16.95 16.15 16.35C16.0375 15.9 15.85 15.45 15.7 15C15.4375 14.325 15.1375 13.6875 14.95 13.0125C14.575 11.7 13.9 11.0625 12.55 10.9125C12.0625 10.8375 11.5375 10.8 11.05 10.725C10.525 10.65 10.375 10.425 10.4125 9.90002C10.45 9.52502 10.525 9.15002 10.5625 8.77502C10.6 8.51252 10.7125 8.47502 10.9375 8.58752C11.7625 9.11252 12.625 9.45002 13.6 9.60002C14.05 9.67502 14.5375 9.75002 14.9875 9.60002L15.1 9.82502C15.2875 10.275 15.55 10.725 15.7 11.175C16.2625 12.7125 16.7875 14.2875 17.3125 15.825C17.425 16.125 17.5375 16.1625 17.8 15.975C17.95 15.8625 18.1 15.7875 18.25 15.675C19.6 14.925 20.875 15 22.1125 15.9375L23.0125 16.725C23.0875 16.6125 23.0125 16.3875 22.8625 16.2Z" fill="#393737"/>
<path d="M15.7375 18.1877H10.5625C10.15 18.1877 9.96251 18.0377 9.85001 17.6627C9.73751 17.3252 9.66251 17.0252 9.55001 16.6877C9.36251 16.0502 9.28751 15.3752 9.55001 14.7377C9.58751 14.6627 9.58751 14.5502 9.62501 14.4752C9.73751 13.8377 9.47501 13.5002 8.83751 13.4252C8.65001 13.4252 8.50001 13.3877 8.31251 13.3877H4.48751C3.47501 13.3877 2.46251 13.4252 1.48751 13.4627C0.625007 13.5002 0.362507 13.8377 0.662507 14.6252C0.887507 15.2627 0.850007 15.8252 0.662507 16.4627C0.437507 17.2877 0.212507 18.1127 0.0250066 18.9377C-0.0499934 19.2377 0.0625067 19.3502 0.325007 19.3877C0.587507 19.4252 0.812507 19.4252 1.07501 19.4252C1.41251 19.4252 1.60001 19.2752 1.67501 18.9377C1.71251 18.7502 1.71251 18.5252 1.75001 18.3002C1.97501 16.6127 3.25001 15.4127 4.97501 15.2627C6.58751 15.1502 8.01251 16.2002 8.46251 17.8502C8.57501 18.2252 8.57501 18.6002 8.65001 18.9752C8.68751 19.2377 8.83751 19.3502 9.10001 19.3877H16C16.1875 19.3877 16.3375 19.3502 16.4125 19.2002C16.6 18.7127 16.3 18.2252 15.7375 18.1877ZM19.8625 16.3502C18.5125 16.3502 17.4625 17.3252 17.5 18.6752C17.5 19.9877 18.5125 21.0002 19.825 21.0002C21.1375 21.0002 22.15 19.9877 22.15 18.6752C22.15 17.3627 21.175 16.3877 19.8625 16.3502Z" fill="#393737"/>
<path d="M5.16248 16.3876C3.84998 16.3501 2.79998 17.3626 2.79998 18.6376C2.76248 19.9501 3.77498 21.0001 5.12498 21.0001C6.43748 21.0376 7.44998 20.0251 7.48748 18.7501C7.48748 17.4001 6.51248 16.3876 5.16248 16.3876ZM3.02498 10.6501C2.98748 10.2376 2.98748 9.8626 2.94998 9.4126H0.662476V12.9001H6.02498V9.4126H3.73748C3.69998 9.8626 3.69998 10.2751 3.66248 10.6501H3.02498ZM11.125 3.7501C11.95 3.9376 12.85 3.4501 13.1875 2.6251C13.3 2.3251 13.3375 2.0251 13.4125 1.6876C13.7125 1.7626 14.05 1.8751 14.3875 1.9501C14.6125 1.9876 14.725 1.9501 14.7625 1.7626C14.8 1.6126 14.725 1.5001 14.5 1.4626C14.125 1.3501 13.75 1.2376 13.3375 1.1251C13.225 1.0876 13.1125 1.0126 13.075 0.937598C12.625 0.187598 11.7625 -0.149902 10.9375 0.0750984C10.1125 0.300098 9.51248 1.0501 9.51248 1.9126C9.54998 2.8126 10.15 3.5626 11.125 3.7501Z" fill="#393737"/>
</svg>
