<svg width="25" height="25" viewBox="0 0 25 25" fill="none" xmlns="http://www.w3.org/2000/svg">
<path d="M23.7132 14.7696L22.0514 10.7628C21.9374 10.4863 21.7437 10.2501 21.495 10.084C21.2464 9.91788 20.9539 9.82951 20.6549 9.83008H17.5191C17.403 9.83008 17.2907 9.84598 17.1828 9.87313V7.89658C17.1828 7.75734 17.1275 7.62381 17.0291 7.52535C16.9306 7.42689 16.7971 7.37158 16.6578 7.37158H14.7995C14.811 7.51783 14.8185 7.66513 14.8185 7.81438C14.8185 8.01958 14.8067 8.22208 14.7851 8.42158H16.1327V19.0612H8.55228C8.17608 18.2575 7.36188 17.6982 6.41748 17.6982C5.47308 17.6982 4.65873 18.2575 4.28253 19.0612H2.29683V8.42158H3.64428C3.62221 8.21993 3.61105 8.01724 3.61083 7.81438C3.61083 7.66528 3.61848 7.51783 3.62988 7.37158H1.77183C1.63259 7.37158 1.49905 7.42689 1.4006 7.52535C1.30214 7.62381 1.24683 7.75734 1.24683 7.89658V19.5862C1.24683 19.7255 1.30214 19.859 1.4006 19.9575C1.49905 20.0559 1.63259 20.1112 1.77183 20.1112H4.06203C4.09158 21.3861 5.13573 22.4146 6.41748 22.4146C7.69923 22.4146 8.74338 21.3861 8.77293 20.1112H17.2746C17.3042 21.3861 18.3483 22.4146 19.6301 22.4146C20.9118 22.4146 21.956 21.3861 21.9855 20.1112H22.2414C23.075 20.1112 23.7531 19.4331 23.7531 18.5995V14.9707C23.7531 14.9017 23.7395 14.8333 23.7132 14.7696ZM6.41733 21.3648C5.69598 21.3648 5.10903 20.778 5.10903 20.0565C5.10903 19.335 5.69598 18.7482 6.41733 18.7482C7.13868 18.7482 7.72548 19.335 7.72548 20.0565C7.72548 20.778 7.13883 21.3648 6.41733 21.3648ZM22.5042 14.5957H19.0761V12.9681C19.0764 12.7248 19.1731 12.4915 19.3451 12.3195C19.5171 12.1474 19.7504 12.0507 19.9937 12.0504H21.4484L22.5042 14.5957ZM19.6301 21.3648C18.9086 21.3648 18.3218 20.778 18.3218 20.0565C18.3218 19.335 18.9086 18.7482 19.6301 18.7482C20.3516 18.7482 20.9384 19.335 20.9384 20.0565C20.9384 20.778 20.3516 21.3648 19.6301 21.3648ZM22.7031 17.3677H22.4003C22.3547 17.3677 22.3111 17.3495 22.2789 17.3173C22.2467 17.2851 22.2286 17.2414 22.2285 17.1958V16.7176C22.2285 16.6228 22.3056 16.5457 22.4003 16.5457H22.7031V17.3677ZM22.7031 15.7959H22.4003C22.1559 15.7962 21.9216 15.8934 21.7488 16.0663C21.576 16.2391 21.4788 16.4734 21.4785 16.7178V17.196C21.4788 17.4404 21.576 17.6747 21.7488 17.8475C21.9216 18.0203 22.1559 18.1176 22.4003 18.1179H22.7031V18.5997C22.703 18.7221 22.6543 18.8394 22.5677 18.926C22.4812 19.0125 22.3638 19.0612 22.2414 19.0614H21.765C21.3888 18.2577 20.5745 17.6983 19.6301 17.6983C18.6857 17.6983 17.8713 18.2577 17.4951 19.0614H17.1827V11.2164C17.1828 11.1272 17.2183 11.0418 17.2813 10.9787C17.3443 10.9157 17.4298 10.8802 17.519 10.8801H20.6547C20.8421 10.8801 21.0095 10.9918 21.0812 11.1649L21.1374 11.3004H19.9937C19.0742 11.3004 18.3261 12.0486 18.3261 12.9681V14.9707C18.3261 15.0702 18.3656 15.1656 18.436 15.2359C18.5063 15.3062 18.6017 15.3457 18.7011 15.3457H22.7031V15.7959Z" fill="black"/>
<path d="M19.6301 19.6004C19.5091 19.6005 19.3932 19.6486 19.3077 19.7341C19.2222 19.8197 19.1741 19.9356 19.1739 20.0566C19.174 20.1775 19.2221 20.2935 19.3076 20.3791C19.3931 20.4646 19.5091 20.5127 19.6301 20.5128C19.7511 20.5127 19.8671 20.4646 19.9526 20.3791C20.0382 20.2935 20.0863 20.1775 20.0864 20.0566C20.0863 19.9356 20.0382 19.8196 19.9526 19.7341C19.8671 19.6486 19.7511 19.6005 19.6301 19.6004ZM18.3263 16.1709C18.3263 16.2704 18.3658 16.3658 18.4361 16.4361C18.5065 16.5064 18.6018 16.5459 18.7013 16.5459H19.6301C19.7295 16.5459 19.8249 16.5064 19.8953 16.4361C19.9656 16.3658 20.0051 16.2704 20.0051 16.1709C20.0051 16.0715 19.9656 15.9761 19.8953 15.9058C19.8249 15.8355 19.7295 15.7959 19.6301 15.7959H18.7013C18.6018 15.7959 18.5065 15.8355 18.4361 15.9058C18.3658 15.9761 18.3263 16.0715 18.3263 16.1709ZM6.41734 19.6004C6.29638 19.6005 6.18041 19.6486 6.09487 19.7341C6.00933 19.8196 5.9612 19.9356 5.96104 20.0566C5.96104 20.3083 6.16564 20.5128 6.41734 20.5128C6.66904 20.5128 6.87364 20.3083 6.87364 20.0566C6.87352 19.9356 6.8254 19.8196 6.73985 19.7341C6.6543 19.6486 6.53831 19.6005 6.41734 19.6004ZM9.21469 13.0434C12.098 13.0434 14.4435 10.6976 14.4435 7.81445C14.4435 4.9313 12.098 2.58545 9.21469 2.58545C6.33139 2.58545 3.98584 4.93115 3.98584 7.81445C3.98584 10.6978 6.33154 13.0434 9.21469 13.0434ZM9.21469 3.63545C11.519 3.63545 13.3935 5.51015 13.3935 7.8143C13.3935 10.1184 11.5188 11.9933 9.21469 11.9933C6.91054 11.9933 5.03584 10.1186 5.03584 7.8143C5.03584 5.51 6.91054 3.63545 9.21469 3.63545Z" fill="black"/>
<path d="M6.83262 8.4202L8.42412 9.69805C8.51718 9.77292 8.63303 9.81373 8.75247 9.8137C8.89617 9.8137 9.03897 9.75505 9.14217 9.64075L11.6577 6.8572C11.705 6.80624 11.7417 6.74639 11.7656 6.68113C11.7896 6.61587 11.8004 6.54649 11.7973 6.47703C11.7943 6.40757 11.7775 6.33941 11.7478 6.27651C11.7182 6.2136 11.6764 6.15721 11.6248 6.11059C11.5733 6.06397 11.5129 6.02807 11.4474 6.00495C11.3818 5.98184 11.3123 5.97198 11.2429 5.97595C11.1734 5.97992 11.1055 5.99764 11.043 6.02808C10.9805 6.05851 10.9247 6.10106 10.8787 6.15325L8.69517 8.56915L7.48992 7.6015C7.38115 7.51648 7.24327 7.47773 7.10614 7.49363C6.969 7.50953 6.84365 7.5788 6.75722 7.68646C6.67079 7.79411 6.63024 7.93147 6.64435 8.0688C6.65847 8.20613 6.7261 8.33238 6.83262 8.4202Z" fill="black"/>
</svg>
