<svg width="25" height="24" viewBox="0 0 25 24" fill="none" xmlns="http://www.w3.org/2000/svg">
<path d="M24.501 12C24.501 5.37262 19.1284 0 12.501 0C5.8736 0 0.500977 5.37262 0.500977 12C0.500977 17.9895 4.88923 22.954 10.626 23.8542V15.4688H7.5791V12H10.626V9.35625C10.626 6.34875 12.4175 4.6875 15.1586 4.6875C16.4715 4.6875 17.8447 4.92188 17.8447 4.92188V7.875H16.3316C14.8409 7.875 14.376 8.80003 14.376 9.74906V12H17.7041L17.1721 15.4688H14.376V23.8542C20.1127 22.954 24.501 17.9896 24.501 12Z" fill="#1877F2"/>
<path d="M17.1721 15.4688L17.7041 12H14.376V9.74906C14.376 8.79994 14.8409 7.875 16.3316 7.875H17.8447V4.92188C17.8447 4.92188 16.4715 4.6875 15.1585 4.6875C12.4175 4.6875 10.626 6.34875 10.626 9.35625V12H7.5791V15.4688H10.626V23.8542C11.2462 23.9514 11.8731 24.0001 12.501 24C13.1288 24.0001 13.7557 23.9514 14.376 23.8542V15.4688H17.1721Z" fill="white"/>
</svg>
