<svg width="24" height="24" viewBox="0 0 24 24" fill="none" xmlns="http://www.w3.org/2000/svg">
<g clip-path="url(#clip0_3601_3529)">
<path d="M21.7634 18.4586H21.953V14.7604C21.953 14.6609 21.9135 14.5656 21.8432 14.4952C21.7729 14.4249 21.6775 14.3854 21.578 14.3854H17.6157C17.5162 14.3854 17.4208 14.4249 17.3505 14.4952C17.2802 14.5656 17.2407 14.6609 17.2407 14.7604V18.3478H16.3752V14.7604C16.3752 14.6609 16.3357 14.5656 16.2654 14.4952C16.1951 14.4249 16.0997 14.3854 16.0002 14.3854H12.0379C11.9384 14.3854 11.843 14.4249 11.7727 14.4952C11.7024 14.5656 11.6629 14.6609 11.6629 14.7604V18.3478H10.0253V18.0874C10.0253 17.5302 9.57202 17.0769 9.01486 17.0769H8.75334L7.8465 13.6492L7.88409 13.5516C8.27778 13.4415 8.65678 13.2844 9.01289 13.0837L9.73641 13.405C9.80566 13.4358 9.88261 13.4448 9.95712 13.431C10.0316 13.4171 10.1002 13.3811 10.1538 13.3275L11.2146 12.2667C11.2681 12.2131 11.3042 12.1445 11.3181 12.07C11.3319 11.9955 11.3229 11.9186 11.2921 11.8493L10.9707 11.1256C11.1713 10.7696 11.3283 10.3907 11.4384 9.99715L12.177 9.7129C12.2477 9.68568 12.3086 9.63767 12.3515 9.5752C12.3944 9.51272 12.4173 9.43872 12.4173 9.36293V7.86279C12.4173 7.78701 12.3944 7.713 12.3515 7.65053C12.3086 7.58806 12.2478 7.54004 12.177 7.51282L11.4387 7.22866C11.3752 7.00207 11.296 6.78016 11.2017 6.56454L14.2185 4.03676L17.2768 6.71655C17.2918 7.08218 17.4353 7.41518 17.6631 7.67163C16.6052 8.12046 15.8613 9.16966 15.8613 10.3894C15.8613 11.4385 16.4259 12.4174 17.3347 12.9439C17.3917 12.9769 17.4563 12.9944 17.5222 12.9944C17.5881 12.9945 17.6528 12.9772 17.7099 12.9443C17.767 12.9114 17.8144 12.8641 17.8474 12.8071C17.8803 12.75 17.8977 12.6853 17.8977 12.6194V10.5689L18.7854 10.0563L19.6732 10.5689V12.6492C19.6732 12.7143 19.6902 12.7783 19.7224 12.8349C19.7547 12.8915 19.8011 12.9387 19.8571 12.9719C19.9132 13.0051 19.9769 13.0231 20.042 13.0242C20.1071 13.0252 20.1714 13.0093 20.2285 12.978C21.1747 12.4593 21.7624 11.4674 21.7624 10.3894C21.7624 9.16966 21.0186 8.12051 19.9606 7.67168C20.2017 7.40027 20.3483 7.04313 20.3483 6.65243C20.3483 5.82429 19.6898 5.14713 18.8689 5.11704L16.0805 2.12482C16.0545 1.1831 15.281 0.424805 14.3331 0.424805C13.7114 0.424805 13.1648 0.751289 12.8546 1.24151L8.43727 3.86412C8.25669 3.79023 8.07201 3.72679 7.88414 3.67413L7.59989 2.93562C7.57268 2.86489 7.52467 2.80407 7.46219 2.76117C7.39972 2.71828 7.32571 2.69532 7.24992 2.69534H5.74978C5.674 2.69534 5.6 2.71829 5.53752 2.76119C5.47505 2.80408 5.42704 2.8649 5.39981 2.93562L5.11547 3.67413C4.72193 3.78424 4.34308 3.94133 3.98709 4.14199L3.2633 3.82052C3.19404 3.78977 3.11708 3.78072 3.04257 3.79457C2.96807 3.80841 2.89951 3.84451 2.84592 3.8981L1.78514 4.95888C1.73156 5.01247 1.69547 5.08104 1.68163 5.15554C1.66779 5.23005 1.67685 5.307 1.70761 5.37626L2.02903 6.09991C1.82833 6.45595 1.67125 6.83487 1.56117 7.22848L0.822656 7.51273C0.751934 7.53995 0.69112 7.58796 0.648226 7.65044C0.605333 7.71291 0.582374 7.78691 0.582375 7.86269V9.36284C0.582378 9.43862 0.605344 9.51263 0.648246 9.5751C0.691148 9.63758 0.751972 9.68559 0.822703 9.7128L1.56103 9.99696C1.67115 10.3907 1.82825 10.7697 2.02894 11.1258L1.70761 11.8493C1.67685 11.9185 1.6678 11.9955 1.68165 12.07C1.6955 12.1445 1.7316 12.2131 1.78519 12.2666L2.84602 13.3274C2.88389 13.3651 2.9294 13.3942 2.97947 13.4127L3.19866 17.0769H3.05737C2.50027 17.0769 2.04703 17.5301 2.04703 18.0873V18.524C1.06992 18.9028 0.375 19.8523 0.375 20.9615C0.375 22.4028 1.54753 23.5753 2.98875 23.5753H21.0112C22.4524 23.5753 23.625 22.4028 23.625 20.9615C23.625 19.7817 22.839 18.7825 21.7634 18.4586ZM19.3085 15.1354H19.8852V16.002H19.3085V15.1354ZM17.9907 15.1354H18.5585V16.377C18.5585 16.4765 18.598 16.5719 18.6683 16.6422C18.7386 16.7125 18.834 16.752 18.9335 16.752H20.2602C20.3596 16.752 20.455 16.7125 20.5253 16.6422C20.5957 16.5719 20.6352 16.4765 20.6352 16.377V15.1354H21.203V18.3556C21.1392 18.3506 21.0752 18.348 21.0112 18.3478H17.9907V15.1354ZM13.7307 15.1354H14.3074V16.002H13.7307V15.1354ZM12.4129 15.1354H12.9807V16.377C12.9807 16.4765 13.0202 16.5719 13.0905 16.6422C13.1608 16.7125 13.2562 16.752 13.3557 16.752H14.6824C14.7818 16.752 14.8772 16.7125 14.9475 16.6422C15.0179 16.5719 15.0574 16.4765 15.0574 16.377V15.1354H15.6252V18.3478H12.4129V15.1354ZM11.2145 4.95888L10.1536 3.8981C10.1114 3.85606 10.0598 3.82472 10.003 3.8067L12.5874 2.27234C12.6214 2.8789 12.966 3.40348 13.4643 3.69002L11.1973 5.58963L11.292 5.37626C11.3228 5.307 11.3319 5.23004 11.318 5.15553C11.3042 5.08103 11.2681 5.01246 11.2145 4.95888ZM21.0125 10.3892C21.0125 10.9453 20.802 11.4807 20.4233 11.8879V10.3522C20.4233 10.2864 20.406 10.2217 20.3731 10.1647C20.3402 10.1077 20.2928 10.0604 20.2358 10.0275L18.973 9.29838C18.916 9.26547 18.8514 9.24814 18.7855 9.24814C18.7197 9.24814 18.655 9.26547 18.598 9.29838L17.3353 10.0275C17.2783 10.0604 17.2309 10.1077 17.198 10.1647C17.1651 10.2217 17.1478 10.2864 17.1478 10.3522V11.8277C16.8076 11.433 16.6115 10.9234 16.6115 10.3892C16.6115 9.17585 17.5987 8.18866 18.812 8.18866C20.0253 8.18871 21.0125 9.17585 21.0125 10.3892ZM18.8119 5.86582C19.2455 5.86582 19.5983 6.2186 19.5983 6.65224C19.5983 7.08588 19.2455 7.43866 18.8119 7.43866C18.3782 7.43866 18.0255 7.08588 18.0255 6.65224C18.0255 6.2186 18.3782 5.86582 18.8119 5.86582ZM17.476 5.89385L15.0497 3.76784C15.4004 3.60935 15.6894 3.34028 15.8726 3.00185L18.0379 5.3254C17.8041 5.46244 17.6103 5.65845 17.476 5.89385ZM14.3331 1.1748C14.8837 1.1748 15.3317 1.62279 15.3317 2.17343C15.3317 2.72407 14.8837 3.17205 14.3331 3.17205C13.7824 3.17205 13.3344 2.72407 13.3344 2.17343C13.3344 1.62279 13.7824 1.1748 14.3331 1.1748ZM2.4975 11.9184L2.79262 11.254C2.81734 11.1983 2.82813 11.1374 2.82404 11.0766C2.81996 11.0159 2.80113 10.957 2.76919 10.9051C2.5261 10.5108 2.34758 10.0801 2.24039 9.62946C2.2263 9.57021 2.19798 9.51528 2.15788 9.46944C2.11779 9.4236 2.06713 9.38821 2.01028 9.36635L1.33233 9.1054V8.12018L2.01047 7.85913C2.06731 7.83726 2.11796 7.80186 2.15805 7.75601C2.19813 7.71016 2.22644 7.65523 2.24053 7.59598C2.34772 7.14542 2.52622 6.71488 2.76928 6.32065C2.80123 6.26878 2.82005 6.20991 2.82414 6.14912C2.82822 6.08834 2.81744 6.02748 2.79272 5.97181L2.4975 5.30712L3.19411 4.61046L3.85889 4.90568C3.91456 4.93039 3.97541 4.94117 4.03619 4.93709C4.09696 4.93301 4.15582 4.91418 4.20769 4.88224C4.60191 4.63921 5.03243 4.46073 5.48297 4.35354C5.54221 4.33943 5.59713 4.31111 5.64297 4.27101C5.68882 4.23092 5.7242 4.18027 5.74608 4.12343L6.00712 3.44524H6.99234L7.25339 4.12343C7.27526 4.18027 7.31065 4.23092 7.3565 4.27101C7.40234 4.31111 7.45726 4.33943 7.5165 4.35354C7.96704 4.46076 8.39757 4.63925 8.79183 4.88224C8.84369 4.91419 8.90256 4.93301 8.96333 4.93709C9.02411 4.94116 9.08496 4.93037 9.14062 4.90563L9.80536 4.61041L10.502 5.30707L10.2069 5.97152C10.1822 6.0272 10.1714 6.08806 10.1755 6.14884C10.1796 6.20962 10.1984 6.2685 10.2303 6.32037C10.4734 6.71467 10.6519 7.14528 10.7591 7.59593C10.7732 7.65518 10.8015 7.71011 10.8416 7.75596C10.8817 7.80181 10.9323 7.83721 10.9892 7.85909L11.6672 8.12004V9.10526L10.989 9.3663C10.9321 9.38817 10.8815 9.42356 10.8414 9.46941C10.8013 9.51527 10.773 9.5702 10.7589 9.62946C10.6517 10.08 10.4732 10.5105 10.2302 10.9048C10.1983 10.9567 10.1794 11.0155 10.1754 11.0763C10.1713 11.1371 10.1821 11.1979 10.2068 11.2536L10.502 11.9183L9.80541 12.615L9.14091 12.3199C9.08523 12.2952 9.02437 12.2844 8.96358 12.2885C8.9028 12.2925 8.84393 12.3114 8.79206 12.3433C8.39776 12.5864 7.96714 12.7649 7.5165 12.8721C7.45725 12.8862 7.40232 12.9146 7.35647 12.9546C7.31062 12.9947 7.27522 13.0454 7.25334 13.1022L6.99239 13.7802H6.00717L5.74613 13.102C5.72424 13.0452 5.68885 12.9945 5.64301 12.9544C5.59717 12.9143 5.54226 12.886 5.48302 12.8719C5.03249 12.7647 4.60197 12.5862 4.20773 12.3432C4.15587 12.3113 4.097 12.2924 4.03623 12.2884C3.97546 12.2843 3.91461 12.2951 3.85894 12.3198L3.19416 12.615L2.4975 11.9184ZM3.71822 13.203L3.98714 13.0835C4.34313 13.2842 4.72198 13.4413 5.11552 13.5514L5.39977 14.2899C5.42698 14.3606 5.47499 14.4214 5.53747 14.4643C5.59994 14.5072 5.67395 14.5302 5.74973 14.5301H7.24992C7.26778 14.5301 7.28536 14.5286 7.3027 14.5261L7.97756 17.0768H3.94992L3.71822 13.203ZM2.79698 18.0874C2.79705 18.0183 2.82449 17.9521 2.8733 17.9033C2.92211 17.8545 2.98829 17.827 3.05733 17.8269H9.01491C9.08396 17.827 9.15016 17.8545 9.19898 17.9033C9.24781 17.9521 9.27527 18.0183 9.27534 18.0874V18.3478H2.98875C2.9242 18.3478 2.86041 18.351 2.79698 18.3556V18.0874ZM21.0112 22.8253H2.98875C1.96106 22.8253 1.125 21.9893 1.125 20.9615C1.125 19.9339 1.96106 19.0978 2.98875 19.0978H21.0112C22.0389 19.0978 22.875 19.9339 22.875 20.9616C22.875 21.9892 22.0389 22.8253 21.0112 22.8253ZM13.2581 19.778C13.2581 19.8775 13.2186 19.9729 13.1483 20.0432C13.078 20.1135 12.9826 20.153 12.8831 20.153H11.1169C11.0174 20.153 10.922 20.1135 10.8517 20.0432C10.7814 19.9729 10.7419 19.8775 10.7419 19.778C10.7419 19.6786 10.7814 19.5832 10.8517 19.5129C10.922 19.4425 11.0174 19.403 11.1169 19.403H12.8831C12.9826 19.403 13.078 19.4425 13.1483 19.5129C13.2186 19.5832 13.2581 19.6786 13.2581 19.778ZM19.2656 22.145C19.2656 22.2445 19.2261 22.3399 19.1557 22.4102C19.0854 22.4805 18.99 22.52 18.8906 22.52H17.1243C17.0249 22.52 16.9295 22.4805 16.8592 22.4102C16.7888 22.3399 16.7493 22.2445 16.7493 22.145C16.7493 22.0456 16.7888 21.9502 16.8592 21.8799C16.9295 21.8095 17.0249 21.77 17.1243 21.77H18.8906C18.99 21.77 19.0854 21.8095 19.1557 21.8799C19.2261 21.9502 19.2656 22.0456 19.2656 22.145ZM7.25062 19.778C7.25062 19.8775 7.21112 19.9729 7.14079 20.0432C7.07046 20.1135 6.97508 20.153 6.87562 20.153H5.10938C5.00992 20.153 4.91454 20.1135 4.84421 20.0432C4.77388 19.9729 4.73438 19.8775 4.73438 19.778C4.73438 19.6786 4.77388 19.5832 4.84421 19.5129C4.91454 19.4425 5.00992 19.403 5.10938 19.403H6.87562C6.97508 19.403 7.07046 19.4425 7.14079 19.5129C7.21112 19.5832 7.25062 19.6786 7.25062 19.778ZM19.2656 19.778C19.2656 19.8775 19.2261 19.9729 19.1557 20.0432C19.0854 20.1135 18.99 20.153 18.8906 20.153H17.1243C17.0249 20.153 16.9295 20.1135 16.8592 20.0432C16.7888 19.9729 16.7493 19.8775 16.7493 19.778C16.7493 19.6786 16.7888 19.5832 16.8592 19.5129C16.9295 19.4425 17.0249 19.403 17.1243 19.403H18.8906C18.99 19.403 19.0854 19.4425 19.1557 19.5129C19.2261 19.5832 19.2656 19.6786 19.2656 19.778ZM13.2581 22.145C13.2581 22.2445 13.2186 22.3399 13.1483 22.4102C13.078 22.4805 12.9826 22.52 12.8831 22.52H11.1169C11.0174 22.52 10.922 22.4805 10.8517 22.4102C10.7814 22.3399 10.7419 22.2445 10.7419 22.145C10.7419 22.0456 10.7814 21.9502 10.8517 21.8799C10.922 21.8095 11.0174 21.77 11.1169 21.77H12.8831C12.9826 21.77 13.078 21.8095 13.1483 21.8799C13.2186 21.9502 13.2581 22.0456 13.2581 22.145ZM7.25062 22.145C7.25062 22.2445 7.21112 22.3399 7.14079 22.4102C7.07046 22.4805 6.97508 22.52 6.87562 22.52H5.10938C5.00992 22.52 4.91454 22.4805 4.84421 22.4102C4.77388 22.3399 4.73438 22.2445 4.73438 22.145C4.73438 22.0456 4.77388 21.9502 4.84421 21.8799C4.91454 21.8095 5.00992 21.77 5.10938 21.77H6.87562C6.97508 21.77 7.07046 21.8095 7.14079 21.8799C7.21112 21.9502 7.25062 22.0456 7.25062 22.145ZM2.98875 19.403C2.12939 19.403 1.43025 20.1022 1.43025 20.9615C1.43025 21.8209 2.12939 22.52 2.98875 22.52C3.84816 22.52 4.5473 21.8209 4.5473 20.9615C4.5473 20.1022 3.84816 19.403 2.98875 19.403ZM2.98875 21.7701C2.54292 21.7701 2.18025 21.4074 2.18025 20.9616C2.18025 20.5158 2.54292 20.1531 2.98875 20.1531C3.43458 20.1531 3.7973 20.5158 3.7973 20.9616C3.7973 21.4074 3.43458 21.7701 2.98875 21.7701ZM8.99625 19.403C8.13689 19.403 7.43775 20.1022 7.43775 20.9615C7.43775 21.8209 8.13689 22.52 8.99625 22.52C9.85561 22.52 10.5548 21.8209 10.5548 20.9615C10.5548 20.1022 9.85561 19.403 8.99625 19.403ZM8.99625 21.7701C8.55042 21.7701 8.18775 21.4074 8.18775 20.9616C8.18775 20.5158 8.55042 20.1531 8.99625 20.1531C9.44208 20.1531 9.80475 20.5158 9.80475 20.9616C9.80475 21.4074 9.44208 21.7701 8.99625 21.7701ZM15.0037 19.403C14.1443 19.403 13.4452 20.1022 13.4452 20.9615C13.4452 21.8209 14.1443 22.52 15.0037 22.52C15.8631 22.52 16.5623 21.8209 16.5623 20.9615C16.5623 20.1022 15.8631 19.403 15.0037 19.403ZM15.0037 21.7701C14.5579 21.7701 14.1952 21.4074 14.1952 20.9616C14.1952 20.5158 14.5579 20.1531 15.0037 20.1531C15.4496 20.1531 15.8123 20.5158 15.8123 20.9616C15.8123 21.4074 15.4496 21.7701 15.0037 21.7701ZM21.0112 19.403C20.1518 19.403 19.4527 20.1022 19.4527 20.9615C19.4527 21.8209 20.1518 22.52 21.0112 22.52C21.8706 22.52 22.5697 21.8209 22.5697 20.9615C22.5697 20.1022 21.8706 19.403 21.0112 19.403ZM21.0112 21.7701C20.5654 21.7701 20.2027 21.4074 20.2027 20.9616C20.2027 20.5158 20.5654 20.1531 21.0112 20.1531C21.457 20.1531 21.8197 20.5158 21.8197 20.9616C21.8197 21.4074 21.457 21.7701 21.0112 21.7701ZM13.8175 2.17343C13.8175 1.88866 14.0483 1.65785 14.3331 1.65785C14.6178 1.65785 14.8487 1.88866 14.8487 2.17343C14.8487 2.4582 14.6179 2.68901 14.3331 2.68901C14.0483 2.68901 13.8175 2.4582 13.8175 2.17343ZM6.49978 11.6041C8.14922 11.6041 9.49106 10.2622 9.49106 8.61284C9.49106 6.9634 8.14917 5.62155 6.49978 5.62155C4.85039 5.62155 3.50855 6.96345 3.50855 8.61284C3.50855 10.2622 4.85044 11.6041 6.49978 11.6041ZM6.49978 6.37151C7.73564 6.37151 8.74106 7.37693 8.74106 8.61279C8.74106 9.8486 7.73564 10.854 6.49978 10.854C5.26397 10.854 4.25855 9.8486 4.25855 8.61279C4.25855 7.37693 5.26397 6.37151 6.49978 6.37151Z" fill="black"/>
</g>
<defs>
<clipPath id="clip0_3601_3529">
<rect width="24" height="24" fill="white"/>
</clipPath>
</defs>
</svg>
