<svg width="20" height="24" viewBox="0 0 20 24" fill="none" xmlns="http://www.w3.org/2000/svg">
<path d="M14.4465 5.03339C13.2091 3.78056 11.5586 3.07818 9.79911 3.05526C8.01439 3.03206 6.32708 3.7132 5.04697 4.97292C3.76761 6.23198 3.06008 7.90739 3.05478 9.69065C3.05189 10.6444 3.25399 11.5876 3.6474 12.4564C4.0408 13.3253 4.61631 14.0994 5.33497 14.7264C6.38825 15.646 6.99228 16.9537 6.99228 18.3138V21.6718C6.99228 22.9556 8.0367 24 9.32047 24H10.1018C11.3854 24 12.4298 22.9556 12.4298 21.6718V18.3569C12.4298 16.958 13.0223 15.6447 14.0556 14.7537C15.5247 13.4872 16.3673 11.649 16.3673 9.711C16.3673 7.9484 15.6852 6.28715 14.4465 5.03339ZM9.70517 13.0852H9.39425C9.22433 13.0852 9.08609 12.947 9.08609 12.7769C9.08619 12.6952 9.11869 12.6169 9.17646 12.5591C9.23423 12.5013 9.31255 12.4688 9.39425 12.4687C9.47668 12.4689 9.5557 12.5017 9.61398 12.5599C9.67226 12.6182 9.70506 12.6972 9.70517 12.7797V13.0852ZM9.71103 15.8712C9.96959 15.8712 10.1798 16.0814 10.1798 16.34V17.9337H9.24228V16.34C9.24228 16.0814 9.45247 15.8712 9.71103 15.8712ZM11.4923 18.8712V19.5606H7.92978V18.8712H11.4923ZM7.92978 20.4981H11.4923V21.1875H7.92978V20.4981ZM10.1016 23.0625H9.32047C8.71217 23.0625 8.19434 22.6699 8.00595 22.125H11.4161C11.2277 22.6699 10.7099 23.0625 10.1016 23.0625ZM13.4435 14.0438C12.3087 15.0221 11.6168 16.4216 11.5075 17.9337H11.1173V16.34C11.1173 15.9214 10.9332 15.5453 10.6423 15.2875C10.6423 15.2855 10.6427 15.2834 10.6427 15.2812V13.7406C11.0244 13.4667 11.2735 13.0192 11.2735 12.5145V11.7885C11.2735 10.7899 10.461 9.97725 9.46222 9.97725H8.61734C8.3584 9.97725 8.14859 10.1871 8.14859 10.446C8.14859 10.7049 8.3584 10.9147 8.61734 10.9147H9.46217C9.94414 10.9147 10.336 11.3068 10.336 11.7885V11.961C10.1069 11.6979 9.76981 11.5312 9.39425 11.5312C8.70744 11.5312 8.14859 12.0901 8.14859 12.7771C8.14859 13.4639 8.70744 14.0227 9.39425 14.0227H9.70517V14.9339C8.93248 14.937 8.30478 15.5665 8.30478 16.34V17.9337H7.91679C7.81404 16.4416 7.11073 15.0322 5.9517 14.0202C5.33414 13.4816 4.83958 12.8165 4.50151 12.07C4.16345 11.3235 3.98978 10.5131 3.99228 9.6936C3.99687 8.16248 4.60494 6.72328 5.70467 5.64112C6.80497 4.55821 8.2535 3.97265 9.78683 3.99281C12.8984 4.03312 15.4298 6.5984 15.4298 9.711C15.4298 11.3761 14.7058 12.9552 13.4435 14.0438Z" fill="black"/>
<path d="M9.80569 5.33531H9.79833C9.54 5.33278 9.32958 5.53988 9.32648 5.79858C9.32353 6.05752 9.5332 6.26991 9.79209 6.27281H9.80489C10.0611 6.27281 10.2682 6.06666 10.2711 5.80959C10.2743 5.55066 10.0646 5.33845 9.80564 5.33531H9.80569ZM11.8676 5.88539C11.8138 5.85443 11.7543 5.83447 11.6927 5.82669C11.6311 5.8189 11.5685 5.82343 11.5086 5.84003C11.4488 5.85663 11.3928 5.88495 11.344 5.92336C11.2952 5.96177 11.2545 6.00949 11.2243 6.06376C11.1941 6.11803 11.1749 6.17777 11.168 6.23949C11.1611 6.30122 11.1665 6.36371 11.1839 6.42333C11.2013 6.48295 11.2304 6.53852 11.2695 6.5868C11.3086 6.63508 11.3568 6.67512 11.4115 6.70458C12.5023 7.31194 13.1798 8.46384 13.1798 9.711C13.1798 9.96989 13.3896 10.1798 13.6485 10.1798C13.9074 10.1798 14.1173 9.96989 14.1173 9.711C14.1173 8.124 13.2552 6.65827 11.8676 5.88539ZM9.711 2.20312C9.96989 2.20312 10.1798 1.99327 10.1798 1.73438V0.46875C10.1798 0.209859 9.96989 0 9.711 0C9.45211 0 9.24225 0.209859 9.24225 0.46875V1.73438C9.24225 1.99327 9.45211 2.20312 9.711 2.20312ZM18.9533 9.24225H17.6876C17.4287 9.24225 17.2189 9.45211 17.2189 9.711C17.2189 9.96989 17.4287 10.1798 17.6876 10.1798H18.9533C19.2121 10.1798 19.422 9.96989 19.422 9.711C19.422 9.45211 19.2121 9.24225 18.9533 9.24225ZM1.73438 9.24225H0.46875C0.209859 9.24225 0 9.45211 0 9.711C0 9.96989 0.209859 10.1798 0.46875 10.1798H1.73438C1.99327 10.1798 2.20313 9.96989 2.20313 9.711C2.20313 9.45211 1.99327 9.24225 1.73438 9.24225ZM15.6828 15.02C15.4997 14.8369 15.2029 14.8369 15.0198 15.02C14.8369 15.2029 14.8369 15.4997 15.0198 15.6828L15.9148 16.5778C15.9583 16.6214 16.01 16.6559 16.0668 16.6795C16.1237 16.7031 16.1847 16.7152 16.2462 16.7152C16.3662 16.7152 16.4861 16.6692 16.5776 16.5778C16.7607 16.3947 16.7607 16.0979 16.5776 15.9148L15.6828 15.02ZM3.73922 4.40203C3.83077 4.49358 3.95067 4.53937 4.07063 4.53937C4.19058 4.53937 4.31063 4.49358 4.40203 4.40203C4.58513 4.21913 4.58513 3.92231 4.40203 3.73922L3.50719 2.84419C3.32409 2.66123 3.02728 2.66123 2.84419 2.84419C2.66109 3.02728 2.66123 3.32409 2.84419 3.50719L3.73922 4.40203ZM15.9148 2.84438L15.02 3.73922C14.8369 3.92231 14.8369 4.21913 15.02 4.40222C15.1115 4.49377 15.2315 4.53956 15.3514 4.53956C15.4713 4.53956 15.5912 4.49377 15.6828 4.40222L16.5776 3.50719C16.7607 3.32409 16.7607 3.02728 16.5776 2.84419C16.3947 2.66109 16.0979 2.66123 15.9148 2.84438ZM3.73922 15.02L2.84438 15.9148C2.66123 16.0979 2.66123 16.3947 2.84438 16.5778C2.93592 16.6692 3.05583 16.7152 3.17578 16.7152C3.29573 16.7152 3.41564 16.6692 3.50719 16.5778L4.40203 15.6828C4.58513 15.4997 4.58513 15.2029 4.40203 15.02C4.21913 14.8369 3.92231 14.8369 3.73922 15.02Z" fill="black"/>
</svg>
