<svg width="17" height="24" viewBox="0 0 17 24" fill="none" xmlns="http://www.w3.org/2000/svg">
<path d="M7.83582 15.6255H9.16754C9.26078 15.6255 9.3502 15.5884 9.41614 15.5225C9.48207 15.4566 9.5191 15.3672 9.5191 15.2739C9.5191 15.0796 9.36184 14.9224 9.16754 14.9224H7.83582C7.74258 14.9224 7.65316 14.9594 7.58723 15.0253C7.5213 15.0913 7.48426 15.1807 7.48426 15.2739C7.48426 15.3672 7.5213 15.4566 7.58723 15.5225C7.65316 15.5884 7.74258 15.6255 7.83582 15.6255ZM9.16773 18.6786H7.83582C7.74258 18.6786 7.65316 18.7156 7.58723 18.7816C7.5213 18.8475 7.48426 18.9369 7.48426 19.0302C7.48426 19.1234 7.5213 19.2128 7.58723 19.2788C7.65316 19.3447 7.74258 19.3817 7.83582 19.3817H9.16773C9.26097 19.3817 9.35039 19.3447 9.41632 19.2788C9.48225 19.2128 9.51929 19.1234 9.51929 19.0302C9.51929 18.9369 9.48225 18.8475 9.41632 18.7816C9.35039 18.7156 9.26097 18.6786 9.16773 18.6786ZM2.66748 18.7747C2.86154 18.7747 3.01904 18.6172 3.01904 18.4231V17.4763C3.01904 17.3831 2.982 17.2936 2.91607 17.2277C2.85014 17.1618 2.76072 17.1247 2.66748 17.1247C2.57424 17.1247 2.48482 17.1618 2.41889 17.2277C2.35296 17.2936 2.31592 17.3831 2.31592 17.4763V18.4232C2.31592 18.5164 2.35296 18.6058 2.41889 18.6718C2.48482 18.7377 2.57424 18.7747 2.66748 18.7747ZM12.6528 17.4763V18.4232C12.6528 18.5164 12.6898 18.6058 12.7558 18.6718C12.8217 18.7377 12.9111 18.7747 13.0044 18.7747C13.0976 18.7747 13.187 18.7377 13.2529 18.6718C13.3189 18.6058 13.3559 18.5164 13.3559 18.4232V17.4763C13.3559 17.3831 13.3189 17.2936 13.2529 17.2277C13.187 17.1618 13.0976 17.1247 13.0044 17.1247C12.9111 17.1247 12.8217 17.1618 12.7558 17.2277C12.6898 17.2936 12.6528 17.3831 12.6528 17.4763Z" fill="black"/>
<path d="M15.9316 12.405H14.6875V3.95329C14.6875 2.99859 13.9108 2.22201 12.9563 2.22201H12.5881C11.685 0.828373 10.1658 0 8.5017 0C6.83764 0 5.31824 0.828561 4.41534 2.22196H4.04718C3.09248 2.22196 2.3159 2.99854 2.3159 3.95324V5.1478C2.3159 5.24104 2.35294 5.33046 2.41887 5.39639C2.4848 5.46232 2.57422 5.49936 2.66746 5.49936C2.7607 5.49936 2.85012 5.46232 2.91606 5.39639C2.98199 5.33046 3.01903 5.24104 3.01903 5.1478V3.95324C3.01903 3.38634 3.48027 2.92509 4.04718 2.92509H4.52727C4.70179 2.92509 4.86126 2.83593 4.95355 2.68635C5.7193 1.4445 7.04572 0.703124 8.5017 0.703124C9.95759 0.703124 11.284 1.4445 12.0499 2.68654C12.1422 2.83593 12.3015 2.92513 12.4762 2.92513H12.9563C13.5232 2.92513 13.9844 3.38638 13.9844 3.95324V12.405H13.5626V3.95324C13.5626 3.61888 13.2907 3.34696 12.9563 3.34696H12.4762C12.1542 3.34696 11.8606 3.18271 11.6909 2.90774C11.0025 1.79147 9.81026 1.125 8.50175 1.125C7.19328 1.125 6.00093 1.7917 5.31243 2.90812C5.14269 3.1829 4.84916 3.34696 4.52727 3.34696H4.04718C3.71282 3.34696 3.4409 3.61888 3.4409 3.95324V12.405H3.01903V6.55405C3.01903 6.46081 2.98199 6.37139 2.91606 6.30546C2.85012 6.23953 2.7607 6.20249 2.66746 6.20249C2.62129 6.20247 2.57557 6.21155 2.5329 6.22921C2.49024 6.24687 2.45148 6.27277 2.41883 6.30542C2.38618 6.33807 2.36029 6.37683 2.34263 6.41949C2.32496 6.46215 2.31588 6.50788 2.3159 6.55405V12.405H1.07189C0.480796 12.405 0 12.8858 0 13.4769C0 14.068 0.480843 14.5488 1.07189 14.5488H1.19386V21.5145C1.19386 21.8117 1.43573 22.0536 1.73292 22.0536H1.80726V23.5461C1.80726 23.7964 2.01084 24 2.26134 24H3.07945C3.32976 24 3.53338 23.7963 3.53338 23.546V23.1353C3.99754 23.0652 4.35444 22.6635 4.35444 22.18V22.0536H12.6491V22.1801C12.6491 22.6635 13.006 23.0652 13.4701 23.1353V23.546C13.4701 23.7963 13.6737 24 13.9241 24H14.7423C14.9927 24 15.1963 23.7963 15.1963 23.546V22.0535H15.2706C15.5678 22.0535 15.8096 21.8116 15.8096 21.5145V19.3396C15.8096 19.1455 15.6522 18.988 15.4581 18.988C15.264 18.988 15.1065 19.1455 15.1065 19.3396V21.3504H12.234V14.5488H15.1065V17.9333C15.1065 18.1276 15.2638 18.2849 15.4581 18.2849C15.5513 18.2849 15.6407 18.2478 15.7067 18.1819C15.7726 18.116 15.8096 18.0265 15.8096 17.9333V14.5488H15.9316C16.5227 14.5488 17.0035 14.068 17.0035 13.4769C17.0035 12.8858 16.5227 12.405 15.9316 12.405ZM4.14402 4.05013H4.52727C5.09493 4.05013 5.61196 3.7612 5.91083 3.27726C6.47038 2.37 7.439 1.82812 8.5017 1.82812C9.5644 1.82812 10.5329 2.36976 11.0925 3.27702C11.3913 3.76096 11.9086 4.05009 12.4762 4.05009H12.8594V12.405H4.14402V4.05013ZM4.76952 14.5488V21.3505H1.89698V14.5488L4.76952 14.5488ZM3.65109 22.1801C3.65104 22.2498 3.62333 22.3167 3.57404 22.366C3.52475 22.4154 3.4579 22.4431 3.38816 22.4432H3.28434C3.03388 22.4432 2.83026 22.6469 2.83026 22.8972V23.2968H2.51039V22.0536H3.65109V22.1801ZM14.4932 22.0536V23.2968H14.1732V22.8971C14.1732 22.6468 13.9695 22.4432 13.7192 22.4432H13.6153C13.5456 22.4431 13.4787 22.4153 13.4294 22.366C13.3801 22.3167 13.3523 22.2498 13.3522 22.1801V22.0535L14.4932 22.0536ZM5.47265 21.3505V18.3012H11.5309V21.3504L5.47265 21.3505ZM11.5309 17.5981H5.47265V14.5488H11.5309V17.5981ZM15.9316 13.8457H11.8859C11.8848 13.8457 11.8835 13.8455 11.8824 13.8455C11.8811 13.8455 11.8799 13.8457 11.8788 13.8457H5.12474C5.12347 13.8457 5.1224 13.8455 5.12108 13.8455C5.12001 13.8455 5.11874 13.8457 5.11743 13.8457H1.07189C0.868639 13.8457 0.703124 13.6802 0.703124 13.477C0.703124 13.2735 0.868639 13.1082 1.07189 13.1082H15.9316C16.1349 13.1082 16.3004 13.2735 16.3004 13.477C16.3004 13.6802 16.1349 13.8457 15.9316 13.8457Z" fill="black"/>
</svg>
