<svg width="25" height="24" viewBox="0 0 25 24" fill="none" xmlns="http://www.w3.org/2000/svg">
<path d="M18.3926 16.6569C17.3962 17.6134 15.2893 19.636 13.8839 20.9851C13.11 21.7281 11.8896 21.7277 11.1157 20.9848C9.73459 19.6589 7.66981 17.6767 6.60745 16.6569C3.35308 13.5327 3.35308 8.46734 6.60745 5.34315C9.86181 2.21895 15.1382 2.21895 18.3926 5.34315C21.6469 8.46734 21.6469 13.5327 18.3926 16.6569Z" stroke="white" stroke-linecap="round" stroke-linejoin="round"/>
<path d="M15.625 11C15.625 12.6569 14.2259 14 12.5 14C10.7741 14 9.375 12.6569 9.375 11C9.375 9.34315 10.7741 8 12.5 8C14.2259 8 15.625 9.34315 15.625 11Z" stroke="white" stroke-linecap="round" stroke-linejoin="round"/>
</svg>
