<svg width="20" height="21" viewBox="0 0 20 21" fill="none" xmlns="http://www.w3.org/2000/svg">
<path d="M14.7141 14.1126C13.9865 14.8402 12.519 16.3078 11.4135 17.4133C10.6324 18.1943 9.36763 18.1943 8.58658 17.4132C7.50097 16.3276 6.0605 14.8871 5.286 14.1126C2.6825 11.5092 2.6825 7.28805 5.286 4.68456C7.88949 2.08106 12.1106 2.08106 14.7141 4.68456C17.3176 7.28805 17.3176 11.5092 14.7141 14.1126Z" stroke="#8A8A8A" stroke-width="2" stroke-linecap="round" stroke-linejoin="round"/>
<path d="M12.5 9.3986C12.5 10.7793 11.3808 11.8986 10 11.8986C8.61933 11.8986 7.50004 10.7793 7.50004 9.3986C7.50004 8.01789 8.61933 6.8986 10 6.8986C11.3808 6.8986 12.5 8.01789 12.5 9.3986Z" stroke="#8A8A8A" stroke-width="2" stroke-linecap="round" stroke-linejoin="round"/>
</svg>
