<svg width="24" height="24" viewBox="0 0 24 24" fill="none" xmlns="http://www.w3.org/2000/svg">
<g clip-path="url(#clip0_3601_2496)">
<path d="M2.60004 22.8C2.60004 23.4627 3.13732 24 3.80004 24H19.8C20.4627 24 21 23.4628 21 22.8V9.99998C20.9999 9.4298 20.5987 8.93841 20.04 8.82441L21.3708 2.96798C21.4054 2.81404 21.4093 2.65479 21.3823 2.49935C21.3552 2.3439 21.2978 2.19531 21.2133 2.06208C21.1288 1.92885 21.0188 1.81359 20.8897 1.72291C20.7606 1.63223 20.6148 1.5679 20.4608 1.53361L17.324 0.829219C17.0155 0.76053 16.6922 0.815831 16.424 0.983203C16.3182 0.805883 16.1683 0.658977 15.9888 0.556776C15.8094 0.454575 15.6066 0.400559 15.4001 0.399984H13.2888C13.2192 0.27877 13.1189 0.178007 12.998 0.107802C12.8771 0.0375973 12.7398 0.000420123 12.6 0L9.40001 0C9.2602 0.00041412 9.12297 0.0375892 9.00207 0.107795C8.88118 0.178001 8.78087 0.278768 8.71122 0.399984H6.60002C5.93726 0.399984 5.40002 0.937266 5.40002 1.59998V3.93637C4.94677 4.1349 4.53411 4.41547 4.18282 4.76395C4.17963 4.76714 4.1748 4.76794 4.17161 4.77155C4.16843 4.77516 4.16721 4.77956 4.16402 4.78275C3.07544 5.87494 2.71366 7.49662 3.23482 8.94797C3.04371 9.04946 2.88373 9.20091 2.77193 9.38619C2.66014 9.57146 2.60073 9.7836 2.60004 9.99998V22.8ZM20.2 9.99998V22.8C20.2 22.9061 20.1579 23.0078 20.0829 23.0828C20.0078 23.1578 19.9061 23.2 19.8 23.2H3.80004C3.69395 23.2 3.59222 23.1578 3.5172 23.0828C3.44219 23.0078 3.40005 22.9061 3.40005 22.8V9.99998C3.40005 9.8939 3.44219 9.79216 3.5172 9.71715C3.59222 9.64214 3.69395 9.6 3.80004 9.6H19.8C19.9061 9.6 20.0078 9.64214 20.0829 9.71715C20.1579 9.79216 20.2 9.8939 20.2 9.99998ZM4.20002 7.2H3.8276C3.89895 6.63115 4.1227 6.09215 4.47518 5.64L4.73716 5.90198C4.774 5.94047 4.81814 5.97121 4.86702 5.9924C4.91589 6.01359 4.96851 6.02481 5.02177 6.02539C5.07504 6.02598 5.12789 6.01592 5.17722 5.9958C5.22654 5.97568 5.27135 5.94592 5.30902 5.90825C5.34669 5.87058 5.37646 5.82577 5.39657 5.77644C5.41669 5.72712 5.42675 5.67427 5.42616 5.621C5.42558 5.56774 5.41436 5.51512 5.39317 5.46625C5.37198 5.41737 5.34124 5.37322 5.30276 5.33639L5.04077 5.07441C5.49278 4.72233 6.03148 4.49887 6.59997 4.42763V4.80005C6.59997 4.90613 6.64212 5.00787 6.71713 5.08288C6.79214 5.15789 6.89388 5.20003 6.99996 5.20003C7.10604 5.20003 7.20778 5.15789 7.28279 5.08288C7.3578 5.00787 7.39994 4.90613 7.39994 4.80005V4.42763C7.96879 4.49898 8.50779 4.72273 8.95994 5.0752L8.69796 5.33719C8.65947 5.37402 8.62873 5.41817 8.60754 5.46704C8.58635 5.51592 8.57513 5.56853 8.57455 5.6218C8.57397 5.67507 8.58403 5.72791 8.60414 5.77724C8.62426 5.82657 8.65402 5.87138 8.69169 5.90905C8.72936 5.94672 8.77417 5.97648 8.8235 5.9966C8.87282 6.01671 8.92567 6.02677 8.97894 6.02619C9.03221 6.02561 9.08482 6.01439 9.1337 5.9932C9.18257 5.97201 9.22672 5.94127 9.26355 5.90278L9.52554 5.6408C9.87761 6.0928 10.1011 6.6315 10.1723 7.2H9.7999C9.69381 7.2 9.59208 7.24214 9.51706 7.31715C9.44205 7.39216 9.39991 7.4939 9.39991 7.59998C9.39991 7.70607 9.44205 7.8078 9.51706 7.88282C9.59208 7.95783 9.69381 7.99997 9.7999 7.99997H10.1731C10.1373 8.27471 10.0659 8.54363 9.96072 8.79998H4.04004C3.9349 8.54363 3.86351 8.27471 3.82765 7.99997H4.20002C4.3061 7.99997 4.40784 7.95783 4.48285 7.88282C4.55786 7.8078 4.60001 7.70607 4.60001 7.59998C4.60001 7.4939 4.55786 7.39216 4.48285 7.31715C4.40784 7.24214 4.3061 7.2 4.20002 7.2ZM17.5788 8.79998H16.7512L17.2628 6.55678L18.048 6.732L17.5788 8.79998ZM17.15 1.61002L20.2872 2.31441C20.3907 2.33752 20.4808 2.40077 20.5376 2.49025C20.5945 2.57972 20.6135 2.68811 20.5904 2.79159L19.2252 8.79998H18.4001L18.8289 6.90877C18.852 6.80617 18.8546 6.70003 18.8366 6.59642C18.8187 6.49281 18.7804 6.39375 18.7242 6.30492C18.6679 6.21609 18.5946 6.13924 18.5086 6.07874C18.4226 6.01825 18.3255 5.97531 18.2229 5.95237L17.4401 5.77598C17.0084 5.67811 16.5789 5.94816 16.4801 6.37959L15.9301 8.79998H15.1013L16.6668 1.91077C16.6788 1.85928 16.7008 1.81066 16.7316 1.76767C16.7623 1.72469 16.8012 1.68819 16.8461 1.66026C16.891 1.63233 16.9409 1.61352 16.9931 1.6049C17.0452 1.59628 17.0986 1.59801 17.15 1.61002ZM15.8 1.59998V2.11477L15 5.6348V2.79998C15 2.35814 14.6418 1.99997 14.2 1.99997H13.4V1.2H15.4C15.5061 1.2 15.6078 1.24214 15.6829 1.31715C15.7579 1.39216 15.8 1.4939 15.8 1.59998ZM9.40001 0.800016H12.6V2.4H9.40001V0.800016ZM12.6 3.20002C12.7398 3.1996 12.8771 3.16243 12.998 3.09222C13.1188 3.02202 13.2192 2.92125 13.2888 2.80003H14.2V8.80003H10.8092C11.2655 7.3845 10.8896 5.83261 9.83599 4.78284C9.8328 4.77966 9.83201 4.77483 9.8284 4.77164C9.82479 4.76845 9.82038 4.76723 9.81719 4.76405C9.26503 4.21354 8.56379 3.83671 7.79997 3.68006V2.79998H8.71118C8.78083 2.9212 8.88113 3.02197 9.00203 3.09217C9.12292 3.16238 9.26016 3.19955 9.39996 3.19997L12.6 3.20002ZM6.20004 1.59998C6.20004 1.4939 6.24218 1.39216 6.31719 1.31715C6.3922 1.24214 6.49394 1.2 6.60002 1.2H8.60004V2.00002H7.80002C7.35818 2.00002 7.00001 2.35819 7.00001 2.80003V3.6C6.73132 3.59967 6.46329 3.62648 6.19999 3.68002L6.20004 1.59998Z" fill="black"/>
<path d="M15.8 10.3998H7.80001C6.91637 10.3998 6.20003 11.1161 6.20003 11.9998C6.20003 12.8834 6.91637 13.5998 7.80001 13.5998H15.8C16.6837 13.5998 17.4 12.8834 17.4 11.9998C17.4 11.1161 16.6837 10.3998 15.8 10.3998ZM15.8 12.7998H7.80001C7.35817 12.7998 7 12.4416 7 11.9998C7 11.5579 7.35817 11.1998 7.80001 11.1998H15.8C16.2419 11.1998 16.6 11.5579 16.6 11.9998C16.6 12.4416 16.2418 12.7998 15.8 12.7998ZM7.40003 18.7998H5.40001C4.73729 18.7998 4.20001 19.3371 4.20001 19.9998V21.1998C4.20001 21.8625 4.73729 22.3998 5.40001 22.3998H7.40003C8.06275 22.3998 8.60003 21.8625 8.60003 21.1998V19.9998C8.60003 19.337 8.06275 18.7998 7.40003 18.7998ZM7.80001 21.1998C7.80001 21.3059 7.75787 21.4076 7.68286 21.4826C7.60785 21.5576 7.50611 21.5998 7.40003 21.5998H5.40001C5.29393 21.5998 5.19219 21.5576 5.11718 21.4826C5.04217 21.4076 5.00003 21.3059 5.00003 21.1998V19.9998C5.00003 19.8937 5.04217 19.792 5.11718 19.717C5.19219 19.642 5.29393 19.5998 5.40001 19.5998H7.40003C7.50611 19.5998 7.60785 19.642 7.68286 19.717C7.75787 19.792 7.80001 19.8937 7.80001 19.9998V21.1998ZM15.2828 18.917C15.2078 18.842 15.1061 18.7999 15 18.7999C14.894 18.7999 14.7922 18.842 14.7172 18.917L13.9172 19.717C13.8443 19.7924 13.804 19.8935 13.8049 19.9984C13.8058 20.1032 13.8479 20.2036 13.9221 20.2777C13.9962 20.3519 14.0966 20.394 14.2014 20.3949C14.3063 20.3958 14.4074 20.3555 14.4828 20.2826L14.6 20.1654V21.9998C14.6 22.1059 14.6421 22.2076 14.7171 22.2826C14.7921 22.3577 14.8939 22.3998 15 22.3998C15.106 22.3998 15.2078 22.3577 15.2828 22.2826C15.3578 22.2076 15.4 22.1059 15.4 21.9998V20.1654L15.5171 20.2826C15.5926 20.3555 15.6936 20.3958 15.7985 20.3949C15.9034 20.394 16.0037 20.3519 16.0779 20.2777C16.152 20.2036 16.1941 20.1032 16.195 19.9984C16.1959 19.8935 16.1556 19.7924 16.0827 19.717L15.2828 18.917ZM18.4828 18.917C18.4078 18.842 18.3061 18.7999 18.2 18.7999C18.094 18.7999 17.9922 18.842 17.9172 18.917L17.1172 19.717C17.0444 19.7924 17.004 19.8935 17.0049 19.9984C17.0059 20.1032 17.0479 20.2036 17.1221 20.2777C17.1962 20.3519 17.2966 20.394 17.4015 20.3949C17.5063 20.3958 17.6074 20.3555 17.6828 20.2826L17.8 20.1654V21.9998C17.8 22.1059 17.8421 22.2076 17.9171 22.2826C17.9922 22.3577 18.0939 22.3998 18.2 22.3998C18.3061 22.3998 18.4078 22.3577 18.4828 22.2826C18.5578 22.2076 18.6 22.1059 18.6 21.9998V20.1654L18.7172 20.2826C18.7926 20.3555 18.8936 20.3958 18.9985 20.3949C19.1034 20.394 19.2037 20.3519 19.2779 20.2777C19.352 20.2036 19.3941 20.1032 19.395 19.9984C19.3959 19.8935 19.3556 19.7924 19.2827 19.717L18.4828 18.917ZM11 4.79978H13C13.1061 4.79978 13.2079 4.75764 13.2829 4.68263C13.3579 4.60762 13.4 4.50588 13.4 4.3998C13.4 4.29372 13.3579 4.19198 13.2829 4.11697C13.2079 4.04196 13.1061 3.99981 13 3.99981H11C10.8939 3.99981 10.7922 4.04196 10.7172 4.11697C10.6422 4.19198 10.6 4.29372 10.6 4.3998C10.6 4.50588 10.6422 4.60762 10.7172 4.68263C10.7922 4.75764 10.8939 4.79978 11 4.79978ZM13 5.5998H11.8C11.6939 5.5998 11.5922 5.64194 11.5172 5.71695C11.4422 5.79196 11.4 5.8937 11.4 5.99978C11.4 6.10587 11.4422 6.2076 11.5172 6.28261C11.5922 6.35763 11.6939 6.39977 11.8 6.39977H13C13.0525 6.39977 13.1045 6.38942 13.1531 6.36932C13.2016 6.34922 13.2457 6.31976 13.2828 6.28261C13.32 6.24547 13.3494 6.20138 13.3695 6.15285C13.3896 6.10432 13.4 6.05231 13.4 5.99978C13.4 5.94725 13.3896 5.89524 13.3695 5.84671C13.3494 5.79818 13.32 5.75408 13.2828 5.71694C13.2457 5.67979 13.2016 5.65033 13.1531 5.63023C13.1045 5.61013 13.0525 5.59979 13 5.5998ZM13 7.19978H12.2C12.0939 7.19978 11.9922 7.24192 11.9171 7.31694C11.8421 7.39195 11.8 7.49369 11.8 7.59977C11.8 7.70585 11.8421 7.80759 11.9171 7.8826C11.9922 7.95761 12.0939 7.99975 12.2 7.99975H13C13.1061 7.99975 13.2078 7.95761 13.2828 7.8826C13.3578 7.80759 13.4 7.70585 13.4 7.59977C13.4 7.49369 13.3578 7.39195 13.2828 7.31694C13.2078 7.24192 13.1061 7.19978 13 7.19978ZM18.0092 5.0838C18.6568 5.22972 19.3005 4.82472 19.4492 4.1778C19.4839 4.0238 19.4879 3.86447 19.4609 3.70892C19.434 3.55338 19.3766 3.40469 19.292 3.27137C19.2075 3.13805 19.0975 3.02271 18.9683 2.93198C18.8391 2.84125 18.6933 2.7769 18.5392 2.74263C17.8915 2.5967 17.2478 3.00194 17.0992 3.64905C17.0645 3.80305 17.0605 3.96238 17.0875 4.11792C17.1144 4.27347 17.1718 4.42216 17.2564 4.55548C17.3409 4.6888 17.4509 4.80413 17.5801 4.89486C17.7093 4.98559 17.8551 5.04994 18.0092 5.08422V5.0838ZM17.88 3.82497C17.8984 3.74742 17.9393 3.67702 17.9975 3.62256C18.0557 3.5681 18.1287 3.53201 18.2073 3.51877C18.2859 3.50554 18.3667 3.51576 18.4395 3.54816C18.5123 3.58056 18.574 3.6337 18.6168 3.70094C18.6449 3.74502 18.6639 3.79425 18.6727 3.84575C18.6816 3.89726 18.6801 3.95001 18.6684 4.00094C18.6501 4.07859 18.6093 4.14911 18.5511 4.20367C18.4929 4.25823 18.4199 4.2944 18.3412 4.30765C18.2625 4.32089 18.1817 4.31062 18.1088 4.27812C18.036 4.24563 17.9743 4.19235 17.9316 4.12497C17.9037 4.08081 17.8848 4.03159 17.8759 3.98011C17.8671 3.92863 17.8685 3.87591 17.88 3.82497ZM7 7.9998H7.80001C7.90609 7.9998 8.00783 7.95766 8.08284 7.88265C8.15786 7.80763 8.2 7.7059 8.2 7.59981C8.2 7.49373 8.15786 7.39199 8.08284 7.31698C8.00783 7.24197 7.90609 7.19983 7.80001 7.19983H7.40003V6.39981C7.40003 6.29373 7.35789 6.19199 7.28288 6.11698C7.20786 6.04197 7.10613 5.99983 7.00004 5.99983C6.89396 5.99983 6.79222 6.04197 6.71721 6.11698C6.6422 6.19199 6.60006 6.29373 6.60006 6.39981V7.59981C6.60005 7.65234 6.61039 7.70435 6.63049 7.75288C6.65059 7.80141 6.68004 7.8455 6.71718 7.88264C6.75432 7.91979 6.79841 7.94925 6.84694 7.96935C6.89546 7.98945 6.94747 7.9998 7 7.9998Z" fill="black"/>
</g>
<defs>
<clipPath id="clip0_3601_2496">
<rect width="24" height="24" fill="white"/>
</clipPath>
</defs>
</svg>
