<svg width="25" height="24" viewBox="0 0 25 24" fill="none" xmlns="http://www.w3.org/2000/svg">
<path d="M23.7132 14.2696L22.0514 10.2628C21.9374 9.98634 21.7437 9.75005 21.495 9.58397C21.2464 9.41788 20.9539 9.32951 20.6549 9.33008H17.5191C17.403 9.33008 17.2907 9.34598 17.1828 9.37313V7.39658C17.1828 7.25734 17.1275 7.12381 17.0291 7.02535C16.9306 6.92689 16.7971 6.87158 16.6578 6.87158H14.7995C14.811 7.01783 14.8185 7.16513 14.8185 7.31438C14.8185 7.51958 14.8067 7.72208 14.7851 7.92158H16.1327V18.5612H8.55228C8.17608 17.7575 7.36188 17.1982 6.41748 17.1982C5.47308 17.1982 4.65873 17.7575 4.28253 18.5612H2.29683V7.92158H3.64428C3.62221 7.71993 3.61105 7.51724 3.61083 7.31438C3.61083 7.16528 3.61848 7.01783 3.62988 6.87158H1.77183C1.63259 6.87158 1.49905 6.92689 1.4006 7.02535C1.30214 7.12381 1.24683 7.25734 1.24683 7.39658V19.0862C1.24683 19.2255 1.30214 19.359 1.4006 19.4575C1.49905 19.5559 1.63259 19.6112 1.77183 19.6112H4.06203C4.09158 20.8861 5.13573 21.9146 6.41748 21.9146C7.69923 21.9146 8.74338 20.8861 8.77293 19.6112H17.2746C17.3042 20.8861 18.3483 21.9146 19.6301 21.9146C20.9118 21.9146 21.956 20.8861 21.9855 19.6112H22.2414C23.075 19.6112 23.7531 18.9331 23.7531 18.0995V14.4707C23.7531 14.4017 23.7395 14.3333 23.7132 14.2696ZM6.41733 20.8648C5.69598 20.8648 5.10903 20.278 5.10903 19.5565C5.10903 18.835 5.69598 18.2482 6.41733 18.2482C7.13868 18.2482 7.72548 18.835 7.72548 19.5565C7.72548 20.278 7.13883 20.8648 6.41733 20.8648ZM22.5042 14.0957H19.0761V12.4681C19.0764 12.2248 19.1731 11.9915 19.3451 11.8195C19.5171 11.6474 19.7504 11.5507 19.9937 11.5504H21.4484L22.5042 14.0957ZM19.6301 20.8648C18.9086 20.8648 18.3218 20.278 18.3218 19.5565C18.3218 18.835 18.9086 18.2482 19.6301 18.2482C20.3516 18.2482 20.9384 18.835 20.9384 19.5565C20.9384 20.278 20.3516 20.8648 19.6301 20.8648ZM22.7031 16.8677H22.4003C22.3547 16.8677 22.3111 16.8495 22.2789 16.8173C22.2467 16.7851 22.2286 16.7414 22.2285 16.6958V16.2176C22.2285 16.1228 22.3056 16.0457 22.4003 16.0457H22.7031V16.8677ZM22.7031 15.2959H22.4003C22.1559 15.2962 21.9216 15.3934 21.7488 15.5663C21.576 15.7391 21.4788 15.9734 21.4785 16.2178V16.696C21.4788 16.9404 21.576 17.1747 21.7488 17.3475C21.9216 17.5203 22.1559 17.6176 22.4003 17.6179H22.7031V18.0997C22.703 18.2221 22.6543 18.3394 22.5677 18.426C22.4812 18.5125 22.3638 18.5612 22.2414 18.5614H21.765C21.3888 17.7577 20.5745 17.1983 19.6301 17.1983C18.6857 17.1983 17.8713 17.7577 17.4951 18.5614H17.1827V10.7164C17.1828 10.6272 17.2183 10.5418 17.2813 10.4787C17.3443 10.4157 17.4298 10.3802 17.519 10.3801H20.6547C20.8421 10.3801 21.0095 10.4918 21.0812 10.6649L21.1374 10.8004H19.9937C19.0742 10.8004 18.3261 11.5486 18.3261 12.4681V14.4707C18.3261 14.5702 18.3656 14.6656 18.436 14.7359C18.5063 14.8062 18.6017 14.8457 18.7011 14.8457H22.7031V15.2959Z" fill="black"/>
<path d="M19.6301 19.1004C19.5091 19.1005 19.3932 19.1486 19.3077 19.2341C19.2222 19.3197 19.1741 19.4356 19.1739 19.5566C19.174 19.6775 19.2221 19.7935 19.3076 19.8791C19.3931 19.9646 19.5091 20.0127 19.6301 20.0128C19.7511 20.0127 19.8671 19.9646 19.9526 19.8791C20.0382 19.7935 20.0863 19.6775 20.0864 19.5566C20.0863 19.4356 20.0382 19.3196 19.9526 19.2341C19.8671 19.1486 19.7511 19.1005 19.6301 19.1004ZM18.3263 15.6709C18.3263 15.7704 18.3658 15.8658 18.4361 15.9361C18.5065 16.0064 18.6018 16.0459 18.7013 16.0459H19.6301C19.7295 16.0459 19.8249 16.0064 19.8953 15.9361C19.9656 15.8658 20.0051 15.7704 20.0051 15.6709C20.0051 15.5715 19.9656 15.4761 19.8953 15.4058C19.8249 15.3355 19.7295 15.2959 19.6301 15.2959H18.7013C18.6018 15.2959 18.5065 15.3355 18.4361 15.4058C18.3658 15.4761 18.3263 15.5715 18.3263 15.6709ZM6.41734 19.1004C6.29638 19.1005 6.18041 19.1486 6.09487 19.2341C6.00933 19.3196 5.9612 19.4356 5.96104 19.5566C5.96104 19.8083 6.16564 20.0128 6.41734 20.0128C6.66904 20.0128 6.87364 19.8083 6.87364 19.5566C6.87352 19.4356 6.8254 19.3196 6.73985 19.2341C6.6543 19.1486 6.53831 19.1005 6.41734 19.1004ZM9.21469 12.5434C12.098 12.5434 14.4435 10.1976 14.4435 7.31445C14.4435 4.4313 12.098 2.08545 9.21469 2.08545C6.33139 2.08545 3.98584 4.43115 3.98584 7.31445C3.98584 10.1978 6.33154 12.5434 9.21469 12.5434ZM9.21469 3.13545C11.519 3.13545 13.3935 5.01015 13.3935 7.3143C13.3935 9.61845 11.5188 11.4933 9.21469 11.4933C6.91054 11.4933 5.03584 9.6186 5.03584 7.3143C5.03584 5.01 6.91054 3.13545 9.21469 3.13545Z" fill="black"/>
<path d="M6.83262 7.9202L8.42412 9.19805C8.51718 9.27292 8.63303 9.31373 8.75247 9.3137C8.89617 9.3137 9.03897 9.25505 9.14217 9.14075L11.6577 6.3572C11.705 6.30624 11.7417 6.24639 11.7656 6.18113C11.7896 6.11587 11.8004 6.04649 11.7973 5.97703C11.7943 5.90757 11.7775 5.83941 11.7478 5.77651C11.7182 5.7136 11.6764 5.65721 11.6248 5.61059C11.5733 5.56397 11.5129 5.52807 11.4474 5.50495C11.3818 5.48184 11.3123 5.47198 11.2429 5.47595C11.1734 5.47992 11.1055 5.49764 11.043 5.52808C10.9805 5.55851 10.9247 5.60106 10.8787 5.65325L8.69517 8.06915L7.48992 7.1015C7.38115 7.01648 7.24327 6.97773 7.10614 6.99363C6.969 7.00953 6.84365 7.0788 6.75722 7.18646C6.67079 7.29411 6.63024 7.43147 6.64435 7.5688C6.65847 7.70613 6.7261 7.83238 6.83262 7.9202Z" fill="black"/>
</svg>
