<svg width="25" height="15" viewBox="0 0 25 15" fill="none" xmlns="http://www.w3.org/2000/svg">
<path d="M14.375 12.75H7.625C7.52554 12.75 7.43016 12.7105 7.35983 12.6402C7.28951 12.5698 7.25 12.4745 7.25 12.375C7.25 12.2755 7.28951 12.1802 7.35983 12.1098C7.43016 12.0395 7.52554 12 7.625 12H14V8.25H1.25V11.625C1.25 11.832 1.41838 12 1.625 12H3.125C3.22446 12 3.31984 12.0395 3.39016 12.1098C3.46049 12.1802 3.5 12.2755 3.5 12.375C3.5 12.4745 3.46049 12.5698 3.39016 12.6402C3.31984 12.7105 3.22446 12.75 3.125 12.75H1.625C1.00475 12.75 0.5 12.2453 0.5 11.625V7.875C0.5 7.77554 0.539509 7.68016 0.609835 7.60983C0.680161 7.53951 0.775544 7.5 0.875 7.5H14.375C14.4745 7.5 14.5698 7.53951 14.6402 7.60983C14.7105 7.68016 14.75 7.77554 14.75 7.875V12.375C14.75 12.4745 14.7105 12.5698 14.6402 12.6402C14.5698 12.7105 14.4745 12.75 14.375 12.75Z" fill="black"/>
<path d="M23.375 12.75H21.875C21.7755 12.75 21.6802 12.7105 21.6098 12.6402C21.5395 12.5698 21.5 12.4745 21.5 12.375C21.5 12.2755 21.5395 12.1802 21.6098 12.1098C21.6802 12.0395 21.7755 12 21.875 12H23.375C23.5816 12 23.75 11.832 23.75 11.625V9.045C23.7496 8.79407 23.6655 8.55044 23.511 8.35276C23.3564 8.15507 23.1403 8.01464 22.8969 7.95375L21.0342 7.48913C20.9832 7.47636 20.9354 7.453 20.894 7.42057C20.8526 7.38814 20.8185 7.34736 20.7939 7.30088L19.1289 4.16625C18.8184 3.447 18.1411 3.00037 17.39 3.00037H14.75V12.0004H17.375C17.4745 12.0004 17.5698 12.0399 17.6402 12.1102C17.7105 12.1805 17.75 12.2759 17.75 12.3754C17.75 12.4748 17.7105 12.5702 17.6402 12.6405C17.5698 12.7109 17.4745 12.7504 17.375 12.7504H14.375C14.2755 12.7504 14.1802 12.7109 14.1098 12.6405C14.0395 12.5702 14 12.4748 14 12.3754V2.625C14 2.52554 14.0395 2.43016 14.1098 2.35983C14.1802 2.28951 14.2755 2.25 14.375 2.25H17.39C17.9041 2.24993 18.4068 2.40073 18.836 2.6837C19.2651 2.96667 19.6018 3.36937 19.8043 3.84188L21.3774 6.80175L23.0795 7.22625C23.4851 7.32786 23.8452 7.56203 24.1025 7.8916C24.3598 8.22116 24.4997 8.62724 24.5 9.04537V11.6254C24.5 12.2456 23.9952 12.75 23.375 12.75Z" fill="black"/>
<path d="M21.125 7.5H15.875C15.7755 7.5 15.6802 7.46049 15.6098 7.39017C15.5395 7.31984 15.5 7.22446 15.5 7.125V2.625C15.5 2.52554 15.5395 2.43016 15.6098 2.35983C15.6802 2.28951 15.7755 2.25 15.875 2.25C15.9745 2.25 16.0698 2.28951 16.1402 2.35983C16.2105 2.43016 16.25 2.52554 16.25 2.625V6.75H21.125C21.2245 6.75 21.3198 6.78951 21.3902 6.85983C21.4605 6.93016 21.5 7.02554 21.5 7.125C21.5 7.22446 21.4605 7.31984 21.3902 7.39017C21.3198 7.46049 21.2245 7.5 21.125 7.5ZM6.875 8.25H2.375C2.27554 8.25 2.18016 8.21049 2.10984 8.14017C2.03951 8.06984 2 7.97446 2 7.875V4.125C2 4.02554 2.03951 3.93016 2.10984 3.85983C2.18016 3.78951 2.27554 3.75 2.375 3.75H6.875C6.97446 3.75 7.06984 3.78951 7.14017 3.85983C7.21049 3.93016 7.25 4.02554 7.25 4.125V7.875C7.25 7.97446 7.21049 8.06984 7.14017 8.14017C7.06984 8.21049 6.97446 8.25 6.875 8.25ZM2.75 7.5H6.5V4.5H2.75V7.5ZM14.375 8.25H12.875C12.7755 8.25 12.6802 8.21049 12.6098 8.14017C12.5395 8.06984 12.5 7.97446 12.5 7.875V1.875C12.5 1.77554 12.5395 1.68016 12.6098 1.60983C12.6802 1.53951 12.7755 1.5 12.875 1.5H14.375C14.4745 1.5 14.5698 1.53951 14.6402 1.60983C14.7105 1.68016 14.75 1.77554 14.75 1.875V7.875C14.75 7.97446 14.7105 8.06984 14.6402 8.14017C14.5698 8.21049 14.4745 8.25 14.375 8.25ZM13.25 7.5H14V2.25H13.25V7.5Z" fill="black"/>
<path d="M4.625 6C4.52554 6 4.43016 5.96049 4.35984 5.89017C4.28951 5.81984 4.25 5.72446 4.25 5.625V4.125C4.25 4.02554 4.28951 3.93016 4.35984 3.85983C4.43016 3.78951 4.52554 3.75 4.625 3.75C4.72446 3.75 4.81984 3.78951 4.89016 3.85983C4.96049 3.93016 5 4.02554 5 4.125V5.625C5 5.72446 4.96049 5.81984 4.89016 5.89017C4.81984 5.96049 4.72446 6 4.625 6ZM11.375 8.25H6.875C6.77554 8.25 6.68016 8.21049 6.60983 8.14017C6.53951 8.06984 6.5 7.97446 6.5 7.875V4.125C6.5 4.02554 6.53951 3.93016 6.60983 3.85983C6.68016 3.78951 6.77554 3.75 6.875 3.75H11.375C11.4745 3.75 11.5698 3.78951 11.6402 3.85983C11.7105 3.93016 11.75 4.02554 11.75 4.125V7.875C11.75 7.97446 11.7105 8.06984 11.6402 8.14017C11.5698 8.21049 11.4745 8.25 11.375 8.25ZM7.25 7.5H11V4.5H7.25V7.5Z" fill="black"/>
<path d="M9.125 6C9.02554 6 8.93016 5.96049 8.85983 5.89017C8.78951 5.81984 8.75 5.72446 8.75 5.625V4.125C8.75 4.02554 8.78951 3.93016 8.85983 3.85983C8.93016 3.78951 9.02554 3.75 9.125 3.75C9.22446 3.75 9.31984 3.78951 9.39017 3.85983C9.46049 3.93016 9.5 4.02554 9.5 4.125V5.625C9.5 5.72446 9.46049 5.81984 9.39017 5.89017C9.31984 5.96049 9.22446 6 9.125 6Z" fill="black"/>
<path d="M8.75 4.5H4.25C4.15054 4.5 4.05516 4.46049 3.98484 4.39017C3.91451 4.31984 3.875 4.22446 3.875 4.125V0.375C3.875 0.275544 3.91451 0.180161 3.98484 0.109835C4.05516 0.0395085 4.15054 0 4.25 0H8.75C8.84946 0 8.94484 0.0395085 9.01517 0.109835C9.08549 0.180161 9.125 0.275544 9.125 0.375V4.125C9.125 4.22446 9.08549 4.31984 9.01517 4.39017C8.94484 4.46049 8.84946 4.5 8.75 4.5ZM4.625 3.75H8.375V0.75H4.625V3.75Z" fill="black"/>
<path d="M6.5 2.25C6.40054 2.25 6.30516 2.21049 6.23484 2.14017C6.16451 2.06984 6.125 1.97446 6.125 1.875V0.375C6.125 0.275544 6.16451 0.180161 6.23484 0.109835C6.30516 0.0395085 6.40054 0 6.5 0C6.59946 0 6.69484 0.0395085 6.76517 0.109835C6.83549 0.180161 6.875 0.275544 6.875 0.375V1.875C6.875 1.97446 6.83549 2.06984 6.76517 2.14017C6.69484 2.21049 6.59946 2.25 6.5 2.25ZM5.375 15C3.9275 15 2.75 13.8221 2.75 12.375C2.75 10.9279 3.9275 9.75 5.375 9.75C6.8225 9.75 8 10.9279 8 12.375C8 13.8221 6.8225 15 5.375 15ZM5.375 10.5C4.34113 10.5 3.5 11.3411 3.5 12.375C3.5 13.4089 4.34113 14.25 5.375 14.25C6.40887 14.25 7.25 13.4089 7.25 12.375C7.25 11.3411 6.40887 10.5 5.375 10.5Z" fill="black"/>
<path d="M5.375 13.5C4.75475 13.5 4.25 12.9952 4.25 12.375C4.25 11.7548 4.75475 11.25 5.375 11.25C5.99525 11.25 6.5 11.7548 6.5 12.375C6.5 12.9952 5.99525 13.5 5.375 13.5ZM5.375 12C5.27845 12.0043 5.18728 12.0457 5.12048 12.1156C5.05368 12.1854 5.0164 12.2783 5.0164 12.375C5.0164 12.4717 5.05368 12.5646 5.12048 12.6344C5.18728 12.7043 5.27845 12.7457 5.375 12.75C5.47155 12.7457 5.56272 12.7043 5.62952 12.6344C5.69632 12.5646 5.7336 12.4717 5.7336 12.375C5.7336 12.2783 5.69632 12.1854 5.62952 12.1156C5.56272 12.0457 5.47155 12.0043 5.375 12ZM19.625 15C18.1775 15 17 13.8221 17 12.375C17 10.9279 18.1775 9.75 19.625 9.75C21.0725 9.75 22.25 10.9279 22.25 12.375C22.25 13.8221 21.0725 15 19.625 15ZM19.625 10.5C18.5911 10.5 17.75 11.3411 17.75 12.375C17.75 13.4089 18.5911 14.25 19.625 14.25C20.6589 14.25 21.5 13.4089 21.5 12.375C21.5 11.3411 20.6589 10.5 19.625 10.5Z" fill="black"/>
<path d="M19.625 13.5C19.0048 13.5 18.5 12.9953 18.5 12.375C18.5 11.7548 19.0048 11.25 19.625 11.25C20.2452 11.25 20.75 11.7548 20.75 12.375C20.75 12.9953 20.2452 13.5 19.625 13.5ZM19.625 12C19.5284 12.0044 19.4373 12.0458 19.3705 12.1156C19.3037 12.1855 19.2664 12.2784 19.2664 12.375C19.2664 12.4717 19.3037 12.5646 19.3705 12.6345C19.4373 12.7043 19.5284 12.7457 19.625 12.75C19.7216 12.7457 19.8127 12.7043 19.8795 12.6345C19.9463 12.5646 19.9836 12.4717 19.9836 12.375C19.9836 12.2784 19.9463 12.1855 19.8795 12.1156C19.8127 12.0458 19.7216 12.0044 19.625 12ZM24.125 10.125H22.625C22.0048 10.125 21.5 9.62029 21.5 9.00004C21.5 8.69591 21.6189 8.41316 21.8345 8.20279C21.9375 8.09792 22.0606 8.01486 22.1964 7.95855C22.3322 7.90224 22.478 7.87384 22.625 7.87504H23.8925C23.992 7.87504 24.0873 7.91454 24.1577 7.98487C24.228 8.0552 24.2675 8.15058 24.2675 8.25004C24.2675 8.34949 24.228 8.44488 24.1577 8.5152C24.0873 8.58553 23.992 8.62504 23.8925 8.62504H22.625C22.5766 8.62467 22.5287 8.63401 22.484 8.65249C22.4393 8.67098 22.3987 8.69824 22.3647 8.73266C22.3284 8.76704 22.2995 8.8085 22.2797 8.85448C22.26 8.90047 22.2499 8.95 22.25 9.00004C22.25 9.20704 22.4184 9.37504 22.625 9.37504H24.125C24.2245 9.37504 24.3198 9.41454 24.3902 9.48487C24.4605 9.5552 24.5 9.65058 24.5 9.75004C24.5 9.84949 24.4605 9.94488 24.3902 10.0152C24.3198 10.0855 24.2245 10.125 24.125 10.125Z" fill="black"/>
</svg>
