<svg width="25" height="24" viewBox="0 0 25 24" fill="none" xmlns="http://www.w3.org/2000/svg">
<g clip-path="url(#clip0_2857_6784)">
<path fill-rule="evenodd" clip-rule="evenodd" d="M3.56755 0C1.87709 0 0.5 1.377 0.5 3.0675V20.9325C0.5 22.6229 1.87709 24 3.56755 24H21.4325C23.1229 24 24.5 22.6229 24.5 20.9325V3.06745C24.5 1.377 23.1229 0 21.4325 0H3.56755ZM3.56755 1.03125H21.4325C22.5695 1.03125 23.4688 1.93045 23.4688 3.0675V20.9325C23.4688 22.0695 22.5695 22.9688 21.4325 22.9688H3.5675C2.43055 22.9688 1.53125 22.0695 1.53125 20.9325V3.06745C1.53125 1.93045 2.43055 1.03125 3.56755 1.03125Z" fill="white"/>
<path fill-rule="evenodd" clip-rule="evenodd" d="M4.84383 16.5887C3.86039 16.5887 3.05212 17.3969 3.05212 18.3803C3.05212 19.3638 3.86044 20.172 4.84383 20.172C5.82726 20.172 6.63553 19.3638 6.63553 18.3803C6.63553 17.3969 5.82722 16.5887 4.84383 16.5887ZM4.84383 17.6199C5.26992 17.6199 5.60428 17.9542 5.60428 18.3803C5.60428 18.8064 5.26992 19.1408 4.84383 19.1408C4.41773 19.1408 4.08337 18.8064 4.08337 18.3803C4.08337 17.9542 4.41773 17.6199 4.84383 17.6199ZM4.84383 10.2081C3.86039 10.2081 3.05212 11.0165 3.05212 11.9998C3.05212 12.9833 3.86044 13.7915 4.84383 13.7915C5.82726 13.7915 6.63553 12.9832 6.63553 11.9998C6.63553 11.0164 5.82722 10.2081 4.84383 10.2081ZM4.84383 11.2394C5.26992 11.2394 5.60428 11.5738 5.60428 11.9998C5.60428 12.4259 5.26992 12.7603 4.84383 12.7603C4.41773 12.7603 4.08337 12.4259 4.08337 11.9998C4.08337 11.5738 4.41773 11.2394 4.84383 11.2394ZM4.84383 3.82812C3.86039 3.82812 3.05212 4.63639 3.05212 5.61983C3.05212 6.60322 3.86044 7.41148 4.84383 7.41148C5.82726 7.41148 6.63553 6.60322 6.63553 5.61983C6.63553 4.63639 5.82722 3.82812 4.84383 3.82812ZM4.84383 4.85938C5.26992 4.85938 5.60428 5.19373 5.60428 5.61983C5.60428 6.04592 5.26992 6.38023 4.84383 6.38023C4.41773 6.38023 4.08337 6.04588 4.08337 5.61983C4.08337 5.19373 4.41773 4.85938 4.84383 4.85938ZM9.948 16.5887C8.96433 16.5887 8.15639 17.3966 8.15639 18.3802V18.3804C8.15639 19.364 8.96433 20.172 9.94795 20.172H20.1566C21.1402 20.172 21.9481 19.364 21.9481 18.3805V18.3802C21.9481 17.3966 21.1402 16.5887 20.1566 16.5887H9.948ZM9.948 17.6199H20.1566C20.5867 17.6199 20.9169 17.9501 20.9169 18.3802V18.3804C20.9169 18.8106 20.5867 19.1408 20.1566 19.1408H9.948C9.51783 19.1408 9.18764 18.8106 9.18764 18.3805V18.3802C9.18764 17.9501 9.51783 17.6199 9.94795 17.6199H9.948ZM9.948 10.2081C8.96433 10.2081 8.15639 11.0162 8.15639 11.9998V11.9999C8.15639 12.9836 8.96433 13.7915 9.94795 13.7915H20.1565C21.1401 13.7915 21.9482 12.9836 21.9482 11.9999V11.9998C21.9482 11.0162 21.1401 10.2081 20.1565 10.2081H9.948ZM9.948 11.2394H20.1564C20.5867 11.2394 20.9169 11.5697 20.9169 11.9998V11.9999C20.9169 12.4301 20.5867 12.7603 20.1565 12.7603H9.948C9.51783 12.7603 9.18764 12.4301 9.18764 11.9999V11.9998C9.18764 11.5697 9.51783 11.2394 9.94795 11.2394H9.948ZM9.948 3.82812C8.96433 3.82812 8.15639 4.63606 8.15639 5.61969V5.61992C8.15639 6.60355 8.96433 7.41148 9.94795 7.41148H20.1566C21.1402 7.41148 21.9481 6.60355 21.9481 5.61992V5.61973C21.9481 4.63606 21.1402 3.82812 20.1566 3.82812H9.948ZM9.948 4.85938H20.1566C20.5867 4.85938 20.9169 5.18956 20.9169 5.61969V5.61992C20.9169 6.05005 20.5867 6.38023 20.1566 6.38023H9.948C9.51783 6.38023 9.18764 6.05005 9.18764 5.61992V5.61973C9.18764 5.18956 9.51783 4.85938 9.94795 4.85938H9.948Z" fill="white"/>
</g>
<defs>
<clipPath id="clip0_2857_6784">
<rect width="24" height="24" fill="white" transform="translate(0.5)"/>
</clipPath>
</defs>
</svg>
