<svg width="25" height="24" viewBox="0 0 25 24" fill="none" xmlns="http://www.w3.org/2000/svg">
<path d="M5.74998 8.0251C7.27998 8.0251 8.52498 6.7801 8.52498 5.2501C8.52498 3.7201 7.27998 2.4751 5.74998 2.4751C4.21998 2.4751 2.97498 3.7201 2.97498 5.2501C2.97498 6.7801 4.21998 8.0251 5.74998 8.0251ZM5.74998 3.9751C5.91751 3.9752 6.08338 4.00829 6.23813 4.0725C6.39287 4.1367 6.53345 4.23075 6.65185 4.34929C6.77024 4.46782 6.86413 4.60851 6.92815 4.76333C6.99217 4.91815 7.02507 5.08406 7.02498 5.2516C7.02488 5.41913 6.99178 5.58501 6.92758 5.73975C6.86337 5.89449 6.76932 6.03507 6.65079 6.15347C6.53225 6.27186 6.39156 6.36575 6.23674 6.42977C6.08192 6.4938 5.91601 6.5267 5.74848 6.5266C5.41013 6.5264 5.08571 6.3918 4.8466 6.15241C4.60749 5.91302 4.47328 5.58845 4.47348 5.2501C4.47367 4.91175 4.60827 4.58733 4.84766 4.34823C5.08705 4.10912 5.41163 3.9749 5.74998 3.9751ZM5.74998 21.5251C7.27998 21.5251 8.52498 20.2801 8.52498 18.7501C8.52498 17.2201 7.27998 15.9751 5.74998 15.9751C4.21998 15.9751 2.97498 17.2201 2.97498 18.7501C2.97498 20.2801 4.21998 21.5251 5.74998 21.5251ZM5.74998 17.4751C5.91751 17.4752 6.08338 17.5083 6.23813 17.5725C6.39287 17.6367 6.53345 17.7308 6.65185 17.8493C6.77024 17.9678 6.86413 18.1085 6.92815 18.2633C6.99217 18.4182 7.02507 18.5841 7.02498 18.7516C7.02488 18.9191 6.99178 19.085 6.92758 19.2397C6.86337 19.3945 6.76932 19.5351 6.65079 19.6535C6.53225 19.7719 6.39156 19.8658 6.23674 19.9298C6.08192 19.9938 5.91601 20.0267 5.74848 20.0266C5.41013 20.0264 5.08571 19.8918 4.8466 19.6524C4.60749 19.413 4.47328 19.0884 4.47348 18.7501C4.47367 18.4117 4.60827 18.0873 4.84766 17.8482C5.08705 17.6091 5.41163 17.4749 5.74998 17.4751ZM5.74998 14.7751C7.27998 14.7751 8.52498 13.5301 8.52498 12.0001C8.52498 10.4701 7.27998 9.2251 5.74998 9.2251C4.21998 9.2251 2.97498 10.4701 2.97498 12.0001C2.97498 13.5301 4.21998 14.7751 5.74998 14.7751ZM5.74998 10.7251C5.91751 10.7252 6.08338 10.7583 6.23813 10.8225C6.39287 10.8867 6.53345 10.9808 6.65185 11.0993C6.77024 11.2178 6.86413 11.3585 6.92815 11.5133C6.99217 11.6682 7.02507 11.8341 7.02498 12.0016C7.02488 12.1691 6.99178 12.335 6.92758 12.4897C6.86337 12.6445 6.76932 12.7851 6.65079 12.9035C6.53225 13.0219 6.39156 13.1158 6.23674 13.1798C6.08192 13.2438 5.91601 13.2767 5.74848 13.2766C5.41013 13.2764 5.08571 13.1418 4.8466 12.9024C4.60749 12.663 4.47328 12.3384 4.47348 12.0001C4.47367 11.6617 4.60827 11.3373 4.84766 11.0982C5.08705 10.8591 5.41163 10.7249 5.74998 10.7251ZM12.5 2.4751C10.97 2.4751 9.72498 3.7201 9.72498 5.2501C9.72498 6.7801 10.97 8.0251 12.5 8.0251C14.03 8.0251 15.275 6.7801 15.275 5.2501C15.275 3.7201 14.03 2.4751 12.5 2.4751ZM12.5 6.5251C12.3324 6.525 12.1666 6.4919 12.0118 6.4277C11.8571 6.3635 11.7165 6.26944 11.5981 6.15091C11.359 5.91152 11.2248 5.58695 11.225 5.2486C11.2252 4.91025 11.3598 4.58583 11.5992 4.34673C11.8386 4.10762 12.1631 3.9734 12.5015 3.9736C12.8398 3.9738 13.1642 4.1084 13.4033 4.34779C13.6425 4.58718 13.7767 4.91175 13.7765 5.2501C13.7763 5.58845 13.6417 5.91286 13.4023 6.15197C13.1629 6.39108 12.8383 6.5253 12.5 6.5251ZM12.5 15.9751C10.97 15.9751 9.72498 17.2201 9.72498 18.7501C9.72498 20.2801 10.97 21.5251 12.5 21.5251C14.03 21.5251 15.275 20.2801 15.275 18.7501C15.275 17.2201 14.03 15.9751 12.5 15.9751ZM12.5 20.0251C12.3324 20.025 12.1666 19.9919 12.0118 19.9277C11.8571 19.8635 11.7165 19.7694 11.5981 19.6509C11.4797 19.5324 11.3858 19.3917 11.3218 19.2369C11.2578 19.082 11.2249 18.9161 11.225 18.7486C11.2251 18.5811 11.2582 18.4152 11.3224 18.2604C11.3866 18.1057 11.4806 17.9651 11.5992 17.8467C11.7177 17.7283 11.8584 17.6344 12.0132 17.5704C12.168 17.5064 12.3339 17.4735 12.5015 17.4736C12.8398 17.4738 13.1642 17.6084 13.4033 17.8478C13.6425 18.0872 13.7767 18.4117 13.7765 18.7501C13.7763 19.0884 13.6417 19.4129 13.4023 19.652C13.1629 19.8911 12.8383 20.0253 12.5 20.0251ZM12.5 9.2251C10.97 9.2251 9.72498 10.4701 9.72498 12.0001C9.72498 13.5301 10.97 14.7751 12.5 14.7751C14.03 14.7751 15.275 13.5301 15.275 12.0001C15.275 10.4701 14.03 9.2251 12.5 9.2251ZM12.5 13.2751C12.3324 13.275 12.1666 13.2419 12.0118 13.1777C11.8571 13.1135 11.7165 13.0194 11.5981 12.9009C11.359 12.6615 11.2248 12.3369 11.225 11.9986C11.2252 11.6602 11.3598 11.3358 11.5992 11.0967C11.8386 10.8576 12.1631 10.7234 12.5015 10.7236C12.8398 10.7238 13.1642 10.8584 13.4033 11.0978C13.6425 11.3372 13.7767 11.6617 13.7765 12.0001C13.7763 12.3384 13.6417 12.6629 13.4023 12.902C13.1629 13.1411 12.8383 13.2753 12.5 13.2751ZM19.25 2.4751C17.72 2.4751 16.475 3.7201 16.475 5.2501C16.475 6.7801 17.72 8.0251 19.25 8.0251C20.78 8.0251 22.025 6.7801 22.025 5.2501C22.025 3.7201 20.78 2.4751 19.25 2.4751ZM19.25 6.5251C18.9116 6.5249 18.5872 6.3903 18.3481 6.15091C18.109 5.91152 17.9748 5.58695 17.975 5.2486C17.9752 4.91025 18.1098 4.58583 18.3492 4.34673C18.5886 4.10762 18.9131 3.9734 19.2515 3.9736C19.419 3.9737 19.5849 4.00679 19.7396 4.071C19.8944 4.1352 20.035 4.22925 20.1533 4.34779C20.2717 4.46632 20.3656 4.60701 20.4297 4.76183C20.4937 4.91665 20.5266 5.08256 20.5265 5.2501C20.5264 5.41763 20.4933 5.58351 20.4291 5.73825C20.3649 5.89299 20.2708 6.03357 20.1523 6.15197C20.0338 6.27036 19.8931 6.36425 19.7382 6.42827C19.5834 6.4923 19.4175 6.5252 19.25 6.5251ZM19.25 15.9751C17.72 15.9751 16.475 17.2201 16.475 18.7501C16.475 20.2801 17.72 21.5251 19.25 21.5251C20.78 21.5251 22.025 20.2801 22.025 18.7501C22.025 17.2201 20.78 15.9751 19.25 15.9751ZM19.25 20.0251C19.0824 20.025 18.9166 19.9919 18.7618 19.9277C18.6071 19.8635 18.4665 19.7694 18.3481 19.6509C18.2297 19.5324 18.1358 19.3917 18.0718 19.2369C18.0078 19.082 17.9749 18.9161 17.975 18.7486C17.9751 18.5811 18.0082 18.4152 18.0724 18.2604C18.1366 18.1057 18.2306 17.9651 18.3492 17.8467C18.4677 17.7283 18.6084 17.6344 18.7632 17.5704C18.918 17.5064 19.0839 17.4735 19.2515 17.4736C19.5898 17.4738 19.9142 17.6084 20.1533 17.8478C20.3925 18.0872 20.5267 18.4117 20.5265 18.7501C20.5263 19.0884 20.3917 19.4129 20.1523 19.652C19.9129 19.8911 19.5883 20.0253 19.25 20.0251ZM19.25 9.2251C17.72 9.2251 16.475 10.4701 16.475 12.0001C16.475 13.5301 17.72 14.7751 19.25 14.7751C20.78 14.7751 22.025 13.5301 22.025 12.0001C22.025 10.4701 20.78 9.2251 19.25 9.2251ZM19.25 13.2751C19.0824 13.275 18.9166 13.2419 18.7618 13.1777C18.6071 13.1135 18.4665 13.0194 18.3481 12.9009C18.109 12.6615 17.9748 12.3369 17.975 11.9986C17.9752 11.6602 18.1098 11.3358 18.3492 11.0967C18.5886 10.8576 18.9131 10.7234 19.2515 10.7236C19.5898 10.7238 19.9142 10.8584 20.1533 11.0978C20.3925 11.3372 20.5267 11.6617 20.5265 12.0001C20.5263 12.3384 20.3917 12.6629 20.1523 12.902C19.9129 13.1411 19.5883 13.2753 19.25 13.2751Z" fill="white"/>
</svg>
