<svg width="23" height="23" viewBox="0 0 23 23" fill="none" xmlns="http://www.w3.org/2000/svg">
<path d="M7.38403 3.36687L7.77953 4.00412L7.38403 3.36687ZM15.616 3.36687L15.2205 4.00412H15.2205L15.616 3.36687ZM17.616 4.60812L18.0115 3.97088L17.616 4.60812ZM5.38403 4.60813L5.77953 5.24537L5.38403 4.60813ZM14.5 18.25C14.9142 18.25 15.25 17.9142 15.25 17.5C15.25 17.0858 14.9142 16.75 14.5 16.75V18.25ZM8.5 16.75C8.08579 16.75 7.75 17.0858 7.75 17.5C7.75 17.9142 8.08579 18.25 8.5 18.25V16.75ZM13.5 20.75H9.5V22.25H13.5V20.75ZM5.77953 5.24537L7.77953 4.00412L6.98854 2.72962L4.98854 3.97088L5.77953 5.24537ZM15.2205 4.00412L17.2205 5.24537L18.0115 3.97088L16.0115 2.72962L15.2205 4.00412ZM2.25 13.225V11.7039H0.75V13.225H2.25ZM20.75 11.7039V13.225H22.25V11.7039H20.75ZM7.77953 4.00412C8.79529 3.37371 9.5095 2.93153 10.1065 2.6412C10.6882 2.35833 11.1002 2.25 11.5 2.25V0.75C10.7919 0.75 10.1485 0.95282 9.45055 1.29224C8.76794 1.62419 7.97813 2.11545 6.98854 2.72962L7.77953 4.00412ZM16.0115 2.72962C15.0219 2.11545 14.2321 1.62419 13.5494 1.29224C12.8515 0.952819 12.2081 0.75 11.5 0.75V2.25C11.8998 2.25 12.3118 2.35833 12.8935 2.64119C13.4905 2.93153 14.2047 3.37371 15.2205 4.00412L16.0115 2.72962ZM9.5 20.75C7.59247 20.75 6.23983 20.7483 5.21422 20.6057C4.21286 20.4664 3.63514 20.2058 3.21079 19.7669L2.13236 20.8094C2.87958 21.5824 3.83046 21.9277 5.00761 22.0914C6.16051 22.2517 7.63629 22.25 9.5 22.25V20.75ZM0.75 13.225C0.75 15.1549 0.74851 16.6753 0.902703 17.8616C1.05937 19.067 1.38856 20.0401 2.13236 20.8094L3.21079 19.7669C2.78301 19.3244 2.52641 18.7163 2.39019 17.6683C2.25149 16.6012 2.25 15.1959 2.25 13.225H0.75ZM13.5 22.25C15.3637 22.25 16.8395 22.2517 17.9924 22.0914C19.1695 21.9277 20.1204 21.5824 20.8676 20.8094L19.7892 19.7669C19.3649 20.2058 18.7871 20.4664 17.7858 20.6057C16.7602 20.7483 15.4075 20.75 13.5 20.75V22.25ZM20.75 13.225C20.75 15.1959 20.7485 16.6012 20.6098 17.6683C20.4736 18.7163 20.217 19.3244 19.7892 19.7669L20.8676 20.8094C21.6114 20.0401 21.9406 19.067 22.0973 17.8616C22.2515 16.6753 22.25 15.1549 22.25 13.225H20.75ZM17.2205 5.24537C18.1813 5.84169 18.8559 6.26135 19.3591 6.6467C19.8487 7.02164 20.1303 7.33106 20.3229 7.68285L21.6387 6.96263C21.3121 6.36589 20.8599 5.90669 20.2711 5.45581C19.6959 5.01533 18.9477 4.55194 18.0115 3.97088L17.2205 5.24537ZM22.25 11.7039C22.25 10.5736 22.2508 9.6745 22.1818 8.9407C22.1114 8.19174 21.9646 7.55812 21.6387 6.96263L20.3229 7.68285C20.5162 8.03589 20.629 8.44865 20.6884 9.08104C20.7492 9.72859 20.75 10.5458 20.75 11.7039H22.25ZM4.98854 3.97088C4.05228 4.55195 3.30406 5.01533 2.7289 5.45581C2.14015 5.90669 1.68795 6.36589 1.36131 6.96263L2.67709 7.68285C2.86965 7.33106 3.15133 7.02164 3.64092 6.6467C4.1441 6.26135 4.81869 5.84169 5.77953 5.24537L4.98854 3.97088ZM2.25 11.7039C2.25 10.5458 2.25076 9.72859 2.31161 9.08104C2.37103 8.44865 2.48385 8.03589 2.67709 7.68285L1.36131 6.96263C1.03535 7.55812 0.888567 8.19174 0.818189 8.9407C0.749237 9.6745 0.75 10.5736 0.75 11.7039H2.25ZM14.5 16.75H8.5V18.25H14.5V16.75Z" fill="white"/>
</svg>
