<svg width="25" height="24" viewBox="0 0 25 24" fill="none" xmlns="http://www.w3.org/2000/svg">
<path d="M23.9095 10.5752L13.9263 0.592004C13.1389 -0.195382 11.8619 -0.195382 11.0745 0.592004C10.2871 1.37939 10.2871 2.65641 11.0745 3.44379L19.6309 12.0001L11.0745 20.5564C10.2871 21.3438 10.2871 22.6208 11.0745 23.4082C11.8619 24.1955 13.1389 24.1955 13.9263 23.4082L23.9095 13.425C24.6968 12.6396 24.6968 11.3626 23.9095 10.5752ZM11.9059 9.97068L3.98007 1.61723C3.18367 0.7789 1.89371 0.7789 1.0973 1.61723C0.300899 2.45555 0.300899 3.81551 1.0973 4.65485L7.58223 11.4895L1.0973 18.3241C0.300899 19.1625 0.300899 20.5234 1.0973 21.3618C1.89371 22.2001 3.18367 22.2001 3.98007 21.3618L11.9059 13.0083C12.7023 12.17 12.7023 10.81 11.9059 9.97068Z" fill="white"/>
</svg>
