<svg width="24" height="24" viewBox="0 0 24 24" fill="none" xmlns="http://www.w3.org/2000/svg">
<path d="M22.8105 8.96399H22.3337V7.19188C22.3337 6.14427 21.4815 5.29199 20.4338 5.29199H13.5483C12.91 5.29199 12.3447 5.60873 12 6.0929C11.6553 5.60868 11.09 5.29199 10.4517 5.29199H6.12595C6.03271 5.29199 5.94329 5.32903 5.87736 5.39496C5.81143 5.46089 5.77439 5.55031 5.77439 5.64355C5.77439 5.73679 5.81143 5.82622 5.87736 5.89215C5.94329 5.95808 6.03271 5.99512 6.12595 5.99512H10.4517C11.1116 5.99512 11.6484 6.53198 11.6484 7.19188V10.708C11.6411 10.7009 11.6333 10.6943 11.6258 10.6873C11.2091 10.2988 10.6443 10.0748 10.0742 10.0748H4.21823C4.18725 9.60276 3.86545 9.18759 3.42141 9.03018C3.29608 8.9861 3.16416 8.96372 3.03131 8.96399H2.36939V7.19188C2.36939 6.53198 2.90625 5.99512 3.56616 5.99512H4.7197C4.81294 5.99512 4.90236 5.95808 4.9683 5.89215C5.03423 5.82622 5.07127 5.73679 5.07127 5.64355C5.07127 5.55031 5.03423 5.46089 4.9683 5.39496C4.90236 5.32903 4.81294 5.29199 4.7197 5.29199H3.56616C2.51855 5.29199 1.66627 6.14427 1.66627 7.19188V8.96399H1.18945C0.533578 8.96399 0 9.49766 0 10.1534V13.8243C0 15.1901 1.11122 16.3013 2.47706 16.3013H2.65373L2.26852 17.3375C2.02566 17.9907 2.52553 18.7082 3.22125 18.7082H3.78684C4.10344 18.7082 4.40648 18.5574 4.5975 18.3049L6.11302 16.3013H17.8871L19.4026 18.305C19.5936 18.5574 19.8967 18.7082 20.2132 18.7082H20.7787C21.4753 18.7082 21.9743 17.9905 21.7315 17.3375L21.3462 16.3013H21.5229C22.8888 16.3013 24 15.1901 24 13.8243V10.1534C24 9.49766 23.4664 8.96399 22.8105 8.96399ZM12.3516 7.19198C12.3516 6.53202 12.8884 5.99516 13.5483 5.99516H20.4338C21.0938 5.99516 21.6306 6.53202 21.6306 7.19193V8.96404H20.9686C20.5012 8.96404 20.0528 9.26404 19.8715 9.69445C19.8207 9.8154 19.7903 9.94397 19.7818 10.0749H13.9258C13.3469 10.0749 12.7699 10.3078 12.3516 10.7081V7.19198ZM4.22081 10.778H10.0742C10.9423 10.778 11.6484 11.4842 11.6484 12.3522V12.8521H4.22081V10.778ZM4.03673 17.8807C4.00743 17.9193 3.96963 17.9505 3.92629 17.9721C3.88294 17.9937 3.83521 18.0049 3.7868 18.0051H3.2212C3.00595 18.0051 2.85253 17.7842 2.92753 17.5826L3.40387 16.3013H5.23134L4.03673 17.8807ZM20.7787 18.005H20.2132C20.1648 18.0049 20.1171 17.9936 20.0737 17.9721C20.0304 17.9505 19.9926 17.9193 19.9633 17.8807L18.7687 16.3013H20.5961L21.0725 17.5825C21.1476 17.7846 20.9931 18.005 20.7787 18.005ZM21.5229 15.5982H2.47706C1.49892 15.5983 0.703125 14.8024 0.703125 13.8243V10.1534C0.703125 9.88527 0.921281 9.66712 1.18945 9.66712H3.03131C3.29948 9.66712 3.51764 9.88527 3.51764 10.1534V13.2036C3.51764 13.2969 3.55468 13.3863 3.62061 13.4522C3.68654 13.5182 3.77596 13.5552 3.8692 13.5552H16.7822C16.8754 13.5552 16.9648 13.5182 17.0308 13.4522C17.0967 13.3863 17.1337 13.2969 17.1337 13.2036C17.1337 13.1104 17.0967 13.021 17.0308 12.9551C16.9648 12.8891 16.8754 12.8521 16.7822 12.8521H12.3516V12.3522C12.3516 11.4841 13.0577 10.778 13.9258 10.778H19.7792V12.8521H18.1884C18.0952 12.8521 18.0058 12.8892 17.9398 12.9551C17.8739 13.021 17.8369 13.1105 17.8369 13.2037C17.8369 13.2969 17.8739 13.3864 17.9398 13.4523C18.0058 13.5182 18.0952 13.5553 18.1884 13.5553H20.1307C20.224 13.5553 20.3134 13.5182 20.3793 13.4523C20.4453 13.3864 20.4823 13.2969 20.4823 13.2037V10.1535C20.4823 9.88532 20.7005 9.66716 20.9686 9.66716H22.8105C23.0787 9.66716 23.2968 9.88532 23.2968 10.1535V13.8243H23.2969C23.2969 14.8024 22.5011 15.5982 21.5229 15.5982Z" fill="black"/>
</svg>
