<svg width="19" height="22" viewBox="0 0 19 22" fill="none" xmlns="http://www.w3.org/2000/svg">
<path d="M7.75 3.41666C7.75 3.26195 7.81146 3.11358 7.92085 3.00418C8.03025 2.89479 8.17862 2.83333 8.33333 2.83333H10.6667C10.8214 2.83333 10.9697 2.89479 11.0791 3.00418C11.1885 3.11358 11.25 3.26195 11.25 3.41666C11.25 3.57137 11.1885 3.71974 11.0791 3.82914C10.9697 3.93854 10.8214 3.99999 10.6667 3.99999H8.33333C8.17862 3.99999 8.03025 3.93854 7.92085 3.82914C7.81146 3.71974 7.75 3.57137 7.75 3.41666Z" fill="black"/>
<path fill-rule="evenodd" clip-rule="evenodd" d="M14.9623 7.80333C14.7506 7.96958 14.4758 8.10258 14.1445 8.2105C14.1593 8.36061 14.1667 8.51267 14.1667 8.66667C14.1664 9.29857 14.0378 9.92385 13.7887 10.5046C13.5396 11.0853 13.1751 11.6094 12.7174 12.0451C12.2597 12.4807 11.7183 12.8189 11.126 13.0391C10.5337 13.2592 9.9028 13.3568 9.27165 13.3259C8.6405 13.295 8.0222 13.1362 7.45425 12.8592C6.8863 12.5822 6.38052 12.1927 5.96758 11.7144C5.55465 11.236 5.24316 10.6788 5.05199 10.0766C4.86083 9.47425 4.79398 8.83941 4.8555 8.2105C4.52417 8.10258 4.24942 7.96958 4.03825 7.80333C3.76408 7.5875 3.58033 7.29933 3.55875 6.95283C3.53833 6.63142 3.6655 6.35842 3.79267 6.16592C3.91815 5.98354 4.06722 5.81858 4.236 5.67533C4.31844 5.60378 4.39739 5.54019 4.47283 5.48458C4.45028 5.36442 4.42656 5.22053 4.40167 5.05292C4.29885 4.31756 4.24817 3.57584 4.25 2.83333C4.25 2.65017 4.32817 2.51367 4.36433 2.45592C4.40983 2.383 4.4635 2.32058 4.5125 2.27042C4.60992 2.16833 4.73592 2.0645 4.87417 1.96475C5.15417 1.76175 5.53917 1.53367 5.9965 1.32017C6.90825 0.894333 8.16067 0.5 9.5 0.5C10.8393 0.5 12.0918 0.894917 13.0035 1.32017C13.3967 1.49991 13.7724 1.71569 14.1258 1.96475C14.2641 2.0645 14.3901 2.16892 14.4875 2.27042C14.5365 2.32058 14.5902 2.383 14.6357 2.45592C14.6718 2.51367 14.75 2.65017 14.75 2.83333C14.75 3.76783 14.6742 4.525 14.5983 5.05292C14.5734 5.22092 14.5497 5.36481 14.5272 5.48458C14.6018 5.54 14.6829 5.60358 14.7646 5.67533C14.9104 5.80308 15.0773 5.96933 15.2073 6.16592C15.3351 6.35842 15.4617 6.63142 15.4418 6.95342C15.4203 7.29933 15.2365 7.5875 14.9623 7.80333ZM5.41783 3.01883C5.42658 3.80517 5.49192 4.441 5.55667 4.8855C5.57222 4.9905 5.587 5.08422 5.601 5.16667H13.399C13.4134 5.08383 13.4282 4.99011 13.4433 4.8855C13.5075 4.441 13.5734 3.80517 13.5822 3.01883C13.5367 2.9805 13.4898 2.94392 13.4416 2.90917C13.231 2.75692 12.9113 2.565 12.51 2.37775C11.7032 2.00092 10.6223 1.66667 9.5 1.66667C8.37767 1.66667 7.29675 2.00092 6.49 2.37775C6.08867 2.565 5.769 2.75692 5.559 2.90858C5.51054 2.9437 5.46345 2.98068 5.41783 3.01942M5.293 6.33333L5.29125 6.3345C5.19054 6.40155 5.09411 6.4748 5.0025 6.55383C4.89867 6.64483 4.81583 6.7335 4.76567 6.8105C4.754 6.82799 4.74329 6.8461 4.73358 6.86475L4.75925 6.88633C4.84675 6.95517 5.03458 7.05608 5.40092 7.15583C5.47325 7.17528 5.55083 7.19433 5.63367 7.213L5.63892 7.21417C5.93175 7.27892 6.29225 7.33667 6.7315 7.38217C7.35392 7.44692 8.13733 7.4895 9.11617 7.49883L9.5 7.5C11.3824 7.5 12.5998 7.38275 13.3617 7.21417L13.3663 7.213C13.4496 7.19472 13.5273 7.17567 13.5997 7.15583C13.9654 7.05667 14.1538 6.95517 14.2407 6.88633L14.2664 6.86475C14.2569 6.84611 14.2464 6.82801 14.2349 6.8105C14.1668 6.71536 14.0871 6.62913 13.9975 6.55383C13.9061 6.47482 13.8098 6.40157 13.7093 6.3345L13.707 6.33333H5.293ZM9.34133 8.66667C10.8825 8.66667 12.0772 8.585 12.993 8.44267C12.9977 8.51656 13 8.59122 13 8.66667C12.9996 9.13377 12.9057 9.59606 12.7238 10.0263C12.5419 10.4565 12.2758 10.846 11.9411 11.1718C11.6063 11.4976 11.2097 11.7531 10.7747 11.9232C10.3397 12.0933 9.87504 12.1746 9.4081 12.1624C8.94116 12.1501 8.4814 12.0445 8.05591 11.8518C7.63042 11.659 7.24781 11.3831 6.93063 11.0402C6.61345 10.6973 6.36812 10.2944 6.20909 9.85518C6.05006 9.41598 5.98056 8.9494 6.00467 8.48292C6.85808 8.60075 7.95183 8.66667 9.34133 8.66667ZM4.87883 19.6783C4.8483 19.8953 4.8331 20.1142 4.83333 20.3333V20.9167C4.8334 21.0449 4.79121 21.1696 4.71328 21.2714C4.63536 21.3733 4.52605 21.4466 4.40226 21.4801C4.27847 21.5135 4.1471 21.5053 4.02847 21.4566C3.90984 21.4079 3.81056 21.3215 3.746 21.2107C3.35267 21.4234 2.89285 21.4774 2.46092 21.3618L1.33392 21.0596C0.885775 20.9393 0.503751 20.6459 0.271846 20.244C0.0399403 19.8422 -0.0228613 19.3646 0.0972494 18.9164L0.549916 17.2259C0.670083 16.7777 0.963377 16.3955 1.36529 16.1635C1.7672 15.9315 2.24481 15.8686 2.69308 15.9887L3.82008 16.2903C4.21208 16.3953 4.53758 16.6257 4.76392 16.9267C5.30402 16.1751 6.01536 15.563 6.83905 15.141C7.66274 14.719 8.57509 14.4993 9.50058 14.5C10.4256 14.4995 11.3374 14.7193 12.1607 15.141C12.9839 15.5628 13.6949 16.1745 14.2349 16.9255C14.4698 16.615 14.8015 16.3916 15.1776 16.2908L16.3046 15.9893C16.7528 15.8691 17.2303 15.9319 17.6322 16.1638C18.0341 16.3958 18.3275 16.7778 18.4478 17.2259L18.901 18.917C18.9605 19.139 18.9756 19.3705 18.9456 19.5984C18.9155 19.8262 18.8409 20.0459 18.726 20.245C18.611 20.444 18.458 20.6184 18.2756 20.7583C18.0933 20.8981 17.8852 21.0007 17.6632 21.0602L16.5368 21.3618C16.1056 21.4775 15.6465 21.4241 15.2534 21.2124C15.1886 21.3231 15.0892 21.4093 14.9706 21.4577C14.8519 21.5062 14.7205 21.5142 14.5968 21.4806C14.4731 21.4469 14.364 21.3734 14.2862 21.2715C14.2084 21.1696 14.1664 21.0449 14.1667 20.9167V20.3333C14.1669 20.1142 14.1517 19.8953 14.1212 19.6783L11.0855 20.492C10.9446 20.7936 10.7206 21.0488 10.4397 21.2275C10.1589 21.4063 9.8329 21.5013 9.5 21.5013C9.1671 21.5013 8.8411 21.4063 8.56026 21.2275C8.27943 21.0488 8.05541 20.7936 7.9145 20.492L4.87883 19.6783ZM7.82 19.2583C7.89799 18.9922 8.03809 18.7484 8.22876 18.5471C8.41943 18.3458 8.65521 18.1927 8.91667 18.1003V15.7028C8.09847 15.8063 7.32225 16.1245 6.66685 16.6251C6.01144 17.1257 5.50021 17.7909 5.18508 18.553L7.82 19.2583ZM13.8149 18.5524C13.4997 17.7904 12.9884 17.1254 12.333 16.6249C11.6776 16.1244 10.9015 15.8063 10.0833 15.7028V18.0998C10.6107 18.2864 11.0225 18.7181 11.18 19.2588L13.8149 18.5524ZM15.0673 18.1324C15.0475 18.0584 15.0424 17.9812 15.0524 17.9053C15.0624 17.8293 15.0872 17.7561 15.1255 17.6897C15.1638 17.6233 15.2148 17.5652 15.2756 17.5185C15.3364 17.4719 15.4057 17.4377 15.4797 17.4178L16.6068 17.1157C16.7561 17.0758 16.9152 17.0968 17.0491 17.1741C17.183 17.2514 17.2807 17.3788 17.3208 17.5281L17.774 19.2186C17.7938 19.2926 17.7989 19.3698 17.7889 19.4457C17.779 19.5217 17.7541 19.5949 17.7158 19.6613C17.6775 19.7277 17.6265 19.7858 17.5657 19.8325C17.505 19.8791 17.4356 19.9133 17.3616 19.9332L16.2346 20.2353C16.1605 20.2552 16.0833 20.2602 16.0073 20.2502C15.9313 20.2402 15.8581 20.2153 15.7917 20.1769C15.7253 20.1386 15.6672 20.0875 15.6206 20.0267C15.5739 19.9658 15.5398 19.8964 15.52 19.8223L15.0673 18.1324ZM2.3915 17.1157C2.31746 17.0957 2.24022 17.0906 2.16419 17.1005C2.08816 17.1105 2.01484 17.1353 1.94841 17.1736C1.88199 17.2119 1.82377 17.2629 1.77708 17.3238C1.7304 17.3846 1.69616 17.454 1.67633 17.5281L1.22367 19.218C1.20382 19.292 1.19874 19.3692 1.20872 19.4452C1.21871 19.5211 1.24356 19.5944 1.28185 19.6607C1.32015 19.7271 1.37115 19.7852 1.43193 19.8319C1.49271 19.8785 1.56208 19.9128 1.63608 19.9326L2.76308 20.2348C2.83708 20.2546 2.91427 20.2597 2.99023 20.2497C3.06619 20.2397 3.13945 20.2149 3.2058 20.1766C3.27216 20.1383 3.33032 20.0873 3.37697 20.0265C3.42362 19.9657 3.45783 19.8963 3.47767 19.8223L3.93033 18.1318C3.95027 18.0578 3.95542 17.9806 3.94547 17.9045C3.93553 17.8285 3.9107 17.7552 3.87239 17.6887C3.83409 17.6223 3.78307 17.5641 3.72224 17.5174C3.66142 17.4707 3.59198 17.4365 3.51792 17.4167L2.3915 17.1157ZM10.0833 19.75C10.0833 19.9047 10.0219 20.0531 9.91248 20.1625C9.80308 20.2719 9.65471 20.3333 9.5 20.3333C9.34529 20.3333 9.19692 20.2719 9.08752 20.1625C8.97812 20.0531 8.91667 19.9047 8.91667 19.75C8.91667 19.5953 8.97812 19.4469 9.08752 19.3375C9.19692 19.2281 9.34529 19.1667 9.5 19.1667C9.65471 19.1667 9.80308 19.2281 9.91248 19.3375C10.0219 19.4469 10.0833 19.5953 10.0833 19.75Z" fill="black"/>
</svg>
