<svg width="55" height="56" viewBox="0 0 55 56" fill="none" xmlns="http://www.w3.org/2000/svg">
<g clip-path="url(#clip0_3377_15977)">
<path d="M27.5005 0.731934C18.5075 0.731934 11.1375 8.07993 11.1375 17.0482C11.1375 20.5231 12.2474 23.7527 14.1256 26.407L25.5035 46.0767C27.0968 48.1584 28.1561 47.763 29.4811 45.9667L42.0309 24.6102C42.2839 24.1515 42.4831 23.6631 42.6563 23.1642C43.4527 21.2235 43.8622 19.146 43.8619 17.0482C43.8625 8.07993 36.4946 0.731934 27.5005 0.731934ZM27.5005 8.37693C32.3438 8.37693 36.1949 12.2192 36.1949 17.0482C36.1949 21.8772 32.3438 25.7179 27.5005 25.7179C22.6578 25.7179 18.805 21.8778 18.805 17.0482C18.805 12.2192 22.6578 8.37693 27.5005 8.37693Z" fill="#D31C22"/>
<path d="M37.9022 27.6313L37.8757 27.7006C37.884 27.6797 37.8906 27.6583 37.8988 27.6374L37.9022 27.6313ZM18.7033 38.7133C10.934 39.8111 5.5 42.4373 5.5 46.3033C5.5 51.5107 14.5794 55.7319 27.5 55.7319C40.4206 55.7319 49.5 51.5107 49.5 46.3033C49.5 42.4373 44.0666 39.8111 36.2978 38.7133L35.2215 40.5459C41.0768 41.3582 45.1 43.0654 45.1 45.0465C45.1 47.824 37.2201 50.0752 27.5 50.0752C17.7799 50.0752 9.9 47.824 9.9 45.0465C9.89945 43.072 13.8963 41.3665 19.7698 40.5508C19.415 39.9381 19.0586 39.3265 18.7033 38.7133Z" fill="#D31C22"/>
</g>
<defs>
<clipPath id="clip0_3377_15977">
<rect width="55" height="55" fill="white" transform="translate(0 0.731934)"/>
</clipPath>
</defs>
</svg>
