<svg width="41" height="40" viewBox="0 0 41 40" fill="none" xmlns="http://www.w3.org/2000/svg">
<path d="M30.5 16C33.8137 16 36.5 13.3137 36.5 10C36.5 6.68629 33.8137 4 30.5 4C27.1863 4 24.5 6.68629 24.5 10C24.5 10.251 24.5154 10.4983 24.5453 10.7412L14.6652 15.6813C13.5861 14.6403 12.1178 14 10.5 14C7.18629 14 4.5 16.6863 4.5 20C4.5 23.3137 7.18629 26 10.5 26C12.1178 26 13.5861 25.3597 14.6653 24.3186L24.5453 29.2587C24.5154 29.5016 24.5 29.749 24.5 30C24.5 33.3137 27.1863 36 30.5 36C33.8137 36 36.5 33.3137 36.5 30C36.5 26.6863 33.8137 24 30.5 24C28.8822 24 27.4139 24.6403 26.3348 25.6813L16.4547 20.7412C16.4846 20.4983 16.5 20.251 16.5 20C16.5 19.749 16.4846 19.5016 16.4547 19.2587L26.3347 14.3186C27.4139 15.3597 28.8822 16 30.5 16Z" fill="#0445E5"/>
</svg>
