<svg width="24" height="18" viewBox="0 0 24 18" fill="none" xmlns="http://www.w3.org/2000/svg">
<path d="M22.8598 5.14291C22.6906 4.99539 22.4813 4.90148 22.2587 4.8731C22.036 4.84472 21.8099 4.88316 21.6091 4.98353L16.9019 7.32728L12.9719 0.799468C12.8709 0.631961 12.7283 0.493399 12.558 0.397215C12.3877 0.30103 12.1954 0.250488 11.9998 0.250488C11.8041 0.250488 11.6118 0.30103 11.4415 0.397215C11.2712 0.493399 11.1286 0.631961 11.0276 0.799468L7.09756 7.33009L2.39225 4.98634C2.19195 4.88686 1.96672 4.84876 1.74484 4.87682C1.52296 4.90488 1.31431 4.99784 1.14507 5.14405C0.975832 5.29025 0.853545 5.48319 0.793556 5.69864C0.733568 5.91409 0.73855 6.14246 0.807877 6.35509L4.27663 16.9826C4.3115 17.0894 4.36991 17.1869 4.44755 17.2681C4.52518 17.3493 4.62005 17.412 4.72516 17.4516C4.83027 17.4912 4.94292 17.5066 5.05482 17.4969C5.16671 17.4871 5.27498 17.4523 5.37163 17.3951C5.39506 17.381 7.79225 16.0001 11.9998 16.0001C16.2073 16.0001 18.6044 17.381 18.626 17.3942C18.7227 17.4519 18.8311 17.4872 18.9433 17.4973C19.0555 17.5074 19.1685 17.4921 19.274 17.4526C19.3794 17.4131 19.4746 17.3503 19.5525 17.2689C19.6304 17.1875 19.6889 17.0897 19.7238 16.9826L23.1926 6.3579C23.2639 6.14522 23.2703 5.91612 23.2111 5.69976C23.1518 5.4834 23.0295 5.28956 22.8598 5.14291ZM18.5623 15.7029C17.4373 15.2257 15.1948 14.5001 11.9998 14.5001C8.80475 14.5001 6.56225 15.2257 5.43725 15.7029L2.50381 6.71884L6.72913 8.82541C6.98488 8.95153 7.2786 8.97731 7.55242 8.89766C7.82623 8.81802 8.0603 8.63872 8.2085 8.39509L11.9998 2.09322L15.791 8.39322C15.9393 8.63645 16.1732 8.81544 16.4468 8.89506C16.7203 8.97468 17.0137 8.94916 17.2694 8.82353L21.4957 6.71884L18.5623 15.7029ZM16.4876 12.7029C16.457 12.8764 16.3662 13.0336 16.2313 13.1469C16.0964 13.2602 15.9259 13.3224 15.7498 13.3226C15.7058 13.3225 15.6619 13.3188 15.6185 13.3113C13.2229 12.9001 10.7747 12.9001 8.37913 13.3113C8.1832 13.3459 7.98157 13.3012 7.81858 13.1871C7.6556 13.073 7.54463 12.8988 7.51007 12.7029C7.4755 12.507 7.52019 12.3053 7.63429 12.1424C7.7484 11.9794 7.92257 11.8684 8.1185 11.8338C10.6866 11.3926 13.3111 11.3926 15.8791 11.8338C16.0747 11.8682 16.2486 11.9786 16.3629 12.141C16.4771 12.3034 16.5223 12.5044 16.4885 12.7001L16.4876 12.7029Z" fill="white"/>
</svg>
