<svg width="24" height="24" viewBox="0 0 24 24" fill="none" xmlns="http://www.w3.org/2000/svg">
<path d="M22.1875 7.50992H20.205L20.4175 5.96742C20.435 5.83992 20.3975 5.70992 20.3125 5.61492C20.2472 5.53773 20.1577 5.48501 20.0585 5.46542L20.4325 4.46967L20.0815 4.33792L19.661 5.45742H19.459L19.3697 4.42142L18.9963 4.45342L19.0825 5.45742H18.555C18.4275 5.45742 18.305 5.51492 18.22 5.60992C18.135 5.70742 18.095 5.83492 18.1125 5.96742L18.325 7.50992H16.625V4.64992C16.625 4.16992 16.235 3.77742 15.755 3.77742H8.245C7.765 3.77742 7.375 4.16992 7.375 4.64992V7.50992H7.185C7.1925 7.42492 7.1625 7.34242 7.1 7.27742C6.8675 7.04242 6.8675 6.84992 7.1 6.61492C7.185 6.52742 7.21 6.40742 7.165 6.29742C7.15949 6.28229 7.15192 6.26799 7.1425 6.25492C7.1725 6.20492 7.1875 6.14742 7.1875 6.08742V5.18742C7.1875 5.12742 7.1725 5.06742 7.14 5.01742C7.15 5.00242 7.1575 4.98742 7.165 4.97242C7.21 4.86242 7.185 4.74242 7.1 4.65492C6.8675 4.41992 6.8675 4.22742 7.1 3.99242C7.185 3.90492 7.21 3.78492 7.165 3.67492C7.115 3.55742 6.995 3.48242 6.8575 3.48242H3.11C2.8675 3.48242 2.67 3.65742 2.67 3.87492V4.77242C2.67 4.83492 2.685 4.89242 2.715 4.94242C2.7075 4.95742 2.7 4.97242 2.6925 4.98992C2.6475 5.09742 2.6725 5.21992 2.7575 5.30492C2.99 5.54242 2.99 5.73492 2.7575 5.96992C2.6725 6.05742 2.6475 6.17742 2.6925 6.28742C2.7 6.30242 2.705 6.31492 2.715 6.32992C2.685 6.37992 2.67 6.43742 2.67 6.49742V7.39492C2.67 7.43492 2.6775 7.47492 2.6925 7.50992H1.8125V9.80492H3.225V21.2149H4.7925V13.4349H7.875V14.4899H6.19V16.6724H7.18V21.2149H8.7475V16.6724H15.2525V21.2149H16.82V16.6724H17.81V14.4899H16.125V13.4349H19.2075V21.2149H20.775V9.80492H22.1875V7.50992ZM18.5025 5.85742C18.51 5.84992 18.5275 5.83242 18.555 5.83242H19.9725C20.0025 5.83242 20.0225 5.84992 20.03 5.85992C20.04 5.86992 20.05 5.88992 20.045 5.91492L19.8275 7.50742H18.7025L18.4825 5.91742C18.48 5.88742 18.4925 5.86742 18.5025 5.85742ZM6.7225 7.41242H3.11C3.07 7.41242 3.0475 7.39492 3.045 7.39492L3.0425 6.50242C3.0475 6.49742 3.07 6.47992 3.11 6.47992H6.7225C6.4925 6.78492 6.4925 7.10742 6.7225 7.41242ZM3.135 5.16992H6.7475C6.7875 5.16992 6.81 5.18742 6.8125 5.18742L6.815 6.07992C6.81 6.08742 6.7875 6.10492 6.7475 6.10492H3.135C3.365 5.79992 3.365 5.47492 3.135 5.16992ZM3.11 3.85742H6.7225C6.4925 4.16242 6.4925 4.48492 6.7225 4.78992H3.11C3.07 4.78992 3.0475 4.77242 3.045 4.77242L3.0425 3.87992C3.0475 3.87492 3.07 3.85742 3.11 3.85742ZM7.75 4.64992C7.75 4.37492 7.9725 4.15242 8.245 4.15242H15.755C16.0275 4.15242 16.25 4.37492 16.25 4.64992V7.50992H7.75V4.64992ZM4.4175 20.8399H3.6V13.4349H4.4175V20.8399ZM8.25 13.4349H8.8725V14.4899H8.25V13.4349ZM14.7525 14.4899H9.2475V13.4349H14.7525V14.4899ZM8.3725 20.8399H7.555V16.6724H8.3725V20.8399ZM16.445 20.8399H15.6275V16.6724H16.445V20.8399ZM17.435 14.8649V16.2974H6.565V14.8649H16.125H17.435ZM15.75 14.4899H15.1275V13.4349H15.75V14.4899ZM20.4 20.8399H19.5825V13.4349H20.4V20.8399ZM20.4 13.0599H3.6V9.80492H20.4V13.0599ZM21.8125 9.42992H2.1875V7.88492H21.8125V9.42992Z" fill="black"/>
</svg>
