<svg width="24" height="24" viewBox="0 0 24 24" fill="none" xmlns="http://www.w3.org/2000/svg">
<g clip-path="url(#clip0_3601_4574)">
<path d="M23.25 22.875H22.7599L21.75 20.1818V18.7931L22.8656 13.9594C22.8783 13.9044 22.8784 13.8473 22.866 13.7923C22.8536 13.7373 22.8289 13.6858 22.7938 13.6416C22.7587 13.5975 22.714 13.5618 22.6632 13.5373C22.6124 13.5128 22.5568 13.5 22.5004 13.5H18.3754C18.2905 13.4999 18.2082 13.5287 18.1418 13.5814C18.0754 13.6342 18.0288 13.708 18.0097 13.7906L16.9519 18.375H15.7504C15.1301 18.375 14.6254 18.8797 14.6254 19.5V20.2046L13.9579 22.875H13.5004V22.125C13.5004 21.8209 13.3485 21.5659 13.1254 21.4474V17.625H15.7504C16.3706 17.625 16.8754 17.1203 16.8754 16.5C16.8754 15.8798 16.3706 15.375 15.7504 15.375H12.3754V7.12725C16.14 7.149 17.9089 7.48913 17.9272 7.49288C17.9512 7.49775 17.976 7.50037 18 7.50037H18.0011C18.0432 7.49952 18.0848 7.49153 18.1241 7.47675C18.1294 7.47487 18.1346 7.47563 18.1399 7.47375C19.5945 6.8925 23.1517 7.48875 23.1877 7.49512C23.2627 7.50795 23.3398 7.49767 23.4088 7.46565C23.4778 7.43363 23.5355 7.38137 23.5741 7.31583C23.6127 7.25028 23.6305 7.17455 23.625 7.09867C23.6196 7.02279 23.5912 6.95036 23.5436 6.891C20.787 3.4455 13.9316 1.88325 12.3757 1.56675V0.75C12.3757 0.650544 12.3362 0.555161 12.2659 0.484835C12.1956 0.414509 12.1002 0.375 12.0007 0.375C11.9013 0.375 11.8059 0.414509 11.7356 0.484835C11.6652 0.555161 11.6257 0.650544 11.6257 0.75V1.56638C10.0699 1.88287 3.21449 3.44513 0.457866 6.89062C0.410297 6.94999 0.381907 7.02242 0.376465 7.09829C0.371023 7.17417 0.388786 7.24991 0.427397 7.31545C0.466008 7.381 0.523641 7.43325 0.592644 7.46527C0.661648 7.4973 0.738759 7.50758 0.813741 7.49475C0.849741 7.48838 4.40662 6.89213 5.86162 7.47338C5.86462 7.4745 5.86799 7.47412 5.87099 7.47525C5.90737 7.48875 5.94599 7.4955 5.98537 7.49738C5.99062 7.49738 5.99549 7.50037 6.00074 7.50037C6.01349 7.50037 6.02549 7.49625 6.03787 7.49475C6.04987 7.49363 6.06187 7.4955 6.07387 7.49288C6.09187 7.4895 7.86074 7.14937 11.6257 7.12725V15.375H8.25074C7.63049 15.375 7.12574 15.8798 7.12574 16.5C7.12574 17.1203 7.63049 17.625 8.25074 17.625H10.8757V21.4474C10.6526 21.5659 10.5007 21.8205 10.5007 22.125V22.875H10.0432L9.37574 20.2046V19.5C9.37574 18.8797 8.87099 18.375 8.25074 18.375H7.04924L5.99137 13.7906C5.97228 13.708 5.92573 13.6342 5.85932 13.5814C5.79292 13.5287 5.71057 13.4999 5.62574 13.5H1.49999C1.44358 13.4999 1.38789 13.5127 1.3371 13.5372C1.28631 13.5618 1.24174 13.5975 1.20674 13.6417C1.17154 13.6858 1.14677 13.7373 1.1343 13.7923C1.12183 13.8473 1.12198 13.9044 1.13474 13.9594L2.25037 18.7931V20.1818L1.24049 22.875H0.750366C0.65091 22.875 0.555527 22.9145 0.485201 22.9848C0.414875 23.0552 0.375366 23.1505 0.375366 23.25C0.375366 23.3495 0.414875 23.4448 0.485201 23.5152C0.555527 23.5855 0.65091 23.625 0.750366 23.625H23.25C23.3494 23.625 23.4448 23.5855 23.5152 23.5152C23.5855 23.4448 23.625 23.3495 23.625 23.25C23.625 23.1505 23.5855 23.0552 23.5152 22.9848C23.4448 22.9145 23.3494 22.875 23.25 22.875ZM18.1579 6.67875C17.0512 4.9335 15.6544 3.68625 14.4814 2.85938C16.8217 3.51863 20.2241 4.73063 22.2536 6.609C21.1117 6.4785 19.3102 6.35437 18.1579 6.67875ZM1.74599 6.609C3.77549 4.731 7.17787 3.51863 9.51824 2.85938C8.34524 3.68625 6.94837 4.93388 5.84174 6.67875C4.68899 6.35437 2.88787 6.4785 1.74599 6.60862V6.609ZM12 2.28413C12.6375 2.57325 15.3202 3.90712 17.2331 6.63337C16.3084 6.52162 14.6002 6.37537 12 6.37537C9.39974 6.37537 7.69162 6.522 6.76687 6.63337C8.68012 3.90712 11.3625 2.57363 12 2.28413ZM20.5099 22.875L19.6661 20.625H21.1147L21.9585 22.875H20.5099ZM18.8647 20.625L19.7085 22.875H16.98L17.5425 20.625H18.8647ZM18.6731 14.25H22.0282L21.0761 18.375H17.721L18.6731 14.25ZM15.3746 19.5C15.3746 19.4005 15.4141 19.3052 15.4845 19.2348C15.5548 19.1645 15.6502 19.125 15.7496 19.125H20.9996V19.875H15.3746V19.5ZM15.2921 20.625H16.7692L16.2067 22.875H14.7296L15.2921 20.625ZM7.87462 16.5C7.87462 16.4005 7.91412 16.3052 7.98445 16.2348C8.05478 16.1645 8.15016 16.125 8.24962 16.125H15.7496C15.8491 16.125 15.9445 16.1645 16.0148 16.2348C16.0851 16.3052 16.1246 16.4005 16.1246 16.5C16.1246 16.5995 16.0851 16.6948 16.0148 16.7652C15.9445 16.8355 15.8491 16.875 15.7496 16.875H8.24999C8.15054 16.875 8.05515 16.8355 7.98483 16.7652C7.9145 16.6948 7.87462 16.5995 7.87462 16.5ZM12.3746 17.625V21.375H11.6246V17.625H12.3746ZM11.2496 22.125H12.7496V22.875H11.2496V22.125ZM7.79212 22.875L7.22962 20.625H8.70674L9.26924 22.875H7.79212ZM6.45674 20.625L7.01924 22.875H4.29074L5.13449 20.625H6.45674ZM8.62424 19.5V19.875H2.99999V19.125H8.24999C8.34945 19.125 8.44483 19.1645 8.51516 19.2348C8.58548 19.3052 8.62499 19.4005 8.62499 19.5H8.62424ZM5.32574 14.25L6.27787 18.375H2.92349L1.97137 14.25H5.32649H5.32574ZM2.88412 20.625H4.33274L3.48899 22.875H2.04037L2.88412 20.625Z" fill="black"/>
</g>
<defs>
<clipPath id="clip0_3601_4574">
<rect width="24" height="24" fill="white"/>
</clipPath>
</defs>
</svg>
