<svg width="348" height="348" viewBox="0 0 348 348" fill="none" xmlns="http://www.w3.org/2000/svg">
<g filter="url(#filter0_d_102_4)">
<path d="M314 150C314 227.32 251.32 290 174 290C96.6808 290 34.0009 227.32 34.0009 150C34.0009 72.6801 96.6808 10 174 10C251.32 10 314 72.6801 314 150Z" fill="white"/>
<path d="M174 10C251.319 10 313.999 72.6801 313.999 150C313.999 227.32 251.319 290 174 290C96.6799 290 34 227.32 34 150C34 72.6802 96.6799 10 174 10Z" fill="url(#paint0_linear_102_4)" style="mix-blend-mode:multiply"/>
<path d="M314 150C314 227.32 251.32 290 174 290C96.6808 290 34.0009 227.32 34.0009 150C34.0009 72.6801 96.6808 10 174 10C251.32 10 314 72.6801 314 150Z" fill="url(#paint1_linear_102_4)" style="mix-blend-mode:multiply"/>
</g>
<defs>
<filter id="filter0_d_102_4" x="0" y="0" width="348" height="348" filterUnits="userSpaceOnUse" color-interpolation-filters="sRGB">
<feFlood flood-opacity="0" result="BackgroundImageFix"/>
<feColorMatrix in="SourceAlpha" type="matrix" values="0 0 0 0 0 0 0 0 0 0 0 0 0 0 0 0 0 0 127 0" result="hardAlpha"/>
<feOffset dy="24"/>
<feGaussianBlur stdDeviation="17"/>
<feColorMatrix type="matrix" values="0 0 0 0 0 0 0 0 0 0 0 0 0 0 0 0 0 0 0.25 0"/>
<feBlend mode="normal" in2="BackgroundImageFix" result="effect1_dropShadow_102_4"/>
<feBlend mode="normal" in="SourceGraphic" in2="effect1_dropShadow_102_4" result="shape"/>
</filter>
<linearGradient id="paint0_linear_102_4" x1="34" y1="149.809" x2="313.999" y2="150" gradientUnits="userSpaceOnUse">
<stop stop-color="#FF0000"/>
<stop offset="0.0001" stop-color="#7D00FF"/>
<stop offset="0.489583" stop-color="#FEFFFE"/>
<stop offset="1" stop-color="#7DFF00"/>
</linearGradient>
<linearGradient id="paint1_linear_102_4" x1="174.191" y1="10" x2="174" y2="290" gradientUnits="userSpaceOnUse">
<stop stop-color="#FF0000"/>
<stop offset="0.489583" stop-color="#FEFFFE"/>
<stop offset="1" stop-color="#00FFFF"/>
</linearGradient>
</defs>
</svg>
